<?xml version="1.0" encoding="UTF-8"?>
<svg id="Layer_1" data-name="Layer 1" xmlns="http://www.w3.org/2000/svg" viewBox="0 0 468.03 116.32">
  <defs>
    <style>
      .cls-1 {
        fill: #fff;
      }
    </style>
  </defs>
  <path class="cls-1" d="m3.27,55.18c.14-.06.36.04.53.09.71.21,1.44.26,2.18.26,2.65-.01,5.29-.09,7.93-.37.24-.03.5-.04.73,0,2.28.45,4.57.61,6.88.24.19-.03.42.06.62.14.48.19.93.14,1.43.04,1.64-.33,3.3-.66,4.98-.24.84.21,1.68.26,2.53.03.43-.12.86-.03,1.28.3,1.37,1.04,3.07,1.1,4.62.94,1.5-.15,2.91-.31,4.4.1,1.28.35,2.61.72,3.96.63,1.25-.09,2.41.12,3.58.5,1.15.37,2.38.59,3.55.74,2.66.35,5.35.48,8.05.44.24,0,.49,0,.73.05,1.59.31,3.19.56,4.81.5.72-.03,1.38.15,2.05.4,1.06.38,2.1,1.07,3.24.85,1.93-.37,3.75.63,5.65.31.05,0,.11.05.17.06,1.55.21,2.95,1.22,4.62.8.22-.06.53.12.76.26.9.52,1.89.56,2.86.42,1.66-.24,3.28-.29,4.87.37,1.12.46,2.16.3,3.04-.57.24-.23.43-.51.65-.77.46-.54.86-.66,1.24.09.22.43.52.89,1.08.89.74,0,1.46.17,2.19.19.69.02,1.24.07,1.22.94,0,.26.18.42.39.45.96.17,1.85.65,2.85.65.72,0,1.43-.08,2.07.49.37.32.93.47,1.43.59.82.19,1.01-.03.84-.87-.08-.42-.11-.85-.25-1.25-.29-.86-.66-1.66-1.74-1.77-.49-.05-.8-.36-1-.83-.44-1.03-1.51-1.6-1.99-2.61-.08-.17-.32-.19-.5-.16-1.1.17-1.59-.47-1.98-1.37-.34-.79-.9-1.48-1.87-1.37-1.33.14-1.88-.77-2.36-1.66-.59-1.1-.77-1.28-2.04-1.1-.39.06-.8.08-1.17.2-.82.28-1.11-.03-1.18-.84-.1-1.1-.65-1.41-1.71-1.03-.4.14-.79.34-1.17.53-.66.33-1.17.34-1.37-.54-.09-.39-.32-.87-.8-.7-1.12.38-2.35.24-3.41.94-.99.66-2.03,1.34-3.39.9-.51-.17-1.12-.13-1.69-.12-.5,0-1.19.14-1.64-.34-1.28-1.34-2.87-1.92-4.65-1.56-1.29.26-2.27-.07-3.19-.88-.67-.59-1.42-.94-2.35-.81-1.38.21-2.64-.15-3.68-1.04-.67-.57-1.44-.92-2.19-1.33-1.51-.83-3.21-1.34-4.48-2.6-.55-.55-1.19-.73-1.99-.57-.75.14-1.52.4-2.26-.23-.4-.34-.68.15-.91.48-.64.88-1.54,1.3-2.55.88-1.37-.58-2.76-.52-4.18-.58-.82-.03-1.62-.2-2.44.01-.42.1-.81-.03-1.15-.4-1.18-1.31-2.12-3.11-4.41-2.38-.09.03-.23-.11-.34-.1-.65.05-1.41-.36-1.93.03-.73.55-.9.04-1.14-.4-.13-.23-.18-.52-.21-.79-.07-.61-.39-.58-.84-.4-.97.39-1.45,1.1-1.65,2.13-.26,1.4-.56,1.45-1.69.5-.29-.24-.48-.55-.62-.89-.5-1.18-1.33-1.5-2.48-.95-.2.09-.39.25-.6.17-1.14-.44-2.38-.75-3.28-1.57-.84-.77-1.45-1.79-2.17-2.7-.14-.18-.17-.51-.5-.44-.33.07-.54.31-.56.65-.03.67-.25,1.31-.22,2,.03.48-.19,1.02-.67,1.08-.5.06-.71-.49-.9-.91-.05-.11-.06-.24-.06-.36.02-.73-.33-1.19-.97-1.52-.84-.44-1.42-1.06-1.25-2.11.08-.53-.07-1.03-.2-1.53-.09-.35-.19-.72-.64-.81-.46-.09-.8.13-1.01.48-.39.64-.9,1.25-.91,2.06,0,.83-.72.61-1.15.71-.36.09-.89,0-1.01-.42-.15-.54.45-.63.77-.87.09-.07.22-.11.34-.14.31-.07.48-.24.48-.57,0-.38-.27-.57-.57-.63-.67-.13-1.41-.09-1.9.33-.58.5-1.21.76-1.89,1.05-.8.33-1.18.09-1.32-.67-.12-.66-.46-1.14-1.05-1.4-.78-.35-1.09-.91-1-1.75.06-.56-.09-1.08-.47-1.53-.38-.45-.89-.41-1.36-.29-.48.12-.36.58-.37.93,0,.46.02.92-.24,1.33M19.76,0c.18,1.04,1.03,1.65,2.15,1.38.77-.19,1.33.04,1.84.51.61.56,1.25.76,2.08.56.95-.24,2.48.59,2.87,1.46.17.37,0,.59-.36.68-.81.19-.3.53-.03.66.51.26,1.08.42,1.62.63.43.17.78.36.92.9.33,1.28,0,1.79-1.3,1.87-1.14.07-2.25-.14-3.37-.28-1.12-.15-2.23-.38-3.35-.41-.71-.02-1.39.34-2.14.36-1.51.04-2.78-.62-4.04-1.23-1.2-.59-1.53-.56-1.89.73-.16.58-.26,1.19-.32,1.79-.05.5-.24.83-.75.87-.56.04-1.14.06-1.44-.55-.17-.36-.22-.75-.23-1.16-.04-1.52-1.37-3.28-2.72-3.69-.37-.11-.73-.08-1.09-.1-.47-.02-1.02-.02-1.22.44-.19.44.36.64.61.91.25.28.43.59.59.92.12.25.25.46.59.5.79.08,1.24.57,1.5,1.29.22.6.58,1.05,1.25,1.22.48.13.7.56.85,1.01.17.5.47.88,1.05.86.56-.03.88-.38.98-.92.11-.56.47-.73.99-.73.55,0,.65.34.71.77.1.69.24,1.38.32,2.07.12,1.02,1.11,1.71,2.03,1.42.55-.17.68-.47.42-.96-.14-.27-.31-.53-.45-.8-.27-.5-.13-.81.36-1.12,1.19-.75,2.62-.79,3.87-1.35.31-.14.71-.02,1.08.11,1.18.42,1.31.98.39,1.81-.83.74-.74,2.69.13,3.06.72.31,1.74-.01,2.11-.81.35-.76.88-1.37,1.41-1.99.45-.52.93-.52,1.27.06.32.53.8.84,1.27,1.16.58.4,1.09.27,1.33-.38.53-1.39,1.49-2.02,2.97-1.96.57.02.97-.38,1.29-.79.65-.83,1.56-1.14,2.45-.77.91.38,1.29,1.39,1.43,2.31.21,1.38.32,1.5,1.65,1.66,1.54.19,3.07.48,4.58.79,1.08.22,2.14.11,3.16-.18.63-.18.64-.85.75-1.37.19-.85.85-1.27,1.78-1.08.74.15,1.17.9.99,1.7-.04.19-.11.38-.3.43-.84.25-1.11.89-.94,1.64.18.81.69,1.35,1.59,1.55,2.12.49,4.15,1.26,6.35,1.49,1.82.19,3.54.94,5.09,1.98.57.39,1.15.42,1.83.19,1.58-.54,2.32.07,2.25,1.69-.02.51.12,1.02.16,1.54.05.5-.11.81-.7.83-.92.03-1.57.46-1.76,1.42-.15.72-.53,1.16-1.29,1.35-.78.19-1.25,1.22-1,1.96.16.48.55.42.91.41.59-.02,1.09-.21,1.26-.85.04-.17.04-.37.01-.55-.13-.9.3-1.23,1.15-1.17.89.06,1.22-.5,1.23-1.25,0-.76.1-1.29,1.05-1.37.55-.04.83-.6.97-1.11.22-.79.82-1,1.54-1.05.77-.05,1.29.31,1.56,1.03.05.14.07.31.15.43.2.33.22.85.7.88.45.03.67-.38.87-.72.27-.45.51-.5,1.03-.24,1.2.62,2.09.29,2.75-.87.45-.79,1.27-1.06,2.03-1.03,1.07.05,2.12-.1,3.18-.06.75.03,1.11.26,1.15,1.06.06,1.04.95,1.73,1.3,2.67.09.25.48.12.76.03.72-.25,1.44-.5,2.18-.71.63-.17,1.27-.18,1.9.03.93.31,1.83.37,2.77-.04.66-.29,1.35,0,1.94.3.95.47,1.67,1.24,2.2,2.16.36.63.31,1.14-.45,1.48-.79.34-1.51.85-2.31-.02-.25-.28-.7-.21-1,.08-.4.38-.81.76-1.17,1.17-.26.3-.39.83.19.78,1.01-.1,1.54.52,2.06,1.13.59.7,1.13.65,1.67.02.47-.55.91-.6,1.6-.32,1.38.56,2.82.97,4.24,1.44.79.26,1.33,1.01,1.22,1.73-.16,1.11-.4,1.34-1.54,1.37-.74.02-1.24.35-1.48,1.02-.34.93-.95,1.02-1.74.62-.35-.17-.69-.19-1.07-.08-.6.17-1.22.17-1.81.01-.78-.21-1.52-.06-2.26.13-.22.06-.5.13-.5.45,0,.25.2.36.4.46.68.34,1.35.71,2.11.89,1.07.25,1.26.78.65,1.72-.64.98-1.54,1.68-2.61,2.08-.6.23-.79.51-.79,1.12,0,.63-.12,1.27-.66,1.74-.32.28-.38.71-.14,1,.46.57,1,1.07,1.54,1.57.25.24.52.14.69-.14.14-.23.24-.5.39-.73.24-.39.45-.89,1.01-.77.58.13.95.56,1.03,1.16.05.42.02.86.02,1.28,0,.23.04.46.28.53.26.08.39-.12.45-.34.16-.6.6-.7,1.14-.68.58.02,1.15-.02,1.73-.14.74-.16,1.37.02,1.98.62,1.73,1.68,2.94,3.73,4.3,5.67.37.53.81,1,1.4.81.98-.31,1.46.22,1.8.9.4.82,1.04,1.41,1.68,2.01.56.52.69,1.12.3,1.82-.34.62-.41,1.25.02,1.9.25.38.34.84.41,1.3.14.9.68,1.23,1.58,1.05,1.22-.25,2.3-.19,3.3.75.56.52.77.88.36,1.52-.09.15-.17.36.07.46.18.07.27-.1.35-.23.11-.18.19-.39.31-.56.3-.44.65-.54,1.05-.1.25.27.52.52.78.78.49.51.94.95,1.51.05.22-.34.48-.26.65.15.36.85-.11,1.72-1.03,1.83-.27.03-.56.01-.81.1-.33.11-.81.08-.9.52-.09.44.37.5.65.65.39.21.81.39,1.12-.13.28-.47.46-.39.8,0,.8.91,1.68,1.76,2.53,2.63.09.09.18.17.26.26.63.79,1.08,1.6,2.31,1.9.89.22,1.27,1.58,1.61,2.54.26.72.41,1.54.16,2.34-.15.47-.16.89.47.93.61.04,1.28.1,1.45-.74.08-.4-.07-.78-.15-1.17-.09-.48.06-.95.66-.79,1.96.51,3.76,1.37,5.37,2.62.21.16.48.37.31.69-.14.26-.43.32-.72.33-.6.04-1.46-.19-1.33.85.12.96,1.36,1.73,2.2,1.49.17-.05.33-.16.5-.22.39-.14.75-.14.87.36.12.51-.17,1.01-.61.92-1.99-.39-4.14.44-6-.68-1.01-.61-2.04-1.1-3.16-1.4-.79-.21-1.56-.32-1.95-1.26-.21-.52-.96-.51-1.49-.56-1.06-.11-2.02-.38-2.87-1.05-.28-.22-.66-.32-1.01-.41-1.64-.42-3.11-1.07-4.02-2.62-.2-.34-.55-.68-.99-.52-.8.28-1.1-.27-1.45-.76-.84-1.16-1.71-2.27-3.1-2.87-.5-.21-.78-.67-1.09-1.15-1-1.55-1.66-3.39-3.49-4.31-.94-.47-1.58-1.39-2.64-1.77-.52-.19-1-.44-1.56-.38-1.31.14-2.28-.79-3.47-1.07-1.48-.35-2.76-1.44-4.43-1.18-.29.05-.65-.17-.93-.34-.88-.54-1.63-.48-2.19.41-.46.73-.97.83-1.69.53-.31-.13-.67-.31-.98-.15-1.31.7-2.56.06-3.84-.1-2.17-.27-4.27-1.09-6.51-.86-.41.04-.77-.16-1.15-.3-1.01-.38-2.03-.7-3.12-.61-2.24.19-4.35-.28-6.43-1.07-1.17-.44-2.41-.61-3.69-.6-2.02.02-4-.46-5.96-.83-1.23-.23-2.41-.13-3.61-.18-2.95-.12-5.91-.22-8.86-.37-2.08-.11-3.95-.99-5.99-1.14-.92-.07-1.84-.12-2.75.03-1.04.16-2.07.01-3.1.02-1.93.02-3.6-.95-5.43-1.2-2.14-.29-4.28-.42-6.47-.27-1.84.13-3.69.47-5.57.15-1.09-.19-2.26-.21-3.38.08-.52.13-1.03-.05-1.54-.05-2.8-.02-5.6-.02-8.4-.1m59.64-15.55c.15.79.48,1.35.78,1.91.5.97.84,1.01,1.65.26.89-.83,1.65-.66,2.11.46.09.23.17.46.26.68.29.68.69.91,1.32.33.32-.29.75-.6,1.15-.31.92.65,2.2.87,2.62,2.15.03.11.16.18.25.27.18.18.39.32.65.16.29-.18.16-.41.05-.64-.22-.44-.32-.87.07-1.27.41-.41.76-.9,1.34-1.09.96-.32,1.59-.98,2.07-1.83.21-.37.41-.75.66-1.1.42-.6,1.08-.75,1.48-.36.82.8,1.16.88,1.95.16.55-.51,1.16-.78,1.85-.91.43-.08.77-.21.87-.67.09-.45-.13-.73-.48-1-.76-.58-.76-.85-.11-1.52.77-.79.67-1.18-.36-1.64-.5-.23-1.05-.28-1.52-.08-1.05.45-2,.25-3.01-.15-1.22-.48-2.05.03-2.19,1.3-.06.57.21,1.1.53,1.53.37.5.3.84-.18,1.12-.49.29-1.02.29-1.39-.21-.27-.37-.47-.78-.72-1.17-.19-.3-.43-.53-.83-.45-.57.11-1.21.11-1.68.39-1.07.64-2.02.43-2.98-.14-.34-.2-.65-.27-1.02-.04-1,.62-1.03.62-1.58-.49-.27-.54-.63-.93-1.28-.81-.88.16-1.63.62-1.74,1.53-.15,1.27.27,2.62-.61,3.63Z"/>
  <path class="cls-1" d="m0,30.63c.26-.42.23-.87.24-1.33,0-.35-.11-.81.37-.93.47-.12.97-.16,1.36.29.38.45.53.97.47,1.53-.09.84.22,1.4,1,1.75.59.27.93.74,1.05,1.4.14.76.52,1,1.32.67.68-.28,1.31-.55,1.89-1.05.49-.42,1.23-.46,1.9-.33.3.06.57.24.57.63,0,.33-.18.5-.48.57-.12.03-.24.07-.34.14-.32.24-.92.33-.77.87.12.42.65.5,1.01.42.43-.1,1.14.11,1.15-.71,0-.81.51-1.42.91-2.06.22-.35.55-.57,1.01-.48.45.09.55.45.64.81.13.5.28,1.01.2,1.53-.17,1.06.41,1.68,1.25,2.11.64.33.99.79.97,1.52,0,.12.01.25.06.36.19.42.4.97.9.91.48-.06.7-.6.67-1.08-.04-.68.19-1.33.22-2,.01-.34.23-.58.56-.65.33-.07.36.26.5.44.71.91,1.32,1.93,2.17,2.7.9.82,2.15,1.13,3.28,1.57.21.08.4-.08.6-.17,1.16-.55,1.98-.23,2.48.95.15.35.34.65.62.89,1.13.96,1.42.9,1.69-.5.2-1.03.68-1.74,1.65-2.13.45-.18.77-.21.84.4.03.27.08.56.21.79.24.44.41.95,1.14.4.52-.39,1.28.01,1.93-.03.11,0,.25.13.34.1,2.3-.73,3.23,1.08,4.41,2.38.33.37.73.51,1.15.4.83-.21,1.62-.05,2.44-.01,1.42.06,2.81,0,4.18.58,1,.43,1.91,0,2.55-.88.24-.33.51-.82.91-.48.74.63,1.52.38,2.26.23.8-.15,1.44.02,1.99.57,1.27,1.26,2.96,1.77,4.48,2.6.75.41,1.52.75,2.19,1.33,1.04.89,2.3,1.25,3.68,1.04.93-.14,1.67.21,2.35.81.92.81,1.89,1.14,3.19.88,1.78-.36,3.38.22,4.65,1.56.46.48,1.14.34,1.64.34.58,0,1.18-.04,1.69.12,1.36.44,2.39-.24,3.39-.9,1.06-.7,2.29-.56,3.41-.94.48-.16.71.31.8.7.21.88.71.87,1.37.54.38-.19.77-.39,1.17-.53,1.06-.38,1.61-.07,1.71,1.03.08.81.37,1.11,1.18.84.37-.12.78-.14,1.17-.2,1.27-.18,1.45,0,2.04,1.1.48.89,1.04,1.8,2.36,1.66.96-.1,1.53.59,1.87,1.37.39.9.88,1.54,1.98,1.37.18-.03.42,0,.5.16.48,1.01,1.56,1.58,1.99,2.61.2.47.51.78,1,.83,1.08.12,1.45.92,1.74,1.77.13.4.16.84.25,1.25.17.84-.02,1.07-.84.87-.5-.12-1.06-.27-1.43-.59-.64-.56-1.35-.49-2.07-.49-1,0-1.89-.48-2.85-.65-.21-.04-.39-.2-.39-.45.02-.87-.52-.92-1.22-.94-.73-.02-1.45-.18-2.19-.19-.56,0-.86-.45-1.08-.89-.39-.75-.79-.63-1.24-.09-.21.26-.41.53-.65.77-.88.87-1.92,1.03-3.04.57-1.59-.66-3.21-.61-4.87-.37-.97.14-1.96.1-2.86-.42-.23-.13-.54-.31-.76-.26-1.67.42-3.07-.6-4.62-.8-.06,0-.12-.07-.17-.06-1.9.33-3.72-.68-5.65-.31-1.14.22-2.19-.47-3.24-.85-.67-.24-1.33-.43-2.05-.4-1.63.07-3.22-.18-4.81-.5-.24-.05-.49-.05-.73-.05-2.69.04-5.39-.09-8.05-.44-1.17-.15-2.4-.37-3.55-.74-1.17-.38-2.33-.59-3.58-.5-1.35.09-2.68-.28-3.96-.63-1.49-.41-2.9-.25-4.4-.1-1.55.15-3.25.1-4.62-.94-.42-.32-.85-.41-1.28-.3-.86.23-1.69.18-2.53-.03-1.68-.42-3.34-.08-4.98.24-.5.1-.95.15-1.43-.04-.2-.08-.42-.17-.62-.14-2.31.37-4.6.21-6.88-.24-.24-.05-.49-.03-.73,0-2.64.28-5.28.35-7.93.37-.74,0-1.46-.05-2.18-.26-.17-.05-.39-.15-.53-.09"/>
  <path class="cls-1" d="m5.24,58.49c1.76-.03,3.51-.14,5.29.29,2.27.54,4.63.27,6.95.14,1.28-.07,2.55-.16,3.83.02.33.05.67.07,1,.07,3.12-.04,6.22.27,9.33.41,2.47.11,4.93.37,7.41.33.83-.01,1.63.28,2.46.2.21-.02.32.14.35.34-2.49-.25-5.01-.06-7.51-.29-1.73-.16-3.48-.04-5.22-.21-3.85-.37-7.72-.09-11.57-.23-3.94-.15-7.89-.38-11.83-.3"/>
  <path class="cls-1" d="m453.83,107.09c-1.42-.21-2.81-.88-4.3-.31-.35.13-.81.09-1.18-.02-1.7-.47-3.44-.46-5.17-.52-1.27-.04-2.53-.15-3.8-.17-.77-.01-1.5-.24-2.28-.22-.99.03-2.05.26-2.85-.63-.05-.06-.17-.08-.26-.07-1.1.13-2.17-.13-3.26-.18-2.66-.12-5.26-.65-7.86-1.13-2.34-.43-4.48-1.83-6.99-1.56-.03,0-.06-.02-.09-.03-1.65-.27-3.27-.78-4.98-.61-.45.05-.77-.13-.98-.53-.23-.44-.61-.71-1.09-.74-1.39-.1-2.75-.16-4.15-.42-1.42-.27-3.01-.29-4.54-.15-.3.03-.62,0-.91-.09-2.35-.73-4.68-1.54-7.06-2.16-.3-.08-.73-.07-.82-.49-.1-.45.34-.61.55-.88.21-.27.8-.29.62-.78-.15-.4-.6-.32-.96-.4-.31-.07-.59-.1-.89.01-.75.28-1.36.15-1.82-.56-.15-.24-.44-.35-.72-.33-1.2.07-2.37-.31-3.57-.19-.62.06-1.23-.08-1.79-.32-.54-.24-1.04-.27-1.6-.09-1.16.37-2.27.34-3.32-.4-.47-.33-1.1-.59-1.64-.36-.78.33-1.51.14-2.24.01-.92-.16-1.81-.18-2.72,0-1.13.22-2.27.5-3.4,0-1.06-.47-2.29-.44-3.08.12-1.08.77-2.35.87-3.42,1.49-.61.35-1.22.57-1.88.64-1.39.15-2.64.51-3.74,1.51-.94.85-2.13,1.52-3.36,1.76-1.85.37-3.85.1-5.46,1.41-.07.05-.18.05-.26.09-1.62.94-3.69.9-5.05,2.38-.1.11-.25.24-.38.24-1.31.06-2.57.73-3.84.61-.94-.09-1.72.11-2.44.5-.58.31-1.16.53-1.79.63-.64.1-1.23.35-1.84.55-.76.25-1.36.85-2.18.92-.83.08-1.53.4-2.08,1.03-.17.19-.38.29-.63.35-2.24.57-4.24,1.71-6.32,2.65-.65.29-1.32.71-2.13.45-.27-.09-.58.02-.76.23-.38.42-.73.17-1.06,0-.33-.17-.45-.51-.31-.87.34-.92-.01-1.83-.16-2.7-.11-.66-.09-1.55-.76-2-1.02-.69-1.26-1.22-.43-2.41.6-.86,1.04-1.01,1.88-.8,1.5.39,2.95.43,4.31-.51.79-.55,1.76-.7,2.65-.48,1.7.43,3.24-.06,4.72-.69.72-.31,1.56-.56,2.01-1.35.64-1.12.9-1.16,2-.42.6.41,1.1.28,1.4-.39.12-.28.22-.56.44-.79,1.1-1.1,2.27-2.1,3.59-2.94.59-.37.88-.91.64-1.73-.31-1.09.08-1.64,1.16-2.03.23-.08.48-.13.69-.24.61-.31.84-1.07.39-1.52-.43-.43-.66-.92-.92-1.44-.2-.41-.53-.87-1.12-.81-.51.05-.75.4-.93.88-.26.74-2.14,1.62-3,1.38-.59-.16-.88.04-1.07.54-.21.58-.61.97-1.14,1.27-.3.17-.6.21-.83-.07-.2-.23-.32-.49-.16-.84.23-.52.61-.91,1-1.3.27-.28.52-.56.41-1.04-.33-1.4.29-2.11,1.78-2.14.61,0,1.23,0,1.84,0,.5,0,1-.25.87-.71-.28-1-.1-1.96-.14-2.92-.04-1.06-.45-2.34-1.77-2.9-.61-.26-.94-.85-.81-1.59.13-.72.59-.99,1.27-1.11.68-.11,1.25-.46,1.71-1,.4-.46.91-.74,1.55-.48.75.31,1.47.22,2.24,0,.85-.25,1.73-.37,2.39.56.33.47,1.24.29,1.57-.22.66-1.01,1.67-1.12,2.48-.26.27.28.44.58-.15.7-.41.09-.86.23-.64.76.21.52.67.49,1.17.34,1.47-.46,2.95-.85,4.4.11.18.12.48.07.72.07,1.3.01,2.6-.01,3.91.14,1.25.15,2.52.41,3.82.12,2.94-.66,5.89-1.27,8.86-1.75.96-.15,1.85-.17,2.79.14,1.08.36,2.22.49,3.28-.16.28-.17.59-.12.9-.14,1.95-.1,3.91.25,5.85-.33.49-.15,1.1-.12,1.64.07,1.11.39,2.27.19,3.34-.01,1.26-.24,2.46-.17,3.71-.17,1.06,0,2.17.22,3.23-.18,1.47-.55,2.96-.59,4.5-.21,1.26.31,2.62.62,3.88.24,2.12-.65,4.29-.23,6.42-.52.72-.1,1.27.47,1.96.38,1.45-.19,2.9-.38,4.18-1.21.48-.32,1.04-.45,1.53,0,.52.47,1.01.35,1.5.02.52-.34,1.05-.55,1.68-.66,1.33-.23,2.65-.16,3.98-.22,3.1-.14,6.17-.78,9.3-.67.31.01.63.04.92-.04,2.02-.57,4.11-.47,6.17-.68,1.35-.14,2.72-.07,4.07-.23,2.91-.35,5.83-.58,8.75-.67,2.09-.06,4.18-.19,6.28-.05"/>
  <path class="cls-1" d="m147.94,88.24c.09-.8-.07-1.61-.25-2.35-.23-.96.04-1.68.71-2.21,1.02-.79,1.22-1.93,1.54-3.03.13-.46-.05-.89-.3-1.3-.4-.65-.38-1.24.44-1.54,1.74-.64,2.27-2,2.29-3.69.01-.88.36-1.67.71-2.44.15-.34.18-.47-.2-.58-.33-.09-.59-.31-.83-.56-.42-.42-.86-.52-1.49-.39-1.08.23-2.11.09-2.91-.87-.7-.83-1.72-1.38-2.06-2.51-.12-.4-.47-.4-.83-.43-.49-.04-1.1-.09-1.28-.57-.34-.91-1.16-1.1-1.81-1.61-1.25-.98-2.57-1.84-3.88-2.72-.52-.35-.8-.88-.82-1.47-.08-1.85-1.23-2.66-2.86-2.9-1.64-.24-2.33-1.32-2.72-2.72-.43-1.54-.5-1.63-2.14-1.79-.42-.04-.78-.17-1-.56-.34-.63-.87-.78-1.54-.74-.83.04-1.66.01-2.49,0-.21,0-.45.03-.54-.24-.07-.22,0-.42.16-.59.34-.39.65-.81,1-1.19.47-.51.23-.97-.26-1.05-2.11-.35-2.92-1.66-2.96-3.65,0-.48-.33-.85-.51-1.27-.29-.7-.65-1.4-.6-2.19.09-1.43-.54-2.54-1.48-3.52-.19-.2-.4-.38-.58-.59-.85-.92-.74-.9.09-1.74,1.02-1.03,2.22-1.58,3.54-2.02.62-.21,1.01-.61.86-1.45-.25-1.41.15-2.15.99-2.46.43-.16.74-.09,1.08.22,1.13,1.04,2.07.95,3.06-.26.06-.07.12-.14.16-.22.43-1.08,1.32-1.44,2.39-1.5,1.36-.08,2.29-.5,2.77-2.01.35-1.11,1.67-1.41,2.79-1.66.74-.17,1.5-.27,2.25-.39.8-.13,1.53-.3,1.93-1.15.31-.66.99-.53,1.55-.48.57.05,1.15.16,1.7.34,1.56.51,2.63-.41,3.73-1.23.25-.19.24-.54.27-.85.12-1.14.73-1.77,1.7-1.78.88-.01,1.45.62,1.6,1.77.11.89.65,1.21,1.46.8.46-.23.94-.5,1.28-.86.47-.5.81-1.09.18-1.76-.44-.47-.35-.66.31-.91.74-.28,1.5-.45,2.23-.73.22-.08.47-.11.71-.13.3-.02.59.07.58.43,0,.37-.33.27-.56.3-.09,0-.19,0-.28,0-.45.06-1.02-.22-1.26.45-.1.28,0,.49.24.62.57.3,1.14.66,1.8.22.32-.22.42-.55.52-.92.3-1.06,1.11-1.4,2.09-.95,1.31.61,1.5.55,2.04-.76.33-.82.67-1.64.94-2.48.18-.56.5-.76,1.08-.78,1-.03,2.02.17,3.01-.19.44-.16.69-.4.47-.89-.19-.44-.08-.84.14-1.23.27-.47.42-.95.24-1.49-.15-.47.12-.76.43-1.02.34-.28.67-.04.91.16,1.86,1.48,3.98,1.54,6.22,1.33,1.04-.1,2.11-.04,3.17-.13.56-.05,1.06.3,1.48.65.41.34.84.61,1.34.78.21.07.46.12.45.38-.05,1.03.47.53.78.27.78-.64,1.25-.63,1.86.22.46.64.75,1.4,1.39,1.92.42.34.81.67,1.39.38.05-.03.12-.03.18-.02,1.41.29,2.77.02,4.13-.36.61-.17,1.03.19,1.37.69.68.98,1.12,1.02,1.97.18.44-.44.9-.8,1.52-.98.51-.15.87-.48,1.14-.98.51-.94,1.11-.92,1.64-.04.17.29.35.58.56.84,1.05,1.28,1.41,1.34,2.96.76.84-.32,1.55-.63,2.08-1.48.51-.8,1.58-.71,2.44-.6.58.08,1.15.15,1.73.13,1.06-.04,2.08-.01,2.95.74.21.18.53.27.78.17.96-.39,1.81.01,2.64.38.63.28,1.27.16,1.9.19.34.02.73-.04.91.3.4.74,1.05.83,1.79.82.66-.01,1.26.21,1.76.68.21.2.39.42.3.72-.19.61-.45,1.2.11,1.78.18.19-.06.44-.24.51-1.4.55-2.06,2.03-3.29,2.7-1.24.68-2.49,1.27-3.58,2.22-1.37,1.19-3.18,1.56-4.79,2.3-.79.37-1.68.23-2.51.45-2.06.56-4.22.58-6.3,1.07-.87.2-1.76-.09-2.61-.31-2.4-.61-4.84-.91-7.3-1.12-2.41-.21-4.81-.47-7.23-.36-.26.01-.5-.03-.55-.35.73-.07,1.46.02,2.2-.09,1.27-.18,2.55-.25,3.82.12,1.27.37,2.58.5,3.89.17,1.65-.41,3.28-.29,4.7.59,1.3.8,2.44.9,3.75.16.57-.32,1.23-.41,1.93-.29.6.11,1.35.29,1.77-.39.46-.74,1.12-.88,1.88-.85.32.01.61-.08.87-.26.7-.48,1.31-.95,2.32-.71,1.03.24,1.06-1.33,2.03-1.48.38-.06.73-.31,1.07-.51.44-.25.79-.63.87-1.13.09-.61.4-.95.93-1.25.81-.46.76-1.54-.03-2.03-1.03-.64-2.1-.65-3.11,0-.56.36-.94.36-1.46-.06-.84-.67-1.99-.59-2.83.05-.81.62-1.75.9-2.76.74-.96-.16-1.9-.32-2.88-.17-.64.1-1.19-.19-1.49-.72-.42-.73-1.14-1.1-1.71-1.64-.36-.35-.68-.24-.83.24-.16.52-.49.88-.92,1.22-1.8,1.44-3.99,1.66-6.14,2-.88.14-1.67.32-2.18,1.14-.33.53-.78.94-1.42,1.1-.33.08-.6.28-.85.52-.8.75-1.12.71-1.62-.28-.84-1.7-2.13-3.04-3.43-4.38-.49-.5-.93-.52-1.56-.28-1,.38-1.53,1.31-2.4,1.83-.35.21-.6.65-1.11.42-.53-.23-.6-.69-.68-1.2-.12-.75-.28-1.54-1.29-1.62-.39-.03-.51-.36-.51-.66,0-.93-.69-1.41-1.28-1.91-.3-.26-.73-.46-1.19-.23-.45.23-.52.65-.5,1.1.01.21.08.42.09.63.05,1.03.95,1.87.79,2.87-.21,1.3.05,2.44.5,3.64.41,1.11-.14,1.83-1.28,1.93-.29.02-.53.14-.78.25-.83.38-1.44.09-1.72-.81-.13-.41-.06-.99-.67-1.07-.63-.08-1.22.09-1.67.58-1.79,1.96-1.9,1.97-3.8.17-.04-.04-.09-.09-.13-.13-.51-.53-1.02-.49-1.49.04-.18.2-.31.45-.47.67-.9,1.21-1.86,2.29-3.61,1.97-.27-.05-.55-.01-.8.14-.99.63-2.05,1.09-3.18,1.41-.27.08-.46.26-.61.52-.33.55-.7,1.07-1.07,1.59-.69.96-2.03,1.37-3.15,1.02-.39-.12-.79-.43-1.22-.11-1.01.74-2.04.59-3.13.15-.47-.19-1.04-.15-1.51-.33-.98-.39-2,.28-2.97-.19-.8-.38-1.49-.14-2.06.51-.51.59-1.15.96-1.89,1.24-.58.22-1.35.26-1.66.89-.76,1.54-2.23,1.92-3.67,2.3-1.33.36-1.39.35-1.23,1.65.03.27.02.55.01.83-.02.83.33,1.33,1.21,1.42.58.06,1.14.23,1.58.66.56.56.49,1.01-.21,1.36-.56.28-1.18.31-1.7.11-1.92-.75-4.31-.68-5.35-3.01-.06-.13-.2-.24-.32-.32-.28-.19-.42-.73-.86-.53-.43.19-.68.61-.78,1.08-.09.44-.02.93.23,1.23.77.93,1.41,1.97,2.37,2.77.97.8,1.99,1.57,2.27,2.99.19.95.8,1.74,1.9,2.04.83.23,1.5.8,1.85,1.66.11.28.25.59.48.77,1.23,1,2.3,2.11,3.29,3.38.85,1.07,2.29,1.66,3.43,2.52,1.46,1.09,2.47,2.12,1.89,3.82-.2.59,0,1.1.53,1.43.55.33,1.21.8,1.77.26.94-.89,1.78-.42,2.42.18.94.88,1.85.88,2.95.5.67-.23,1.23-.07,1.3.79.02.27.12.48.39.55.99.27,1.78.95,2.73,1.29.68.24,1.47.6,2.11.27.56-.3,1.06-.61,1.72-.72.5-.08.65-.62.75-1.07.12-.51-.35-.58-.66-.73-.66-.32-1.29-.71-2-.92-1.04-.3-1.19-.22-1.36.79-.1.59-.53.82-1.02.9-.45.07-.87-.17-1.08-.56-.26-.47.13-.79.4-1.12.21-.26.51-.29.82-.34.56-.09.7-.49.27-.82-1.04-.8-1.62-2.1-3.01-2.56-.96-.32-1.6-1.16-1.72-2.21-.13-1.12-.67-1.88-1.5-2.66-1.54-1.45-2.09-3.54-2.89-5.45-.14-.33-.14-.82.42-.96.69-.18,1.37-.27,2.08-.13,1.4.26,2.69.9,4.08,1.17,1.14.22,1.86,1.12,2.89,1.52,2.4.92,4.79,1.58,7.38.95.54-.13,1.16-.1,1.73.06.23.06.52.14.72.05,1.97-.91,4.02-.28,6.03-.36,1.28-.05,2.53.21,3.82.09,1.51-.14,3.06-.22,4.58.1.35.07.75.06,1.09-.02,1.94-.48,3.72-1.27,5.44-2.32,1.03-.63,1.54-1.75,2.58-2.29.52-.27,1.05-.64.88-1.24-.18-.61-.78-.91-1.46-.9-1.45.03-2.62-.63-3.74-1.42.08-.27.29-.29.43-.4.26-.18.72-.33.47-.73-.26-.41-.58-.13-.84.11-.32.3-.68.33-.98,0-.41-.45-.88-.88-1.14-1.41-.44-.88-1.05-1.08-1.96-.84-.8.21-1.76-.42-1.75-1.15.01-.65-.21-.89-.83-1.15-1.26-.52-1.32-1.01-.46-1.84.64-.62,1.25-1.25,2.07-1.6.46-.2.49-.56.49-.98,0-.32-.13-.47-.43-.61-.42-.19-.69-.05-.97.24-.23.24-.42.54-.81.55.11-.75.79-.93,1.29-1.3.56.17,1.21.18,1.55.78-.24.61-.27,1.29-.79,1.82-.35.36-.53.88-.79,1.34-.1.19-.23.55-.07.58.98.16,1.43,1.29,2.07,1.44.97.22,1.32.67,1.62,1.43.29.74.76.58,1.21.18.2-.18.36-.43.46-.68.15-.38.28-.83.77-.76.45.06.85.49.83.88-.06,1.18.7,1.94,1.21,2.84.26.44.55.83,1,1.03.8.36,1.6.77,2.54.39.55-.22.98.1,1.37.51.45.47,0,.78-.13,1.15-.21.54-.49,1.06-.66,1.61-.09.28-.22.71.2.88.34.14.66,0,.9-.28.21-.26.42-.52.63-.79.77-.97,1.54-.95,2.3.06.39.51.79,1.08,1.46,1.2,1.22.22,2.04,1.05,2.92,1.78.85.71,1.01,1.7.53,2.74-.53,1.14-.94,1.37-2.25,1.19-.3-.04-.6-.19-.87.04-.56.45-1.23.68-1.89.93-.68.26-1.05.81-1.17,1.44-.2,1.13-.28,2.26-.14,3.44.16,1.36.5,1.96,2.08,2.22,1.31.21,2.01-.05,2.74-.91.18-.21.3-.49.52-.63.57-.37,1.04-1.19,1.89-.56.29.21.55.41.91.22.37-.2.5-.55.43-.94-.18-1.04.27-1.85.95-2.56.37-.39.38-.73.11-1.14-.4-.6-.38-1.19,0-1.8.22-.34.34-.72.16-1.13-.1-.23-.45-.45-.15-.71.24-.2.59-.15.88-.02.25.12.43.32.43.65-.02,1.4,1.04,2.03,2.28,1.36.43-.23.87-.46,1.26-.75.56-.41,1.05-.25,1.51.11,1.23.94,1.45,2.99.46,4.19-.86,1.05-.94,2.05-.33,3.19.8,1.49,1.03,3.29,2.48,4.41.11.08.14.27.21.4.34.62.75.9,1.55.76,1.3-.23,2.6.16,3.91.24.52.03.76.62,1.3.62.95,0,1.91.06,2.85-.02,1.39-.11,2.32-1.08,2.01-2.05-.37-1.12-.97-2.1-2.02-2.74-.17-.1-.46-.13-.42-.41.04-.25.3-.27.5-.33.67-.18,1.24-.4.91-1.31-.11-.31-.03-.66.35-.86.34-.18.6-.19.92.06.31.24.67.46,1.08.48,1.09.07,2.12.57,3.25.39.37-.06.76.1.94.46.17.35-.09.65-.3.9-.31.36-.6.73-.53,1.22.25,1.98-.87,3.07-2.5,3.79-.67.29-1.03.8-1.37,1.4-.47.83-.71,1.83-1.64,2.33,0-.32.2-.57.32-.84.27-.62-.06-1.2-.62-.96-1.38.57-2.79.93-4.27,1.06-.27.03-.46.26-.25.62.72,1.21,3.14,1.59,4.19.64.18-.16.35-.35.62-.34-.43,1.27-1.3,1.77-2.57,1.47-.42-.1-.8-.25-1.18-.46-.82-.44-2.6-.44-2.82.04-.33.71-.7.51-1.08.16-.48-.44-1.06-.8-1.38-1.4.35-.04.66.1.99.15.58.09,1.21-.42.97-.75-.34-.47-.54-1.05-1.23-1.27-1.48-.46-2.94-.97-4.33-1.67-.56-.29-.85-.7-1.03-1.31-.36-1.25-.56-2.55-.81-3.82-.23-1.15-.73-2.26-.65-3.49.05-.89.14-1.75.36-2.61.09-.35,0-.67-.3-.9-.14-.1-.33-.16-.41-.02-.42.75-1.41,1.16-1.57,1.93-.2.94-.59,1.8-.92,2.66-.62,1.6-1.34,3.18-2.66,4.38-1,.91-1.11,2.27-1.64,3.42-.09.2-.02.49.02.72.25,1.38.15,1.61-1.08,2.24-.63.33-1.13.75-1.16,1.52-.02.58,0,1.15-.17,1.72-.06.21-.12.51.14.67.25.15.46-.06.68-.16.49-.23.81-.75,1.38-.85-.05.14-.09.29-.17.41-1.39,2.1-3.46,3.64-4.79,5.8-.14.22-.37.39-.57.58-.49-.58-.97-.21-1.47,0-1.18.47-2.43.69-3.61,1.24-1.58.74-2.75,2.13-4.45,2.67-.63.2-1.22.56-1.81.88-.66.36-.52.65.06,1.02,1.06.67,2.16.78,3.34.45-.04.39-.37.42-.64.55-.73.34-1.45.04-2.16,0-3.03-.17-5.95.36-8.82,1.26-.46.14-.94.29-1.44.22.16-.62.74-.58,1.18-.7.53-.14.93-.44,1.32-.78.16-.14.33-.32.21-.56-.12-.24-.37-.37-.61-.32-1.16.22-2.37.22-3.45.82-2.56,1.44-4.85,3.2-6.56,5.6-1.11,1.55-2.32,3.03-3.28,4.7-.47.81-.76,1.56-.76,2.44,0,.74.38.92,1,.51.85-.58,1.39-1.41,1.54-2.41.33-2.19,1.97-3.31,3.53-4.52-.06.57-.45.92-.83,1.28-.3.29-.38.65-.2,1,.19.39.54.29.88.19.39-.12.84-.23,1.13.11.85.99,1.66.67,2.58.1.56-.34,1.24-.5,1.88-.71.56-.19,1.05-.43,1.48-.87.74-.74,1.2-.76,1.96-.02.52.5.99.46,1.45.05.53-.46,1.35-.92,1.36-1.56.01-1.52,1.14-2.4,1.64-3.6.42-1,.94-1.33,1.89-1.31.45,0,1.01-.12,1.26.34.27.49-.03.95-.39,1.31-.29.29-.24.52.05.76.48.38.99.41,1.55.18.52-.21,1.05-.35,1.09-1.06.03-.64.41-1.07.95-1.37.97-.54,1.83-1.21,2.63-1.97.62-.59,1.25-1.27,2.29-1.14,1.52.2,2.94-.54,4.45-.54.26,0,.43-.21.62-.37.83-.68,1.7-1.25,2.76-1.57,1.15-.34,1.71-1.29,1.73-2.43.02-.81.4-1.04,1.08-.97.87.09,1.47-.29,2.13-.83.74-.61,1.31-1.46,2.3-1.77,1.19-.38,1.29-.62.89-1.79-.24-.69-.01-.99.72-.94.18.01.36.11.53.11.51,0,1.29.41,1.07-.71-.05-.23.14-.31.35-.32.38-.03.65.07.94.4,1.18,1.36,2.53,1.36,3.61.04.19-.24.37-.35.57-.06.15.22.42.39.35.71-.08.34-.37.33-.65.38-.89.17-1.33,1.04-.79,1.68.46.55,1.02,1.03,1.59,1.47.6.45,1.22.5,1.78-.16.25-.3.59-.53.92-.74.56-.35,1.2-.5,1.59.16.34.59.56.46.93.08.32-.33.69-.62,1.22-.34.62.33,1.29.63,1.37,1.45.12,1.21.44,1.48,1.74,1.4.16-.01.32-.05.4.11.1.19,0,.36-.14.49-.16.14-.39.22-.51.38-.18.25-1.07.52-.04.86.19.06.14.25.03.38-.31.38-.18.82-.2,1.24-.01.34-.06.63-.29.93-.82,1.06-2.38.99-3.15,2.12-.06.08-.29.05-.44.07-.41.05-.86.2-1.07.49-.75,1.06-1.88,1.73-2.7,2.7-.79.93-1.94,1.46-2.61,2.51-.09.14-.39.13-.58.21-.55.21-1.12.4-1.28,1.06-.3,1.27-1.39,1.68-2.41,2-1.33.42-2.57.97-3.61,1.9-.61.54-1.28.92-2.07,1.11-.35.08-.74.18-1.02.39-.88.63-1.8,1.01-2.89.68-1.25-.37-2.56-.05-3.83-.3-.63-.13-.83-.42-.79-.99.07-.42.3-.68.75-.72-.17.89-.03,1.08.89,1.1.64.01,1.32-.11,1.93.04,2.48.6,4.28-.79,6.08-2.06.79-.55,1.54-1.08,2.49-1.29.79-.17,1.37-.53,1.33-1.46-.03-.58.3-.93.81-1.09,1.12-.36,2.1-.91,2.91-1.79,1-1.08,2.06-2.09,3.41-2.74.31-.15.64-.34.82-.7.56-1.1.72-2.38,1.64-3.3.24-.24.07-.51-.05-.76-.29-.59-.4-1.22-.31-1.87.09-.74-.42-1.43-1.17-1.32-.87.13-1.73.05-2.6.24-1.48.33-2.76,1.09-4.17,1.55.07-.37.26-.71.18-1.1.18-.18.37-.37.55-.55.44.01.66-.31.86-.61.29-.44.65-.79,1.09-1.1.58-.4.64-1.07.2-1.58-.49-.58-.93-.32-1.42.02-1.3.91-2.47,2.13-4.29,1.81-.35-.06-.68.11-.92.36-.86.91-1.91,1.6-2.82,2.43-1.15,1.06-1.82,2.41-2.49,3.8-.88,1.83-1.93,3.54-4.22,3.93-.49.08-1.12.29-1.34.74-.83,1.73-2.52,2.2-4.04,2.91-.49.23-.96.53-1.16,1-.57,1.29-1.68,2.15-2.72,2.91-1.57,1.15-3.35,2.09-5.4,2.11-.46,0-.86.12-1.18.41-.4.37-.85.59-1.39.59-2.16,0-4.22.76-6.37.8-.93.02-1.9-.39-2.8-.27-1.6.2-3.2-.38-4.77.13-.19.06-.45.06-.64-.02-1.61-.71-2.92-.08-4.11.94-.66.56-.95.39-1.28-.32-.34-.73-.91-1.08-1.75-1.43-1.35-.57-3-.42-4.09-1.6-.06-.06-.15-.14-.23-.14-1.35-.07-1.93-1.02-2.53-2.05-.39-.68-.44-1.12.29-1.48.52-.26.85-.65,1.14-1.15.43-.72.98-1.31,1.91-1.43.42-.05.82-.24,1.22-.39.33-.12.69-.22.96.03.42.39.79.64,1.44.46.44-.12.63.37.52.75-.17.58-.11,1.15-.11,1.73,0,.89.32,1.19,1.2.93,1.34-.39,2.54-1.03,3.41-2.18,1.21-1.6,2.47-3.16,3.21-5.06.14-.37.51-.58.92-.69.84-.23,1.61-.61,2.11-1.37.27-.4.73-.48,1.13-.55,1.35-.23,2.71-.57,4.07-.55,2.06.04,3.93-.61,5.85-1.14.26-.07.49-.14.57-.4.21-.71.45-1.36,1.13-1.8.36-.24.02-.61-.09-.91-.18-.51-.09-.78.54-.64.79.17,1.47.03,2.12-.54.54-.47,1.28-.56,2-.5,1.01.09,1.95-.05,2.74-.77.19-.17.48-.27.74-.33.61-.13,1.16-.38,1.7-.67,1.9-1.02,2.13-2.59.61-4.13-.49-.5-1.12-.88-.25-1.64.45-.4.12-1.2-.48-1.26-.63-.06-1.3-.19-1.9.14-1.65.88-3.43,1.47-5.17,2.1-1.37.5-2.63,1.09-3.68,2.15-.62.62-1.67.79-1.96,1.81-.08.29-.28.54-.28.86,0,.42-.21.75-.63.77-.38.03-.56-.3-.67-.64-.33-.97-1-1.37-2.03-1.36-.77.01-1.03.38-1.08,1.06-.17,2.12-.17,2.1-2.26,1.92-1.01-.09-1.99-.03-2.91.58-.77.51-1.64.46-2.42-.07-.66-.45-1.31-.91-2.11-1.08-.29-.06-.51-.27-.64-.5-.44-.81-1.03-.64-1.72-.38-1.33.49-2.15,1.56-3.05,2.54.48-1.64,1.61-2.74,2.96-3.68.82-.57,1.62-1.18,2.44-1.75.27-.18.42-.44.59-.69.11-.16.12-.36.01-.52-.13-.19-.32-.11-.5-.05-1.58.47-3.38.5-4.39,2.14-.09.14-.3.2-.45.31-1.17.87-1.77,2.34-3.15,2.99-.09.04-.13.2-.18.31-.75,1.8-1.76,3.41-3.24,4.71-.93.82-1.73,1.73-2.05,2.97-.04.17-.17.32-.29.45-1.18,1.29-2.31,2.6-2.67,4.39-.05.26-.17.54-.52.56Zm29.76-53.49c-.07-.24-.28-.18-.45-.18-.16,0-.34.03-.32.22.02.2.19.3.39.29.19-.01.34-.1.37-.33Z"/>
  <path class="cls-1" d="m195.62,93.93c-.48.13-.9.4-.84.91.05.45.54.54.95.55,2.23.1,4.39.49,6.5,1.28.98.37,2.07.48,3.14.2.67-.17,1-.53.57-1.17-.28-.43-.05-.64.19-.95.88-1.14,2.27-1.52,3.38-2.31,1.21-.86,2.61-1.36,3.83-2.18,1.22-.82,2.44-1.63,3.39-2.77.26-.31.62-.39.96-.5,1-.33,1.89-.86,2.7-1.51.18-.15.36-.35.45-.56.58-1.39,1.43-2.47,2.88-3.1.73-.32,1.16-1.04,1.38-1.84.44-1.61,1.21-3.01,2.52-4.09,1.06-.87,2.12-1.74,3.17-2.62.22-.19.45-.3.74-.29,1.4.06,2.39-.56,3.05-1.78.14-.26.4-.46.62-.67,1.72-1.57,1.81-3.84.21-5.54-.73-.78-1.43-1.63-2.71-1.43-.28.04-.6-.1-.88-.21-.35-.13-.86-.12-.82-.69.04-.55.51-.61.93-.71,2.43-.59,4.26.38,5.38,2.44.66,1.22.45,2.76.79,4.14.18.73-.45,1.55-1.04,2.15-.91.93-1.4,2.11-2.04,3.2-.72.15-.6,1.11-1.27,1.3-1.27.36-2.22,1.05-2.58,2.39-.12.12-.25.24-.37.37-.76.22-1.15.81-1.22,1.51-.06.58-.21,1.1-.41,1.63-.07.12-.14.24-.21.36-.24.01-.36.13-.35.38-.07.12-.14.24-.21.36-1.22.94-2.25,2.07-3.09,3.35-.11.17-.03.43.16.58.16.13.34.12.51.02.85-.5,1.77-.8,2.76-.91.24-.03.5-.11.68-.25,1.19-.94,2.66-.99,4.05-1.3,1.11-.24,2.11-.7,3.15-1.2,1.65-.8,3.28-1.85,5.24-1.95,1.53-.07,2.96-.59,4.42-1.02,1.93-.56,3.92-1.2,6.02-.68.4.1.9.15,1.27.01,1.72-.64,3.56-.82,5.29-1.42,1.16-.41,1.99-1.19,2.52-2.27.39-.78,1.11-1.38,1.14-2.36.04-1.55-.11-2.92-1.42-4.09-1.17-1.05-2.26-1.34-3.84-1.33-2.88.02-5.68.45-8.52.74-1.12.12-2.3-.16-3.41.3-1.37.56-2.78.9-4.25,1.02-.33.03-.68.11-1,.05-.41-.07-.76-.37-.77-.79,0-.45.46-.63.79-.6,1.33.12,2.36-.51,3.37-1.22.64-.45,1.32-.67,2.13-.71.71-.04,1.44-.22,2.11-.57,1.63-.85,3.47-.56,5.2-.87,1.87-.33,3.73,0,5.54.25,1.91.26,3.87,1.09,4.8,2.82.61,1.14,1.41,2.43,1.26,3.92-.05.45.01.92.52,1.05.48.12.7-.32.91-.64,1.03-1.59,1.08-3.33.74-5.11-.04-.19-.23-.35-.33-.53-.31-.55-.74-1.06-.73-1.75,1.87.88,2.11,3.61,1.71,5.35-.39,1.71-1.2,3.13-3.05,3.69-.71.22-1.14.83-1.49,1.44-1.29,2.27-3.29,3.31-5.85,3.52-.99.08-1.95.49-2.94.68-1.79.35-3.6.61-5.3,1.32-.45.19-.92.31-1.33.6-2.18,1.53-4.72,2.03-7.27,2.52-1.76.34-3.59.56-5.24,1.22-.88.35-1.82.61-2.67,1.04-.56.28-1.21.1-1.81.12-.8.03-1.52.14-2.27.54-.69.37-1.58.4-2.39.54-.33.06-.6.19-.77.45-.94,1.43-2.36,1.38-3.77,1.15-.57-.09-1.08-.06-1.49.22-1.06.73-2.28,1.2-3.21,2.1-.4.39-.95.4-1.41.64-1.27.67-2.58,1.26-3.78,2.03-.73.47-1.24,1.24-1.91,1.82-1.78,1.55-3.91,2.08-6.2,1.8-1.91-.23-3.71-1-5.63-1.24-1.57-.19-3.15-.31-4.68-.75-.51-.15-.79.23-1.1.51-.85.78-1.56,1.68-2.62,2.26-1.6.88-3.22,1.15-5.02.91-1.92-.25-3.87-.2-5.78-.04-1.55.13-3.11.22-4.66.26-4.02.12-8.04.04-12.06.05-.95,0-1.87-.14-2.81-.33-1.78-.35-3.45-1.1-5.3-1.24-1.59-.12-2.68-1.32-3.7-2.37-.8-.83-1.64-1.45-2.7-1.91-1.4-.6-2.71-1.38-4.06-2.08-1.98-1.04-4.18-1.3-6.31-1.83-.71-.17-1.45-.33-2.09-.65-1.76-.89-3.73-1.1-5.57-1.72-.64-.22-.92-.84-1.59-1.04-1.4-.42-2.79-.87-4.13-1.51-2.04-.97-3.91-2.25-6-3.14-.94-.4-1.47-1.54-2.4-2.11-2.49-1.54-4.49-3.65-6.6-5.62-.9-.84-2.13-1.29-3.01-2.21-.29-.3-.75-.19-1.15-.21-2.07-.1-3.92-.93-5.84-1.61-1.54-.54-2.99-1.31-4.65-1.59-2.25-.38-4.44-1.09-6.68-1.55-2.75-.56-5.53-.94-8.27-1.51-2.66-.55-5.29-1.21-7.99-1.51-2.88-.32-5.7-.97-8.59-1.25-2.97-.29-5.92-.79-8.89-1.03-1.79-.15-3.6-.2-5.39-.42-.21-.03-.44.02-.57-.2.81-.4,1.71-.27,2.51-.14,1.64.26,3.29.08,4.94.29,2.84.36,5.7.55,8.51,1.08.81.15,1.64.08,2.46.2,1.81.26,3.59.65,5.39.96,1.08.19,2.19.22,3.25.47,2.52.6,5.04,1.06,7.65,1.23,2.21.15,4.39.66,6.57,1.12.59.12,1.1-.02,1.61-.12.5-.1.96-.13,1.43.04.97.36,1.92.7,3.01.4.62-.17,1.1.35,1.53.71.39.32.7.43,1.14.15.53-.34,1.04-.5,1.56.07.23.25.62.24.82-.03.53-.71,1.13-.5,1.8-.28.71.24,1.33.62,1.94,1.03.27.19.52.37.92.21,1.13-.43,2.2-.06,2.8,1.04.38.71.87,1.14,1.64,1.32.82.19,1.31.74,1.52,1.54.35,1.31,1.02,2.29,2.38,2.81.86.33,1.49,1.1,2.03,1.83,1.06,1.41,2.33,2.68,3.77,3.58,1.05.66,2.06,1.55,3.37,1.87.83.2,1.48.98,2.36,1.18,1.15.25,2.05.97,3.06,1.49.87.45,2,.55,2.99.93,1.42.53,2.9.91,4.31,1.47.66.26.8.98,1.48,1.16,1.68.45,3.34.95,5.01,1.44,1.67.49,3.28,1.07,4.69,2.17.69.53,1.47,1.01,2.35,1.18,1.3.25,2.37.96,3.49,1.58.82.45,1.76.67,2.45,1.36.25.25.65.19.98.15,1.14-.15,2.11.57,3.21.63.23.01.37.28.49.51.54,1.06,1.79,1.54,2.84.91,1.28-.76,2.58-.71,3.97-.55,3.1.35,6.2.51,9.32.22.98-.09,1.82-.39,2.69-.78.72-.32,1.54-.32,2.33-.38,1.97-.14,3.96-.17,5.72-1.27.5-.31,1.11-.3,1.67-.44,1.29-.33,2.44-1,3.45-1.85.62-.53,1.27-.94,2.02-1.23,1.2-.47,2.38-.95,3-2.23.16-.34.49-.67.89-.76,1.94-.45,2.86-2.09,4.07-3.39.37-.4.66-.88,1.02-1.29.41-.48.63-.97.37-1.59-.11-.26-.07-.54.01-.81.64-1.98,1.53-3.73,3.8-4.29.65-.16,1.05-.71,1.45-1.22.53-.68,1.06-1.35,1.96-1.56.47-.11.71-.57,1.11-.8.31-.19.67-.4,1.01-.08.31.29.15.62,0,.93-.17.36-.41.69-.4,1.11-.18.18-.37.37-.55.55-.74.65-1.48,1.3-2.21,1.97-.24.22-.54.41-.54.8-.06.06-.12.12-.19.18-.76.43-1.55.83-2.28,1.3-.46.3-.74.79-.1,1.14.72.4.4.78.16,1.26-.39.76-.74,1.55-1.1,2.33l-.02.02c-.31.04-.33.28-.35.52-.81.65-1.42,1.51-2.26,2.14-1.93,1.44-3.62,3.14-5.26,4.9-.44.04-.67.3-.75.72Z"/>
  <path class="cls-1" d="m468.03,112.57c-.51-.19-1-.25-1.52-.25-2.21,0-4.42.08-6.63-.03-2.86-.14-5.71-.44-8.57-.66-.48-.04-.97-.03-1.44-.01-1.69.05-3.38-.08-5.03-.27-2.81-.33-5.63-.43-8.44-.79-2.36-.3-4.73-.58-7.13-.46-1.75.08-3.48.06-5.11-.81-1.05-.56-2.32-.49-3.45-.81-1.63-.46-3.32-.62-4.96-1.08-1.39-.39-2.85-.47-4.26-.93-2.56-.84-5.22-1.3-7.89-1.73-1.37-.22-2.7-.73-4.08-.96-2.46-.41-4.93-.82-7.39-1.19-1.42-.22-2.79-.65-4.17-1-2.38-.6-4.65-1.55-7.06-2.07-1.09-.23-1.88-1.11-2.94-1.47-1.19-.4-2.37-.74-3.64-.83-2.06-.13-4.12-.35-6.17-.58-2.64-.29-5.11-.12-7.38,1.58-1.38,1.02-2.72,2.2-4.33,2.86-1.06.44-2.18.75-3.24,1.23-2.73,1.23-5.61,2.02-8.42,3.03-.28.1-.6.16-.9.15-2.37-.08-4.68.29-7.01.68-1.53.25-3.14.12-4.64.47-1.78.42-3.68.63-5.22,1.8-.21.16-.49.24-.75.32-3.42,1.01-6.8,2.14-10.19,3.25-2.59.85-5.27.89-7.78-.25-1.41-.64-1.92-2.06-1.98-3.63-.08-1.92.53-3.53,1.94-4.83.89-.82,1.56-1.9,2.78-2.33.2-.07.41-.36.63-.02-.96.69-1.96,1.34-2.75,2.24-.62.7-.96,1.44-.77,2.4.19.98-.22,1.93-.17,2.91.07,1.26.97,2.73,1.88,2.99.34.09.64.09.97-.08,1.09-.57,2.15-.63,3.28.03.55.33,1.25.2,1.88,0,2.16-.64,4.38-1.11,6.44-1.99,1.38-.59,2.79-1.17,4.16-1.81.19-.09.37-.22.58-.28,2.15-.63,4.09-1.79,6.33-2.22,1.31-.25,2.61-.12,3.91-.35.74-.13,1.38-.34,2.06-.65,2.34-1.1,4.6-2.39,7.18-2.91.77-.15,1.51.04,2.25.14,1.52.21,2.98.05,4.35-.68.19-.1.39-.17.59-.25,1.12-.43,2.34-.67,3.03-1.86.21-.36.69-.59,1.16-.69,1.84-.37,3.27-1.45,4.76-2.53,1.13-.82,2.62-1,4.04-.84.86.1,1.73.26,2.53-.07,1.49-.62,2.87-.12,4.26.3.53.16,1.06.3,1.62.24,1.44-.17,2.73.6,4.15.63,1.81.04,3.56.68,5.38.67,1.15,0,1.44.32,1.49,1.46.04.72.43,1.17,1.03,1.51,1.36.78,2.9.9,4.39,1.21.5.11,1.04.12,1.52.29,1.06.37,2.14.6,3.24.45,1.33-.18,2.59.18,3.73.65,1.21.49,2.46.57,3.65.59,2.02.04,3.89.71,5.83,1.05,2.18.39,4.42.55,6.54,1.23,1.81.58,3.73.64,5.51,1.32.66.25,1.35.38,2.07.33.88-.06,1.71.05,2.44.6.21.16.47.16.71.13,1.86-.19,3.63.41,5.44.61,1.87.2,3.74.5,5.62.68,2.94.27,5.91.32,8.83.74,3.39.48,6.81.49,10.19,1.06"/>
  <path class="cls-1" d="m183.82,25.58c3.77.51,7.61.21,11.36,1.15,1.88.47,3.85.8,5.78.78,2.95-.03,6.04.46,8.82-.87,1.94-.93,4.11-1.37,5.87-2.69.17-.12.38-.2.59-.24,2.34-.45,4.03-2.02,5.73-3.47,1.25-1.06,1.71-2.67,1.53-4.37-.04-.33-.06-.67-.05-1.01.03-.93-.47-1.63-1.25-1.84-1.63-.43-3.17-1.21-4.91-1.29-.98-.05-1.87-.54-2.78-.88-1.51-.56-3.13-.36-4.69-.71-1.9-.42-3.85-.6-5.78-.87-.42-.06-.85-.07-1.28-.07-2.69,0-5.34-.49-8.01-.67-2.01-.14-3.98-.72-6-.6-2.52.15-4.81-.73-7.15-1.42-1.37-.4-2.75-.81-4.2-.81-.94,0-1.85.04-2.74-.48-.62-.36-1.39-.51-2.21-.3-.62.15-1.33.14-2-.09-.29-.1-.64-.15-.9.03-1.42,1.01-2.98.75-4.49.44-1.18-.24-2.27-.52-3.46.12-.8.44-1.81.33-2.67-.04-1.59-.69-3.2-.18-4.79-.17-.5,0-1.07.22-1.54.08-1.36-.41-2.56.23-3.7.65-1.49.54-3,1.16-4.52,1.42-1.51.26-2.96.62-4.43.98-2.04.51-4.21.56-6.23,1.3-.22.08-.49.12-.72.08-1.95-.39-3.49.35-4.88,1.65-.75.7-1.86.99-2.4,1.93-.37.64-.72,1.27-1.27,1.78-.44.41-.87.76-1.52.73-.46-.02-.83.24-1.1.59-.85,1.07-2.04,1.7-3.08,2.53-1.3,1.05-2.75,1.93-3.97,3.06-.83.77-1.76,1.06-2.81,1.15-.82.07-1.32-.52-1.21-1.32.12-.88-.14-1.19-.94-.95-.71.21-1.18-.13-1.68-.48-.89-.61-1.77-1.11-2.87-.44-.29.18-.59-.05-.79-.3-.24-.3-.25-.64.01-.92.29-.31.74-.56.41-1.06-.31-.48-.86-.65-1.38-.54-1.06.24-2.19.3-3.1,1.03-.22.17-.5.19-.79.21-.91.09-1.79-.26-2.72-.04-.49.11-.98-.29-1.18-.74-.22-.48.23-.73.58-.99.32-.23.61-.54.48-1-.13-.43-.48-.62-.88-.71-.45-.1-1.01.03-1.23-.57,1.14.16,2.41.05,3.38.65,1.25.78,2.62.95,3.98,1.25.33.07.67.1,1,.1,3.13,0,6.26.09,9.39-.03,2.37-.09,4.77-.24,6.93-1.44,2.21-1.24,4.34-2.62,6.39-4.1.94-.68,2.02-1.01,3.03-1.5,1.59-.76,3.14-1.63,4.86-2.08,1.56-.4,3.12-.78,4.68-1.14,1.78-.41,3.61-.54,5.38-1.02,1.57-.43,3.2-.38,4.79-.65,1.92-.32,3.86-.53,5.8-.68.24-.02.49-.03.73-.05,4.63-.24,9.27-.51,13.9-.71,1.34-.06,2.65.37,3.97.59,3.53.59,6.91,1.77,10.39,2.55,1.02.23,2.06.21,3.07.46,3.83.96,7.72,1.3,11.65,1.54,2.46.15,4.9.66,7.36.82,2.1.14,4.16.65,6.28.65,1.65,0,3.23.58,4.86.83,1.69.26,3.32.75,4.98,1.17,1.98.5,3.1,1.86,3.73,3.67.82,2.35.07,4.33-1.16,6.44-1.77,3.01-4.49,4.41-7.58,5.23-1.98.52-3.9,1.21-5.88,1.72-.72.18-1.44.22-2.18.25-2.94.13-5.91,0-8.74-.66-2.23-.52-4.49-.75-6.72-1.21-2.02-.41-4.09-.69-6.17-.71-.86-.01-1.7-.18-2.53-.36-.23-.05-.42-.1-.47-.36Z"/>
  <path class="cls-1" d="m286.98,68.75c.51-.88,1.48-.89,2.24-.85,1.16.06,2.33.33,3.48.65,1.86.52,3.8.84,5.72,1.1,1.74.24,3.42.54,4.94,1.47.57.35.83.98,1.32,1.38.81.65,1.74,1.13,2.69,1.54,2.21.96,4.43,1.89,6.5,3.11,1.13.67,2.3,1.38,2.92,2.66.11.22.38.39.61.53,2.05,1.25,4.07,2.56,6.18,3.72.92.5,1.7.97,2.77.88.61-.05.84.57,1.01.94.34.73.74,1.41,1.26,2,1.16,1.32.89,3.04,1.36,4.55.25.82-1.19,2.3-1.94,2.22,1-1.21.73-2.57.18-3.78-.45-.99-1.53-1.21-2.6-1.18-1.1.03-2.21,0-3.31.01-.28,0-.59.08-.82-.02-2.12-.9-3.88.27-5.75.93-1.31.46-2.67.78-4.02,1.12-.36.09-.56.3-.79.56-1.17,1.29-2.27,2.65-3.81,3.54-.13.07-.28.09-.42.14.03-.12.02-.28.1-.34,1.47-1.12,2.56-2.59,3.77-3.95.46-.52,1.09-.95,1.8-1.02,1.72-.18,3.18-1.19,4.87-1.45.33-.05.68-.31.28-.71-.56-.56-1.11-1.14-1.99-1.16-.67-.21-1.34-.41-1.88-.89q-1.6-1.45-3.48-.49c-1.28.64-2.56,1.28-3.84,1.91-1.76,1.04-3.44,2.19-4.39,4.09-.14.28-.31.52-.53.73-.82.78-1.7,1.52-1.56,2.83.02.15-.18.31-.24.48-.73,1.93-2.2,3.42-3.13,5.24-.22.44-.45.83-.09,1.25.42.48.84.92,1.62.8.88-.14,1.62-.64,2.47-.81-1.32,1.43-3.43,1.69-4.71.44-.53-.52-.65-1.29-.14-1.92,1.57-1.92,2.65-4.08,3.47-6.4.34-.96,1.06-1.64,1.78-2.28,1.12-1,1.69-2.38,2.57-3.54.65-.86.25-1.43-.83-1.43-1.16,0-2.05.61-2.6,1.5-1.42,2.31-3.64,3.89-5.28,6-.07.09-.19.2-.28.2-1.74-.03-2.09,1.35-2.55,2.56-.47,1.24-1.06,2.39-1.91,3.41-.12.15-.22.29-.44.28,0-.28.05-.54.14-.8.55-1.49,1.41-2.83,1.93-4.34.34-.98,1.18-1.62,2.14-2.01.44-.18.76-.44,1.03-.85.83-1.24,1.71-2.44,3.06-3.19.28-.16.47-.39.61-.67.98-1.98,2.73-2.99,4.78-3.32,2.67-.42,4.81-2.04,7.29-2.86.49-.16.63-.57.05-.91-.5-1.11-1.08-2.02-2.47-2.29-.74-.14-1.36-.32-2.09.02-.42.2-.94.2-1.42.29-1.58.29-3.15.11-4.72,0-.21-.02-.42-.05-.57.15-.31,0-.61,0-.92.01-1.01-.37-1.95-.27-2.68.56-1.02,1.16-2.11,2.27-2.94,3.55-1.28,1.96-2.38,3.99-4.04,5.71-1.58,1.64-2.57,3.67-2.76,6.12-.13,1.66-.92,3.3-2.31,4.43-.49.39-.71.81-.5,1.33.3.72.77,1.25,1.7,1.32.95.07,1.79-.34,2.69-.39-.01.23-.15.4-.32.53-.99.81-3.45.9-4.53.18-1.29-.86-1.59-2.74-.68-4.09.24-.35.49-.71.8-.99,1.15-1.04,1.76-2.36,2.17-3.84.42-1.53,1.21-2.87,2.39-4.03.99-.97,1.81-2.14,2.5-3.37.87-1.55,1.8-3.03,3.07-4.29,1.04-1.03,1.86-2.25,2.9-3.29.65-.64.39-1.23-.53-1.4-.78-.14-1.51.08-2.17.51-1.85,1.19-3.75,2.27-5.75,3.21-1.15.54-2.36.59-3.55.81-1.01.19-1.75.71-2.42,1.5-1.06,1.25-2.16,2.49-3.63,3.3-.06-.37.24-.54.44-.76.43-.48.86-.96,1.3-1.41,1.58-1.6,2.77-3.63,5.49-3.84,1.25-.09,2.49-1.08,3.72-1.66.86-.41,1.85-.51,2.6-1.09,1.15-.89,2.45-1.11,3.85-1.21,2.35-.16,4.66.85,7,.19,1.51-.42,3.12.16,4.61-.51.36-.16.81-.02,1.21.23.54.33,1.15.56,1.75.78.27.1.66.18.86-.09.21-.29-.04-.6-.24-.81-.96-1.03-2.19-1.59-3.52-1.98h0c-.43-.83-1.31-.69-2.02-.93h0c-.31-.74-1-.99-1.66-1.27-.18-.24-.43-.34-.72-.39-.08-.42-.31-.68-.76-.71-.24-.13-.48-.26-.72-.39-.08-.42-.4-.5-.75-.52-.18-.01-.35-.02-.53-.03-.06-.37-.35-.36-.63-.36-1.43.04-2.84.04-4.2-.51-.26-.1-.6-.01-.9-.01-.12,0-.24,0-.36,0-.08-.17-.21-.2-.38-.17-.42,0-.84,0-1.26-.01-.38,0-.75,0-1.13,0-.12,0-.24,0-.37,0,0-.09,0-.18,0-.27.39-.27.83-.09,1.25-.14.22-.03.44-.07.53-.29.11-.28-.06-.47-.27-.62-.6-.43-1.31-.47-2-.5-1-.04-2.01-.07-3,.14Zm36.59,18.58c.64,0,1.07,0,1.5,0,.21,0,.47.05.54-.22.07-.3-.16-.4-.39-.52-1.41-.77-2.85-1.5-4.38-2.02-1.45-.5-2.53-1.78-4.17-1.9-.57-.04-1.21-.38-1.59.17-.38.54.23.87.56,1.19.47.47.87.93.82,1.66-.02.41.32.64.62.85.4.27.85.49,1.25.77.48.34.82.28,1.13-.24.34-.59.8-.8,1.44-.36.87.6,1.85.77,2.68.64Z"/>
  <path class="cls-1" d="m300.47,102.46c-.85.17-1.59.67-2.47.81-.79.13-1.21-.32-1.62-.8-.36-.41-.14-.81.09-1.25.93-1.82,2.4-3.31,3.13-5.24.06-.17.26-.33.24-.48-.14-1.32.74-2.05,1.56-2.83.22-.21.38-.45.53-.73.96-1.9,2.63-3.05,4.39-4.09.03.35-.25.54-.39.81-.55,1.03-.35,1.39.82,1.41.79.01,1.58-.02,2.37.16.4.09.87.12,1.26-.08,1.34-.69,2.82-.99,4.23-1.5.7-.25,1.04-.58.91-1.32.88.02,1.43.6,1.99,1.16.4.4.04.66-.28.71-1.69.25-3.15,1.27-4.87,1.45-.71.08-1.34.5-1.8,1.02-1.21,1.36-2.3,2.84-3.77,3.95-.08.06-.07.22-.1.34-.05.01-.11.02-.16.03-1.24.34-2.09,1.03-2.2,2.4-1.17,1.47-2.01,3.25-3.87,4.07Z"/>
  <path class="cls-1" d="m306.87,75.75c1.33.38,2.56.95,3.52,1.98.2.21.45.52.24.81-.2.27-.58.19-.86.09-.6-.22-1.21-.45-1.75-.78-.41-.25-.85-.39-1.21-.23-1.49.67-3.1.09-4.61.51-2.35.66-4.66-.35-7-.19-1.4.09-2.7.32-3.85,1.21-.75.58-1.74.68-2.6,1.09-1.24.59-2.47,1.57-3.72,1.66-2.72.21-3.91,2.24-5.49,3.84-.44.45-.87.93-1.3,1.41-.2.22-.5.39-.44.76,0,0-.01,0-.01,0-.43-.03-.9-.11-.91.55-.05.02-.1.03-.16.03-.37-.09-.72-.01-1.08.06-2.03.43-3.53-.25-4.54-1.78-.61-.92-.26-2.23.62-2.78.8-.5,1.58-1.04,2.32-1.62.85-.67,1.46-1.52,1.68-2.6,0,0,0,0,0,0,.57-.03.77-.38.75-.9.05-.02.09-.03.14-.04.29.05.42-.07.37-.36.06-.06.12-.12.19-.18.47-.39,1.18-.54,1.28-1.28,0,0,.02-.01.02-.01,1.1-.22,1.99-.88,2.93-1.41.58-.33,1.36-.47,1.5-1.31,0,0,.01,0,.01,0,.38.06.71,0,.98-.31.63-.71,1.43-1.18,2.24-1.64.25-.14.47-.28.47-.6.59-.24,1.07-.68,1.6-1.02.73-.47,1.47-.5,2.26-.52,0,.09,0,.18,0,.27-1.01.11-1.69.65-2.37,1.42-.48.55-.85,1.4-1.74,1.53-.71.11-1.2.53-1.66,1.04-.2.22-.41.43-.7.57-1.59.78-3.19,1.54-4.73,2.41-1.14.64-2.13,1.53-2.2,2.94-.05.94-.34,1.67-1.07,2.21-.7.52-1.27,1.2-2.22,1.38-.61.11-1.16.5-1.63.99-.8.84-.74.85-.06,1.81.61.86,1.21,1.12,2.13.58.18-.1.41-.12.61-.18,1.3-.36,2.46-.92,3.11-2.19.18-.35.37-.65.82-.57.77.14,1.25-.28,1.74-.78,1.21-1.25,2.51-2.32,4.26-2.86,1.18-.36,2.45-.88,2.86-2.35.1-.35.46-.43.83-.46,1.56-.09,2.99-.51,4.24-1.51.49-.39,1.13-.58,1.54.05.58.89,1.3.85,2.14.59,1.06-.33,2.11-.56,3.24-.25.44.12.98.13,1.44-.1.67-.33,1.35-.25,2.06-.12,1.1.21,2.1.9,3.35.31.89-.42.98-.25.42-1.15Z"/>
  <path class="cls-1" d="m265.26,64.33c-.34.07-.58-.09-.81-.32-.71-.7-1.63-1-2.57-1.1-.74-.08-1.42-.31-2.13-.48-1.7-.41-3.38-.97-5.18-.68-.52.08-.95-.23-1.34-.52-.49-.36-.96-.51-1.52-.17-.13.08-.3.16-.43.13-2.1-.48-4.35.35-6.38-.76-1.27-.69-2.72-.61-4.08-.86-.34-.06-.67-.1-.95-.28-.63-.4-1.29-.62-2.05-.69-1.84-.17-3.59-.82-5.41-1.17-2.45-.48-4.94-1-7.17-2.26-.65-.37-1.35-.68-1.99-1.02-2.34-1.25-4.93-1.72-7.37-2.66-.19-.07-.33-.13-.38-.34.93-.15,1.71.38,2.55.59,1.48.36,2.88.95,4.43,1.1,1.18.11,2.21.89,3.26,1.43,1.81.94,3.74,1.5,5.68,2.01,1.84.49,3.65,1.1,5.53,1.46,2.3.44,4.63.83,6.87,1.47,2.07.6,4.13.66,6.25.73,3.76.12,7.44.73,11,2.02,1.14.41,2.32.73,3.31,1.46.34.25.74.45.87.9Z"/>
  <path class="cls-1" d="m300.79,60.32c-.62.29-1.28.34-1.95.35-2.26.04-4.52-.15-6.76.35-.66.15-1.33-.09-2-.16-1.82-.2-3.57.34-5.34.6-.23.03-.46.19-.64.34-1.42,1.22-3.14,1.7-4.93,1.97-.73.11-1.42.33-2.13.54-1.18.35-1.53,1.67-.79,2.67.95,1.28,2.31,1.53,3.75,1.79,2.07.37,4.1.29,6.14-.18.18-.04.37,0,.47.19-1.99.82-4.07,1.41-6.19.83-1.48-.4-3.08-.61-4.23-1.94-1.37-1.59-.98-3.52,1.03-4.19,1.47-.49,2.97-.87,4.49-1.18.96-.2,1.8-.89,2.74-1.23,2.12-.77,4.28-1.01,6.57-.82,2.49.21,5.02.2,7.53-.04.74-.07,1.51-.25,2.24.13Z"/>
  <path class="cls-1" d="m212.59,50.36c-1.66-.39-3.31-.83-4.84-1.59-.52-.26-1.07-.25-1.59-.37-1.8-.41-3.15-1.6-4.58-2.58-1.91-1.31-3.98-2.23-6.01-3.27-1.27-.66-2.31-1.75-3.72-2.12-2.59-.68-4.57-2.37-6.7-3.82-.22-.15-.4-.29-.37-.58,1.34.54,2.47,1.42,3.69,2.15,1.73,1.03,3.63,1.75,5.4,2.67,2.39,1.24,4.88,2.27,7.09,3.88,1.52,1.1,3.18,2.18,4.95,2.71,2.21.67,4.07,2.08,6.32,2.57.2.04.33.15.36.36Z"/>
  <path class="cls-1" d="m67.27,11.77c-1.06.08-2.07-.26-3.09-.44-2.48-.42-4.93-1.06-7.41-1.55-.99-.2-1.84-.75-2.83-.96-3.13-.64-6.1-1.82-9.07-2.96-1.43-.55-2.98-.79-4.31-1.61,1.01-.18,1.86.38,2.75.66,2.7.87,5.42,1.68,8.15,2.42,2.23.6,4.45,1.27,6.67,1.9,1.37.39,2.9.24,4.17.92,1.58.84,3.43.7,4.96,1.61Z"/>
  <path class="cls-1" d="m399.36,71.41c-.16.39-.5.3-.79.29-3.68-.14-7.33.36-11,.43-2.17.05-4.34.04-6.51.12-2.08.08-4.16.3-6.24.17-2.57-.16-5.13.12-7.69.01-.32-.01-.68.13-.95-.18.29-.34.69-.18,1.03-.19,3.61-.07,7.22-.05,10.82-.22,4.64-.22,9.28-.27,13.92-.39,2.14-.05,4.27-.07,6.41-.12.33,0,.67.05,1,.07Z"/>
  <path class="cls-1" d="m427.32,69.89c-.2.37-.55.34-.88.34-3.73-.07-7.43.49-11.15.62-4.01.13-8,.84-12.05.72-.93-.03-1.86.05-2.78-.15.19-.37.53-.23.82-.24,3.6-.08,7.18-.42,10.76-.72,1.49-.12,2.99,0,4.48-.2,3.24-.42,6.52-.25,9.77-.55.34-.03.74-.17,1.03.18Z"/>
  <path class="cls-1" d="m364.34,72.26c-.09.51-.5.32-.81.36-1.95.26-3.9-.07-5.84.02-1.74.09-3.47-.02-5.2,0-2.03.01-3.99-.51-5.99-.65-.79-.06-1.57-.26-2.36-.26-2.57,0-5.1-.35-7.63-.76-.21-.03-.32-.14-.36-.35,2.07-.26,4.07.24,6.08.57,1.42.23,2.86.1,4.29.29,2.38.32,4.78.5,7.17.72.43.04.86.03,1.28.03,3.12.01,6.25.02,9.37.03Z"/>
  <path class="cls-1" d="m275.72,79.77c-.22,1.08-.84,1.93-1.68,2.6-.74.58-1.52,1.12-2.32,1.62-.88.55-1.23,1.86-.62,2.78,1,1.53,2.5,2.21,4.54,1.78.37-.08.71-.16,1.08-.06-.52.76-1.41.64-2.07.63-1.78,0-3.38-.56-4.4-2.22-.6-.98-.29-2.55.79-3.16,1.63-.92,3.08-2.04,4.21-3.55.12-.16.32-.28.48-.41Z"/>
  <path class="cls-1" d="m453.12,67.87c-.56.6-1.34.5-2.02.49-2.54-.03-5.07.28-7.59.46-2.16.15-4.32.28-6.47.48-.3.03-.61-.03-.92-.04.1-.36.41-.27.67-.34,1.79-.52,3.64-.36,5.46-.49,3.32-.24,6.62-.82,9.96-.6.3.02.61.03.92.05Z"/>
  <path class="cls-1" d="m334.13,70.22c-.23.3-.57.21-.85.19-1.48-.14-2.95-.31-4.42-.57-2.37-.41-4.56-1.53-6.98-1.67-.09,0-.18-.14-.27-.21,1.32-.37,2.54.12,3.72.56.94.35,1.89.52,2.86.56,1,.03,1.93.28,2.85.6.79.27,1.64.12,2.44.34.23.06.5-.04.67.2Z"/>
  <path class="cls-1" d="m184.42,35.82s-.07.02-.09.01c-1.14-.62-2.2-1.38-3.51-1.7-.47-.11-.41-.89-.65-1.34-.35-.65-.89-1.2-1.06-1.95.67.22.92.86,1.25,1.37.49.76,1.05,1.34,1.93,1.69.92.36,1.48,1.22,2.13,1.93Z"/>
  <path class="cls-1" d="m84.4,14.11c-.14.28-.4.24-.64.22-1.95-.18-3.9-.37-5.85-.56-.22-.02-.31-.16-.32-.37,2.27.22,4.58.06,6.81.7Z"/>
  <path class="cls-1" d="m318.32,98.06c-1.05.82-2.38,1-3.56,1.54-.72.33-1.46.62-2.18.95.03-.24.05-.45.35-.57,1.59-.63,3.17-1.3,4.76-1.93.18-.07.42,0,.63,0Z"/>
  <path class="cls-1" d="m282.91,74.25c-.14.84-.93.99-1.5,1.31-.94.53-1.83,1.19-2.93,1.41.02-.16.11-.28.25-.36,1.4-.79,2.79-1.58,4.18-2.36Z"/>
  <path class="cls-1" d="m93.61,14.29c-.12.23-.33.23-.55.23-1.42,0-2.84,0-4.26,0-.21,0-.43,0-.54-.23,1.78-.25,3.57-.25,5.35,0Z"/>
  <path class="cls-1" d="m286.62,71.7c0,.32-.22.45-.47.6-.81.46-1.62.93-2.24,1.64-.27.31-.6.38-.98.31,1.06-1.1,2.15-2.15,3.69-2.55Z"/>
  <path class="cls-1" d="m176.11,28.5c-.82-.67-.33-1.57-.3-2.33.02-.66.8-.83,1.38-.97.25-.06.54.02.81.03-.08.3-.31.31-.56.33-.9.09-1.31.61-1.31,1.49,0,.48,0,.96-.02,1.44Z"/>
  <path class="cls-1" d="m324.18,96.18c-1.35.85-2.86,1.21-4.41,1.44.24-.61.88-.4,1.31-.59.9-.39,1.93-.49,2.81-.98.12-.06.23,0,.29.13Z"/>
  <path class="cls-1" d="m179.61,25.22c.91-.42,2.93-.25,3.51.31-1.17-.08-2.36-.05-3.51-.31Z"/>
  <path class="cls-1" d="m304.34,98.39c.1-1.37.95-2.07,2.2-2.4-.73.8-1.46,1.6-2.2,2.4Z"/>
  <path class="cls-1" d="m76.67,13.36c-.92.48-2.09.25-2.56-.52.89-.01,1.72.29,2.56.52Z"/>
  <path class="cls-1" d="m39.49,4.02c-1.11-.27-2.21-.56-3.2-1.15,1.18.06,2.29.33,3.2,1.15Z"/>
  <path class="cls-1" d="m42.22,60.3c.77-.3,2.53-.08,2.95.36-1.01.09-1.99-.05-2.95-.36Z"/>
  <path class="cls-1" d="m87.9,14.29c-.82.41-2.34.33-2.76-.14.92.04,1.85-.16,2.76.14Z"/>
  <path class="cls-1" d="m303.38,60.11c-.68.06-1.37.11-2.05.17.68-.6,1.5-.67,2.05-.17Z"/>
  <path class="cls-1" d="m278.46,76.99c-.11.75-.81.9-1.28,1.28.13-.72.55-1.16,1.28-1.28Z"/>
  <path class="cls-1" d="m326.04,95.44c-.35.59-.98.53-1.52.68.4-.46.85-.81,1.52-.68Z"/>
  <path class="cls-1" d="m215.16,51.11c-.61.16-1.1-.02-1.5-.49.52.09,1.1.03,1.5.49Z"/>
  <path class="cls-1" d="m45.54,60.67c.47-.22.94-.48,1.3.17-.44-.01-.9.19-1.3-.17Z"/>
  <path class="cls-1" d="m276.48,78.86c.02.52-.18.87-.75.9.07-.45.39-.69.75-.9Z"/>
  <path class="cls-1" d="m431.4,69.37c-.24.47-.58.37-.94.17.26-.36.61-.22.94-.17Z"/>
  <path class="cls-1" d="m276.88,88.45c.02-.66.48-.58.91-.55-.2.36-.54.48-.91.55Z"/>
  <path class="cls-1" d="m433.77,69.31c-.3.28-.61.27-.92.02.3-.3.61-.29.92-.02Z"/>
  <path class="cls-1" d="m73.72,12.81c-.26.38-.32.13-.37-.12.14-.02.28-.01.37.12Z"/>
  <path class="cls-1" d="m276.99,78.46c.05.3-.07.41-.37.36.03-.21.15-.34.37-.36Z"/>
  <path class="cls-1" d="m68.38,11.96c-.21.25-.31.09-.4-.11.16-.07.3-.05.4.11Z"/>
  <path class="cls-1" d="m40.22,4.22c-.16.03-.3,0-.38-.15.26-.28.32-.07.38.15Z"/>
  <path class="cls-1" d="m305.24,60.47c-.15.02-.29,0-.38-.14.25-.29.32-.08.38.14Z"/>
  <path class="cls-1" d="m304.5,60.28c-.15.03-.29.01-.38-.13.24-.3.32-.09.38.13Z"/>
  <path class="cls-1" d="m175.57,30.71c.39-.01.58-.32.81-.55.28-.29.55-.43.97-.24.3.13.42.29.43.61,0,.42-.02.78-.49.98-.82.36-1.43.99-2.07,1.6-.86.83-.81,1.31.46,1.84.61.26.84.5.83,1.15-.01.74.95,1.37,1.75,1.15.91-.24,1.51-.05,1.96.84.27.53.73.97,1.14,1.41.3.32.65.29.98,0,.26-.24.58-.52.84-.11.25.4-.21.55-.47.73-.14.1-.35.12-.43.4,1.11.79,2.29,1.45,3.74,1.42.69-.01,1.29.29,1.46.9.17.59-.35.97-.88,1.24-1.05.54-1.56,1.66-2.58,2.29-1.72,1.05-3.5,1.84-5.44,2.32-.35.09-.74.1-1.09.02-1.52-.32-3.07-.24-4.58-.1-1.3.12-2.55-.13-3.82-.09-2.01.08-4.06-.55-6.03.36-.19.09-.49.02-.72-.05-.58-.16-1.19-.19-1.73-.06-2.6.62-4.98-.03-7.38-.95-1.04-.4-1.75-1.31-2.89-1.52-1.39-.26-2.68-.91-4.08-1.17-.72-.13-1.4-.04-2.08.13-.55.14-.55.63-.42.96.8,1.9,1.34,3.99,2.89,5.45.83.78,1.37,1.54,1.5,2.66.12,1.05.76,1.89,1.72,2.21,1.39.46,1.97,1.76,3.01,2.56.43.33.28.73-.27.82-.31.05-.6.08-.82.34-.27.33-.66.65-.4,1.12.21.39.63.64,1.08.56.49-.08.93-.31,1.02-.9.16-1.01.32-1.09,1.36-.79.72.21,1.34.6,2,.92.31.15.78.23.66.73-.11.44-.25.98-.75,1.07-.65.11-1.15.42-1.72.72-.64.34-1.43-.02-2.11-.27-.95-.34-1.74-1.02-2.73-1.29-.28-.08-.37-.28-.39-.55-.07-.85-.63-1.01-1.3-.79-1.1.38-2.01.37-2.95-.5-.64-.59-1.48-1.07-2.42-.18-.56.53-1.22.07-1.77-.26-.54-.33-.73-.84-.53-1.43.58-1.71-.43-2.73-1.89-3.82-1.14-.85-2.59-1.44-3.43-2.52-1-1.26-2.06-2.38-3.29-3.38-.22-.18-.36-.49-.48-.77-.35-.86-1.01-1.43-1.85-1.66-1.11-.31-1.71-1.09-1.9-2.04-.28-1.42-1.3-2.18-2.27-2.99-.96-.8-1.6-1.83-2.37-2.77-.25-.31-.32-.79-.23-1.23.1-.47.35-.89.78-1.08.44-.19.58.34.86.53.12.09.26.19.32.32,1.03,2.32,3.43,2.26,5.35,3.01.52.2,1.15.17,1.7-.11.69-.34.77-.8.21-1.36-.44-.43-1-.6-1.58-.66-.87-.1-1.22-.59-1.21-1.42,0-.28.02-.55-.01-.83-.16-1.31-.1-1.3,1.23-1.65,1.44-.38,2.91-.76,3.67-2.3.31-.63,1.08-.67,1.66-.89.74-.28,1.38-.65,1.89-1.24.57-.65,1.25-.89,2.06-.51.97.46,1.99-.2,2.97.19.47.19,1.04.14,1.51.33,1.08.43,2.11.59,3.13-.15.43-.32.83-.01,1.22.11,1.12.36,2.46-.06,3.15-1.02.37-.52.74-1.05,1.07-1.59.15-.26.35-.44.61-.52,1.13-.32,2.19-.78,3.18-1.41.25-.16.53-.2.8-.14,1.74.33,2.71-.75,3.61-1.97.16-.22.29-.47.47-.67.47-.53.98-.58,1.49-.04.04.04.09.09.13.13,1.9,1.8,2,1.8,3.8-.17.45-.49,1.03-.66,1.67-.58.61.08.54.66.67,1.07.28.9.89,1.19,1.72.81.25-.11.49-.23.78-.25,1.15-.1,1.7-.82,1.28-1.93-.45-1.2-.71-2.33-.5-3.64.16-1-.74-1.85-.79-2.87,0-.21-.08-.42-.09-.63-.02-.45.05-.86.5-1.1.45-.23.89-.03,1.19.23.59.51,1.28.98,1.28,1.91,0,.3.12.63.51.66,1.01.08,1.17.87,1.29,1.62.08.51.15.97.68,1.2.51.23.76-.22,1.11-.42.87-.52,1.4-1.45,2.4-1.83.63-.24,1.07-.22,1.56.28,1.3,1.34,2.58,2.68,3.43,4.38.5,1,.82,1.03,1.62.28.25-.24.52-.43.85-.52.64-.16,1.09-.57,1.42-1.1.51-.82,1.3-1,2.18-1.14,2.15-.34,4.34-.56,6.14-2,.42-.34.76-.69.92-1.22.15-.47.46-.58.83-.24.57.54,1.29.92,1.71,1.64.3.53.85.82,1.49.72.98-.16,1.92,0,2.88.17,1.01.17,1.95-.12,2.76-.74.85-.64,2-.72,2.83-.05.52.42.9.42,1.46.06,1-.64,2.07-.63,3.11,0,.79.49.83,1.57.03,2.03-.53.3-.84.64-.93,1.25-.07.51-.42.88-.87,1.13-.35.2-.7.46-1.07.51-.98.15-1.01,1.72-2.03,1.48-1.02-.24-1.63.23-2.32.71-.25.18-.54.27-.87.26-.77-.03-1.43.11-1.88.85-.42.68-1.17.49-1.77.39-.7-.13-1.36-.03-1.93.29-1.31.73-2.45.64-3.75-.16-1.41-.88-3.05-1-4.7-.59-1.31.33-2.62.2-3.89-.17-1.27-.37-2.55-.3-3.82-.12-.74.1-1.47.01-2.2.09-.18,0-.36-.01-.54-.02-.75-1.11-1.23-1.3-2.4-.94-.58.17-1.15.39-1.77.39-.25,0-.41.1-.43.36-.12,0-.24,0-.37,0-.51-.53-1.24-.46-1.84.18-.37,0-.74,0-1.1.01-.08-.18-.2-.31-.39-.35-.79-.2-1.95.36-2.42,1.2-.25.44-.5.89-1.11.66-.43-.16-.91-.46-1.27-.04-.42.49-.63,1.1-.33,1.78.11.25.32.61.13.77-.79.67-.16,1.39-.14,2.08.02.74.49.78,1.01.62.47-.14.87-.41,1.23-.77.43-.43.84-.64,1.09.21.15.51.49.86,1.09.45.57.06.93-.19,1.11-.73Zm-33.27,14.69c.14-.03.31-.1.25-.33-.06-.23-.28-.32-.49-.32-.21,0-.35.14-.3.35.05.25.26.31.55.31Z"/>
  <path class="cls-1" d="m147.94,88.24c.35-.02.47-.29.52-.56.36-1.79,1.49-3.1,2.67-4.39.12-.13.25-.29.29-.45.32-1.24,1.11-2.15,2.05-2.97,1.48-1.3,2.49-2.91,3.24-4.71.05-.11.09-.27.18-.31,1.38-.65,1.97-2.12,3.15-2.99.15-.11.36-.17.45-.31,1.01-1.64,2.81-1.68,4.39-2.14.18-.05.37-.13.5.05.11.16.1.37-.01.52-.17.25-.33.51-.59.69-.82.57-1.62,1.18-2.44,1.75-1.35.94-2.49,2.04-2.96,3.68-1.49,1.69-2.78,3.53-4.15,5.31-2.3,2.98-4.08,6.32-6.55,9.17-.25.28-.33.63-.36,1.01-.03.37-.26.65-.64.65-.38,0-.48-.35-.57-.63-.15-.46-.03-.89.19-1.32.34-.65.71-1.29.67-2.06Z"/>
  <path class="cls-1" d="m174.46,31.44c-.59.42-.93.06-1.09-.45-.25-.85-.67-.63-1.09-.21-.36.36-.76.63-1.23.77-.53.16-.99.12-1.01-.62-.02-.69-.65-1.41.14-2.08.19-.16-.02-.53-.13-.77-.3-.67-.09-1.29.33-1.78.36-.42.83-.12,1.27.04.61.23.86-.22,1.11-.66.48-.84,1.63-1.4,2.42-1.2.19.05.31.18.39.35-1.43.52-1.45.53-.91,2.08.28.81.16,1.54-.17,2.3-.32.73-.59,1.49-.02,2.24Z"/>
  <path class="cls-1" d="m178.88,24.63c.03-.26.18-.36.43-.36.62,0,1.19-.22,1.77-.39,1.17-.35,1.66-.17,2.4.94-1.51-.78-3.06-.26-4.6-.19Z"/>
  <path class="cls-1" d="m176.66,24.82c.6-.64,1.34-.71,1.84-.18-.61.06-1.23.12-1.84.18Z"/>
  <path class="cls-1" d="m76.59,22.96c-.05.25-.27.3-.46.35-.2.05-.37-.04-.35-.28.02-.24.18-.38.42-.39.2,0,.34.09.39.31Z"/>
  <path class="cls-1" d="m64.36,41.97c.87-1.02.46-2.36.61-3.63.11-.91.86-1.37,1.74-1.53.65-.12,1.01.27,1.28.81.55,1.11.58,1.11,1.58.49.37-.23.68-.16,1.02.04.97.57,1.91.78,2.98.14.47-.28,1.11-.28,1.68-.39.39-.08.64.15.83.45.24.39.44.81.72,1.17.38.51.9.5,1.39.21.47-.28.55-.62.18-1.12-.32-.43-.59-.96-.53-1.53.14-1.27.96-1.79,2.19-1.3,1.01.4,1.96.59,3.01.15.47-.2,1.02-.15,1.52.08,1.03.46,1.13.85.36,1.64-.66.68-.65.95.11,1.52.35.27.58.55.48,1-.1.46-.44.59-.87.67-.69.13-1.3.4-1.85.91-.78.72-1.13.64-1.95-.16-.4-.39-1.06-.24-1.48.36-.24.35-.45.73-.66,1.1-.48.86-1.11,1.51-2.07,1.83-.58.19-.93.69-1.34,1.09-.4.39-.29.83-.07,1.27.11.23.24.46-.05.64-.26.17-.47.03-.65-.16-.09-.09-.21-.16-.25-.27-.41-1.27-1.7-1.49-2.62-2.15-.41-.29-.84.02-1.15.31-.63.58-1.03.35-1.32-.33-.1-.22-.17-.46-.26-.68-.46-1.12-1.22-1.29-2.11-.46-.81.75-1.15.7-1.65-.26-.29-.57-.62-1.13-.78-1.91Zm15.84-2.3c.53.1.78-.12,1.02-.37.19-.2.3-.45.56-.59.26-.14.75-.21.43-.7-.26-.39-.67-.42-1.06-.24-.39.18-.75.41-1.12.63-.3.18-.83.23-.73.69.11.46.65.48.89.58Z"/>
  <path class="cls-1" d="m196.37,93.21c1.64-1.76,3.33-3.46,5.26-4.9.84-.63,1.45-1.48,2.26-2.14.3-.05.39-.24.35-.52,0,0,.02-.02.02-.02,1.06-1.11,2-2.3,1.76-3.97-.06-.4.21-.53.36-.77.32-.51,1.08-.61,1.21-1.29.06-.06.13-.12.19-.18.53-.02.72-.5,1.06-.78.46-.39.86-.85,1.52-.88,1.41-.46,2.7-1.23,4.17-1.55.87-.19,1.74-.11,2.6-.24.74-.11,1.26.57,1.17,1.32-.08.65.02,1.28.31,1.87.12.25.29.53.05.76-.92.92-1.08,2.21-1.64,3.3-.19.36-.51.55-.82.7-1.35.65-2.42,1.66-3.41,2.74-.81.88-1.79,1.43-2.91,1.79-.5.16-.83.51-.81,1.09.04.93-.53,1.29-1.33,1.46-.95.2-1.7.73-2.49,1.29-1.81,1.27-3.6,2.66-6.08,2.06-.61-.15-1.28-.02-1.93-.04-.91-.02-1.06-.2-.89-1.1Z"/>
  <path class="cls-1" d="m206.32,65.83c-.12,0-.24,0-.36,0-.62,0-1.27-.15-1.68.52-.79,0-1.26.65-1.89.95-.4.19-.82.36-1.23.53-.27,0-.53-.01-.56.36-.31.25-.61.5-.92.74-.35.01-.54.2-.55.55-.08.14-.21.18-.36.19-.57.1-.89.62-1.38.85-.21.1-.42.32-.68.16-.26-.16-.2-.46-.14-.67.16-.57.15-1.14.17-1.72.03-.76.53-1.19,1.16-1.52,1.23-.63,1.33-.87,1.08-2.24-.04-.24-.11-.53-.02-.72.53-1.15.63-2.51,1.64-3.42,1.32-1.2,2.04-2.78,2.66-4.38.33-.87.72-1.72.92-2.66.16-.77,1.15-1.18,1.57-1.93.08-.14.27-.08.41.02.31.23.39.55.3.9-.22.86-.31,1.73-.36,2.61-.08,1.23.42,2.34.65,3.49.25,1.27.45,2.56.81,3.82.18.61.46,1.02,1.03,1.31,1.39.7,2.85,1.21,4.33,1.67.69.22.89.8,1.23,1.27.24.33-.39.84-.97.75-.33-.05-.64-.2-.99-.15-.12-.06-.24-.13-.36-.19-.03-.37-.29-.37-.56-.36-.2-.01-.41.02-.54-.19-.44-.69-1.21-.56-1.86-.71-.62-.03-1.23-.03-1.83.17-.25-.25-.5-.26-.74.02Z"/>
  <path class="cls-1" d="m172.25,84.75c-1.74,1.05-3.4,2.2-4.84,3.64-.36.37-.7.76-1.05,1.14-1.56,1.21-3.2,2.33-3.53,4.52-.15,1-.69,1.83-1.54,2.41-.62.42-1.01.23-1-.51,0-.88.3-1.63.76-2.44.96-1.67,2.18-3.14,3.28-4.7,1.71-2.41,4-4.16,6.56-5.6,1.08-.61,2.29-.6,3.45-.82.24-.04.49.08.61.32.12.24-.05.41-.21.56-.39.34-.79.64-1.32.78-.43.12-1.02.08-1.18.7Z"/>
  <path class="cls-1" d="m193.25,76.48c-.13.31-.25.61-.38.92-.59.32-.84.91-1.1,1.47-1.07.22-1.97.85-2.95,1.29-.27,0-.45.12-.56.36,0,0,0,0,0,0-.26,0-.45.13-.55.37,0,0,0,0,0,0-.26,0-.45.12-.55.37-.8.25-1.33.85-1.84,1.47-1.18.34-2.27.22-3.34-.45-.59-.37-.72-.66-.06-1.02.59-.32,1.17-.68,1.81-.88,1.7-.54,2.86-1.92,4.45-2.67,1.18-.55,2.43-.77,3.61-1.24.49-.2.98-.57,1.47,0Z"/>
  <path class="cls-1" d="m221.25,67.11c0,.06,0,.12,0,.18-.27-.01-.44.17-.62.34-1.05.95-3.47.57-4.19-.64-.21-.36-.03-.59.25-.62,1.48-.14,2.89-.49,4.27-1.06.57-.24.9.34.62.96-.12.28-.32.52-.32.84Z"/>
  <path class="cls-1" d="m210.36,77.75c-.66.03-1.06.5-1.52.88-.33.28-.53.75-1.06.78,0-.39.3-.58.54-.8.73-.67,1.47-1.31,2.21-1.97.08.39-.11.74-.18,1.1Z"/>
  <path class="cls-1" d="m177.7,34.75c-.03.23-.17.32-.37.33-.2.01-.37-.09-.39-.29-.02-.19.16-.23.32-.22.17,0,.38-.05.45.18Z"/>
  <path class="cls-1" d="m331.44,77.48c-2.05.13-3.14-1.15-4.29-2.3-.37-.38-.69-.75-1.22-.92-1.16-.37-1.72-1.22-1.75-2.41-.01-.53-.18-1.02-.31-1.52-.16-.59.15-.77.63-.63,1.08.3,2.1.62,3.07,1.32,1.11.79,2.54,1.18,3.98.93,1.45-.25,3,.36,3.77,1.52.41.61.11.94-.4.94-.79,0-.9.46-.97,1.03-.1.78-.27,1.55-1.07,1.88-.5.21-1.1-.04-1.43.16Z"/>
  <path class="cls-1" d="m228.97,81.44c.07-.12.14-.24.21-.36.86-.16.73-.93.88-1.5.12-.47.13-.97.74-1.09-.43.81-.36,1.78-.84,2.57-.16.27-.43.58-.14.8.27.2.59-.09.77-.32.58-.72,1.32-.94,2.2-.85.21.02.46.04.63-.06,1.5-.82,3.22-.9,4.81-1.41.98-.31,2.06-.41,2.19-1.85.07-.76-.13-1.24-.92-1.13-.46.06-.85.07-.99-.51-.15-.61-.56-.69-1.05-.38-.57.35-1.04.47-1.41-.29-.15-.3-.5-.48-.86-.39-.31.08-.51.34-.52.68-.01.3-.07.58-.45.54-.58-.07-.87.35-1.24.66-.71.6-1.16,1.53-2.19,1.74,0-.12,0-.25,0-.37.12-.12.25-.24.37-.37.95-.7,1.73-1.58,2.58-2.39.67-.19.55-1.15,1.27-1.3.55-.03.78-.44.99-.84.16-.3.37-.56.59-.81.47-.52.92-.42,1.15.15.39.95,1.12,1.07,1.95.96,1.54-.21,3.08-.29,4.57-.87,1.66-.64,2.65-.06,3.11,1.64.22.82.87.54,1.36.45,1.16-.19,2.06.22,2.55,1.27.36.76.12,1.2-.72,1.17-.66-.02-1.19.28-1.74.51-1,.4-1.98.79-3.08.8-.12,0-.26.02-.35.08-1.43.96-3.12.88-4.7,1.26-1.94.46-3.93.95-5.59,2.18-.78.58-1.71.79-2.59,1.14-.14.05-.31.11-.44.07-1.45-.45-2.51.46-3.64,1.06-.34.18-.69.44-.99.17-.33-.29.05-.6.21-.88.24-.42.5-.82.75-1.23.07-.12.14-.24.2-.36.23-.02.35-.14.35-.38Z"/>
  <path class="cls-1" d="m191.77,78.87c.27-.57.51-1.15,1.1-1.47-.06.72-.35,1.27-1.1,1.47Z"/>
  <path class="cls-1" d="m208.89,65.65c.65.16,1.41.02,1.86.71-.6-.28-1.4-.06-1.86-.71Z"/>
  <path class="cls-1" d="m204.29,66.36c.4-.67,1.06-.53,1.68-.52-.42.61-1.14.29-1.68.52Z"/>
  <path class="cls-1" d="m206.32,65.83c.24-.28.48-.27.74-.02-.24.26-.48.25-.74.02Z"/>
  <path class="cls-1" d="m199.14,69.49c.02-.35.2-.54.55-.55-.02.35-.2.53-.55.55Z"/>
  <path class="cls-1" d="m211.29,66.55c.27-.01.53-.01.56.36-.27,0-.53,0-.56-.36Z"/>
  <path class="cls-1" d="m188.27,80.52c.1-.24.29-.37.56-.36-.02.37-.29.37-.56.36Z"/>
  <path class="cls-1" d="m187.17,81.26c.1-.24.29-.37.55-.37-.02.37-.28.37-.55.37Z"/>
  <path class="cls-1" d="m187.72,80.89c.1-.24.29-.37.55-.37-.02.37-.28.37-.55.37Z"/>
  <path class="cls-1" d="m200.61,68.2c.02-.37.29-.37.56-.36-.11.24-.29.36-.56.36Z"/>
  <path class="cls-1" d="m207.6,79.59c-.13.68-.89.78-1.21,1.29-.15.24-.42.37-.36.77.24,1.67-.7,2.85-1.76,3.97.37-.78.71-1.56,1.1-2.33.24-.47.57-.86-.16-1.26-.64-.36-.37-.85.1-1.14.74-.47,1.52-.87,2.28-1.3Z"/>
  <path class="cls-1" d="m230.8,78.49c-.61.12-.62.62-.74,1.09-.15.57-.02,1.34-.88,1.5.2-.53.35-1.05.41-1.63.07-.71.46-1.29,1.22-1.51,0,.12,0,.25,0,.37,0,.06,0,.12-.01.18Z"/>
  <path class="cls-1" d="m233.76,75.19c-.85.81-1.64,1.68-2.58,2.39.36-1.33,1.32-2.03,2.58-2.39Z"/>
  <path class="cls-1" d="m204.25,85.65c.04.28-.06.47-.35.52.02-.24.04-.48.35-.52Z"/>
  <path class="cls-1" d="m228.97,81.44c0,.24-.12.36-.35.38-.01-.24.11-.36.35-.38Z"/>
  <path class="cls-1" d="m323.57,87.33c-.83.14-1.81-.04-2.68-.64-.64-.44-1.09-.23-1.44.36-.3.52-.64.58-1.13.24-.4-.28-.84-.49-1.25-.77-.3-.2-.65-.43-.62-.85.04-.73-.35-1.19-.82-1.66-.33-.33-.94-.66-.56-1.19.39-.55,1.03-.21,1.59-.17,1.64.12,2.72,1.39,4.17,1.9,1.52.53,2.96,1.25,4.38,2.02.23.13.46.23.39.52-.07.27-.33.22-.54.22-.43,0-.86,0-1.5,0Z"/>
  <path class="cls-1" d="m299.7,71.5c-1.85.13-3.67-.06-5.46-.56-.17-.05-.24-.17-.28-.32.3,0,.64-.09.9.01,1.36.55,2.78.55,4.2.51.28,0,.56-.02.63.36Z"/>
  <path class="cls-1" d="m304.85,74.82c-.7-.24-1.39-.48-1.66-1.27.66.28,1.35.53,1.66,1.27Z"/>
  <path class="cls-1" d="m306.87,75.74c-.76-.13-1.49-.29-2.02-.92.7.24,1.58.09,2.02.92Z"/>
  <path class="cls-1" d="m291.97,70.44c-.38.52-.75.52-1.13,0,.38,0,.75,0,1.13,0Z"/>
  <path class="cls-1" d="m302.47,73.16c-.45-.03-.68-.29-.76-.71.45.03.67.3.76.71Z"/>
  <path class="cls-1" d="m300.99,72.06c-.34-.05-.67-.11-.75-.52.36.02.68.1.75.52Z"/>
  <path class="cls-1" d="m299.88,80.35c-.1.39-.28.47-.57.15.15-.21.36-.17.57-.15Z"/>
  <path class="cls-1" d="m293.61,70.62c-.26.25-.32.04-.38-.17.17-.04.31,0,.38.17Z"/>
  <path class="cls-1" d="m142.3,45.4c-.29,0-.5-.06-.55-.31-.04-.21.1-.36.3-.35.21,0,.43.1.49.32.07.24-.11.31-.25.33Z"/>
  <path class="cls-1" d="m80.2,39.67c-.25-.1-.79-.13-.89-.58-.11-.46.43-.51.73-.69.37-.22.73-.45,1.12-.63.39-.18.8-.15,1.06.24.32.48-.17.56-.43.7-.26.14-.38.39-.56.59-.24.25-.49.47-1.02.37Z"/>
  <path class="cls-1" d="m230.8,78.49c0-.06.01-.12.01-.18,1.03-.2,1.48-1.13,2.19-1.74.37-.31.65-.73,1.24-.66.38.04.44-.24.45-.54.01-.34.21-.6.52-.68.36-.09.72.09.86.39.37.75.83.64,1.41.29.49-.3.9-.23,1.05.38.14.58.53.57.99.51.79-.11.99.36.92,1.13-.13,1.43-1.21,1.53-2.19,1.85-1.59.51-3.31.59-4.81,1.41-.17.09-.42.08-.63.06-.89-.1-1.62.13-2.2.85-.18.23-.5.52-.77.32-.29-.22-.03-.53.14-.8.48-.79.41-1.76.84-2.57Z"/>
</svg>