<?xml version="1.0" encoding="UTF-8"?>
<svg id="Layer_1" data-name="Layer 1" xmlns="http://www.w3.org/2000/svg" viewBox="0 0 621 285">
  <defs>
    <style>
      .cls-1 {
        fill: #fff;
      }
    </style>
  </defs>
  <path class="cls-1" d="m525.1,173.72c12.79,8.92,25.59,10.69,37.65,14.27,2.31.69,4.82.66,7.23,1.08,5.44.94,10.62,6.01,14.44,16.16-.55,2.27-8.21-3.76-9.94-3.87-3.02-.19-6.05-2.17-9.58.45,4.87,6.73,12.94,7.31,19.52,10.48,4.26,2.05,16.02,3.12,15.74,7.93-.36,6.17-6.16,13.44-14.41,16.15-4.58,1.5-8.9,3.99-13.06,6.49-6.17,3.71-12.98,6.74-9.48,16.76,1.8,5.15-2.24,9.3-7.66,10.61-7.34,1.78-13.46,5.63-19.05,10.46-5.24,4.53-11.53,5.89-17.59,3.6-8.84-3.35-20.62-2.94-26.49-8.15-14.7-13.03-33.75-11.01-49.56-18.78-.8-.39-1.28-1.42-2.86-3.26,9.81-.2,17.69,3.42,25.93,4.75,8.83,1.42,11.79-1.04,10.62-9.87-1.2-9.02-5.88-16.34-12.86-21.98-3.95-3.19-6.51-6.2-7.08-11.83-.84-8.26-9.78-12.94-17.24-10.3-7.46,2.64-11.37,11.21-7.65,18.6,2.23,4.42,2.44,7.58-1.09,11.17-3.76,3.82-3.75,8.87-3.31,13.78.55,6.14-2,7.46-7.43,5.43-7.67-2.88-15.21-6.34-24.04-5.39,4.4,2.29,8.79,4.58,13.19,6.88-6.82-1.06-14.54.6-17.97-8.08-1.49-3.78-6.63-5.96-10.51-3.03-8.7,6.58-14.68,1.72-20.93-3.73-3.58-3.12-7.34-6.05-10.71-10.13,7.33,4.95,14.53,5.34,22.73,2.74,4.46-1.41,9.72,1.11,13.05,5.11,3.28,3.94,7.39,4.3,13.59,4.63-11.06-17.2-16.22-33.87-3.27-52.24-7.75.06-12.8,4.27-18.58,5.67-5.1,1.23-8.48,12.18-15.57,3.19-7.75,4.44-16.98-2.03-24.67,3.38-1.28.9-3.21.86-6.49,1.66,2.56-5.34,4.06-9.83,7.95-12.43,13.75-9.2,26.15-20.19,43.77-23.12,21.6-3.59,41.79-12.58,62.09-20.93-15.36-.08-29.34,8.82-45,6.32,10.65-4.1,21.92-6.01,32.88-8.32,31.11-6.56,60.63-18.52,91.42-25.87,28.32-6.76,56.68-15.34,86.48-9.48,2.72.53,5.41,1.18,8.08,1.93.48.14.75,1.02,2.61,3.75-27.61-7.35-52.97-2.23-78.42,2.9-25.52,5.14-49.78,14.32-74.81,22.15,14.23,5.57,26.16,14.92,40.67,19.16,14,4.09,28.37,5.11,42.92,6.72-6.85,4.6-14.75,4.27-25.26,6.44Zm-33.98,81.08c10.71-3.53,20.06-4.88,27.36-9.49,7.5-4.73,13.68-5.51,21.28-1.96,2.3,1.07,5.2,3.55,7.62,1.01,2.21-2.34.2-5.33-.82-7.74-13.82-32.82-41-47.54-76.37-55.97,18.59,19.37,24.69,45.79,50.34,55.47-9.37-1.38-15.56-7.76-23.96-11.9.07,10.22-1.44,19.36-5.45,30.58Zm29.98,26.69c4.44,1.19,6.81.37,8.86-.92,8.48-5.36,16.05-12.04,26.22-14.77,4.27-1.14,4.22-5.68,1.35-9.5-7.21-9.59-27.62-13.61-38.02-7.18-4.57,2.83-9.65,3.92-14.73,5.04-5.54,1.22-10.62,3.33-15.11,6.79-5.94,4.58-5.56,9.26,1.41,11.4,10.61,3.26,21.72,4.88,30.02,9.13Zm-93.11-53.7c-1.25-5.34-4.71-8.54-10.9-8.29-6.68.27-15.57,7.93-15.12,13.52.42,5.21,2.75,9.39,8.9,9.6,6.96.24,17.23-8.35,17.13-14.83Z"/>
  <path class="cls-1" d="m0,26.99c27.39,9.93,58.77,2.52,83.08,22.91C66.76,27.81,42.92,15.69,19.22,1.78c6.35-3.1,9.4.79,12.79,2.47,31.95,15.8,56.2,40.54,78.65,67.51,16.94,20.35,34.54,40.16,58.02,53.51,1.76,1,4,2.12,3.28,4.66-.75,2.64-3.28,2.06-5.27,2.02-7.98-.17-14.52-4.34-22.08-7.65,11.24,10.4,13.5,24.61,19.04,38.6-6.36-.87-7.9-5.12-9.77-8.5-3.42-6.21-8-1.25-8,.45,0,6.31-6.63,12.02-.7,18.79-7.81,1.69-12.73-3.32-18.57-4.88-5.03-1.34-10.02-2.96-14.88-4.84-9.05-3.48-22.65-3.67-26.07-11.44-6.68-15.2-16.29-30.13-15.75-47.89.16-5.16-.59-11.3,4.19-14.52,7.43-5.01,2.91-8.59-.72-12.15-7.41-7.27-28.47-9.76-37.57-4.82-6.63,3.6-8.99,8.52-7.52,16.36,4.1,21.94,19.68,34.37,36.58,45.84,2.66,1.81,7.71,1.74,5.53,6.77-1.76,4.06-4.07,8.43-9.95,7.33-4.8-.9-9.53-1.37-14.49-.99-6.38.49-12.41-2-13.77-8.65-1.42-6.97,4.19-9.45,10.06-10.8.89-.2,1.62-1.09,2.95-2.04C17.5,99.82,12.31,62.55,0,26.99Zm105.25,118c.81,7.75.84,7.88,5.14,6.99,2.03-.42,1.96.95,2.57,2.05,4.61,8.35,13.82,9.05,21.32,12.47,2.96,1.35,3.9-1.76,4.99-3.97,5.43-11-3.27-16.59-9.04-23.04-3.25-3.63-7.22-6.31-9.22,1.67-1.08,4.28-4.96,9.21-8.6,4.55-4.06-5.2-8.46-2.94-13.52-3.16.97-2.21,1.71-3.38,2-4.66.82-3.66,5.15-7.76-.75-10.79-4.3-2.21-8.64-2.5-12.53,1.25-3.85,3.7-4.29,7.53-1.37,12.11,2.86,4.48,6.18,8.1,10.87,10.93,5.19,3.13,6.23-.09,8.14-6.38Zm-60.1-12.45c-2.84.55-8.32-.18-9.81,5.15-.89,3.19,2.25,5.88,5.51,6.35,6.77.99,13.73-.03,20.47,2.05,2.07.64,3.73-1.41,4.47-3.51.5-1.41.23-3.43-1.12-3.46-6.85-.12-10.98-7.35-19.51-6.59Zm108.27-11.84c-7.47-6.39-14.95-12.77-22.42-19.16,5.32,9.19,12.12,16.54,22.42,19.16Z"/>
  <path class="cls-1" d="m452.8,222.74c-.02,5.34-1.61,9.26-7.13,8.47-6.35-.91-7.95-6.19-8.14-11.64-.15-4.3.92-9.61,6.06-9.26,7.2.48,8.92,6.63,9.2,12.43Zm-7.1,4.9c2.78-.17,3.96-2.04,3.81-4.15-.27-3.72-.73-7.91-5.16-9.06-2.44-.63-3.51,1.69-3.55,3.93-.08,4,1.21,7.34,4.9,9.27Z"/>
  <path class="cls-1" d="m53.56,117.19c-1.15,0-2.1-.4-2.74-1.16-.81-.96-1.08-2.44-.76-4.19l.07-.35.32-.15c1.74-.82,3.15-.95,4.18-.37.61.35,1.37,1.12,1.54,2.84.07.76.09,1.84-.57,2.59-.44.5-1.1.76-1.97.79h-.06Zm-2.18-4.75c-.15,1.16.02,2.11.51,2.68.38.45.95.69,1.7.67.46-.01.78-.12.96-.32.23-.26.3-.76.23-1.54-.06-.62-.26-1.43-.84-1.76-.54-.31-1.42-.22-2.56.27Z"/>
</svg>