<?xml version="1.0" encoding="UTF-8"?>
<svg id="Layer_1" data-name="Layer 1" xmlns="http://www.w3.org/2000/svg" viewBox="0 0 426.07 216.55">
  <defs>
    <style>
      .cls-1 {
        fill: #fff;
      }
    </style>
  </defs>
  <path class="cls-1" d="m64.1,63.55h43.57c8.02,0,14.52-1.5,14.52-3.35v-6.7h14.52v6.7c0,1.85,6.5,3.35,14.52,3.35,3.22,0,6.18-.24,8.59-.65,2.4.41,5.35.65,8.55.65h87.15c3.27,0,6.28-.25,8.71-.67,2.43.42,5.44.67,8.71.67h29.05v13.39h-14.52v-6.7c0-1.85-6.5-3.35-14.52-3.35s-14.52,1.5-14.52,3.35v10.05c0,1.85,6.5,3.35,14.52,3.35h87.14c8.02,0,14.52-1.5,14.52-3.35v-40.18c0-1.85-6.5-3.35-14.52-3.35h-43.57c-8.02,0-14.52,1.5-14.52,3.35v16.74h-14.52v-16.74c0-1.85-6.5-3.35-14.52-3.35-3.26,0-6.27.25-8.69.67-2.5-.43-5.56-.67-8.73-.67h-87.14c-3.11,0-6.11.23-8.59.65-2.4-.4-5.35-.65-8.55-.65h-29.05v-16.74c0-1.85-6.5-3.35-14.52-3.35h-43.57c-8.02,0-14.52,1.5-14.52,3.35v40.18c0,1.85,6.5,3.35,14.52,3.35Zm162.37-20.09h14.52v3.35h-14.52v-3.35Zm0,10.05h29.06c.99,0,1.96-.03,2.89-.07v3.48c-.94-.04-1.9-.07-2.89-.07h-29.06v-3.35Zm-104.28-10.05h29.05c.89,0,1.76-.02,2.61-.06v3.46c-.85-.04-1.72-.06-2.61-.06h-29.05v-3.35Z"/>
  <path class="cls-1" d="m397.33,158.86h-4.46l-15.8-7.28,30.76-7.09c5.67-1.31,5.67-3.43,0-4.74-5.67-1.31-14.87-1.31-20.54,0l-23.91,5.51-10.07-4.64c-2.46-1.13-7.49-1.85-12.99-1.85h-29.9c-3.16,0-6.09.23-8.47.63-.07.01-.14.02-.21.04-2.51-.43-5.57-.68-8.74-.67h-87.14c-.88,0-1.76.02-2.61.05v-16.8c0-1.85-6.5-3.35-14.52-3.35h-23.09v-4.19c.94.04,1.91.07,2.91.07h87.14c3.27,0,6.28-.25,8.71-.67,2.43.42,5.44.67,8.71.67h43.57c8.02,0,14.52-1.5,14.52-3.35v-16.74h14.52v16.74c0,1.85,6.5,3.35,14.52,3.35s14.52-1.5,14.52-3.35v-20.09c0-1.85-6.5-3.35-14.52-3.35h-87.14c-3.27,0-6.27.25-8.69.67-2.5-.43-5.56-.67-8.72-.67h-87.15c-3.16,0-6.21.24-8.71.67-2.48-.43-5.5-.67-8.63-.67h-87.14c-8.02,0-14.61,1.5-14.61,3.35v20.09c0,1.85,6.59,3.35,14.61,3.35h28.96v4.12h-19.77c-2.52-.48-5.75-.77-9.27-.77s-6.76.29-9.27.77h-28.34c-8.02,0-14.52,1.5-14.52,3.35v40.18c0,1.85,6.5,3.35,14.52,3.35h43.57c8.02,0,14.52-1.5,14.52-3.35v-16.74h29.05c8.02,0,14.52-1.5,14.52-3.35,0-1.85-6.5-3.35-14.52-3.35h-29.05v-4.12h19.78c2.52.48,5.75.77,9.27.77s6.76-.29,9.27-.77h7.86v27.56c0,1.85,6.5,3.35,14.52,3.35h43.57c3.22,0,6.18-.24,8.58-.65,2.4.41,5.35.65,8.55.65h87.15c3.26,0,6.26-.25,8.69-.67,2.58.45,5.65.68,8.73.68,3.72,0,7.43-.33,10.27-.98l23.91-5.51,10.07,4.64c2.46,1.13,7.49,1.85,12.99,1.85h29.9c3.16,0,6.09-.23,8.47-.63,3.72-.62,6.12-1.63,6.05-2.77-.12-1.84-6.78-3.3-14.75-3.3Zm-170.71-64.4h14.52v3.35h-14.52v-3.35Zm0,10.05h29.05c.99,0,1.96-.03,2.89-.07v3.48c-.94-.04-1.9-.07-2.89-.07h-29.05v-3.35Zm-148.14,3.35v-13.39h14.52v13.39h-14.52Zm5.96,20.09v-2.58h8.57v2.58h-8.57Zm179.51,17.51h14.52v3.35h-14.52v-3.35Zm37.66,14.05c-2.41-.41-5.38-.65-8.6-.65h-29.06v-3.35h29.06c8.03,0,14.52-1.51,14.52-3.36v-6.75c1.01.05,2.06.08,3.13.08h4.46l15.8,7.28-29.31,6.76Z"/>
  <path class="cls-1" d="m262.93,189.8h-36.31v-8.37c0-1.85-6.5-3.35-14.52-3.35s-14.52,1.5-14.52,3.35v8.37h-36.31c-8.02,0-14.52,1.5-14.52,3.35s6.5,3.35,14.52,3.35h36.31v8.37c0,1.85,6.5,3.35,14.52,3.35s14.52-1.5,14.52-3.35v-8.37h36.31c8.02,0,14.52-1.5,14.52-3.35s-6.5-3.35-14.52-3.35Z"/>
</svg>