<?xml version="1.0" encoding="UTF-8"?>
<svg id="Layer_1" data-name="Layer 1" xmlns="http://www.w3.org/2000/svg" viewBox="0 0 876.44 435.56">
  <defs>
    <style>
      .cls-1 {
        fill: #ceab8e;
      }

      .cls-2 {
        fill: #c09b7d;
      }

      .cls-3 {
        letter-spacing: -.03em;
      }

      .cls-4 {
        letter-spacing: -.04em;
      }

      .cls-5 {
        fill: #fffeff;
      }

      .cls-6 {
        fill: #b1896b;
      }

      .cls-7 {
        letter-spacing: -.07em;
      }

      .cls-8 {
        letter-spacing: 0em;
      }

      .cls-9 {
        fill: #decbba;
      }

      .cls-10 {
        letter-spacing: -.02em;
      }

      .cls-11 {
        fill: #01458c;
        font-family: NokiaKokia, NokiaKokia;
        font-size: 83.72px;
      }

      .cls-12 {
        letter-spacing: -.05em;
      }

      .cls-13 {
        letter-spacing: -.03em;
      }
    </style>
  </defs>
  <text class="cls-11" transform="translate(118.14 403.49)"><tspan class="cls-12" x="0" y="0">P</tspan><tspan class="cls-13" x="77.7" y="0">E</tspan><tspan class="cls-7" x="154.97" y="0">R</tspan><tspan class="cls-4" x="239.11" y="0">OX</tspan><tspan class="cls-8" x="421.46" y="0">I</tspan><tspan class="cls-4" x="449.34" y="0">I</tspan><tspan class="cls-10" x="474.71" y="0">D</tspan><tspan class="cls-3" x="565.29" y="0">E</tspan></text>
  <g>
    <path class="cls-1" d="m44.65,127.91c.93,0,1.83.33,2.77.09,2.01-.52,4.11-.48,6.08-.14,3.39.58,6.72-.03,10.03-.26,3.94-.27,7.8-.04,11.65.49,3.29.45,6.3,2.2,9.78,2.16,1.85-.02,3.71.25,5.58-.04,1.64-.26,3.3-.17,4.95-.05,3.67.26,7.04,1.86,10.79,2.05,5.32.27,10.64.46,15.95.67,2.17.09,4.3-.1,6.5.32,3.54.67,7.1,1.53,10.74,1.49,2.3-.02,4.53.28,6.64,1.08,3.75,1.42,7.55,2.27,11.58,1.93,1.96-.16,3.81.42,5.62,1.1.67.25,1.33.61,2.06.54,4.03-.41,7.82,1.06,11.73,1.55,2.3.29,4.55,1.43,6.91.18.56-.29,1.2.04,1.76.27,1.3.55,2.22.37,3.05-.95,1.01-1.6,2.36-1.71,3.94-.73.5.31,1.15.7,1.67.62,3-.47,5.3,1.49,7.98,2.12,2.13.5,3.89,2.18,6.25,1.93,1.01-.11,1.87.34,2.82.68,1.91.68,3.07,2.34,4.76,3.19,3.3,1.66,4.5,4.96,6.29,7.76.56.87,1.07,1.7,1.96,2.08,2.5,1.07,4.07,3.07,5.58,5.16.63.88,1.18,1.87,2.62,1.36.79-.28,1.42.32,1.78.94,1.63,2.79,4.28,3.97,7.24,4.72.63.16,1.33.35,1.83.74,1.53,1.21,3.26,1.7,5.17,1.89.94.1,2.3.08,2.68,1.01.69,1.7,2.09,1.9,3.51,2.28,2.03.54,3.88,1.42,5.69,2.52,3.34,2.03,7.22.53,10.8,1.23.79.16,1.31-.74,1.09-1.67-.21-.89-.86-.89-1.56-.64-.31.11-.59.31-.91.4-1.52.44-3.76-.95-3.97-2.68-.23-1.86,1.31-1.46,2.4-1.52.51-.03,1.04-.14,1.29-.6.3-.57-.2-.95-.57-1.23-2.89-2.24-6.14-3.8-9.67-4.72-1.08-.28-1.36.56-1.19,1.43.14.7.4,1.4.26,2.11-.3,1.51-1.51,1.41-2.61,1.33-1.13-.08-1.11-.84-.84-1.68.46-1.44.18-2.92-.29-4.21-.62-1.73-1.3-4.19-2.9-4.58-2.21-.55-3.02-2-4.16-3.43-.14-.17-.31-.31-.47-.47-1.53-1.57-3.12-3.09-4.57-4.73-.62-.71-.94-.85-1.44,0-.56.93-1.31.62-2.01.23-.5-.27-1.33-.39-1.17-1.18.16-.78,1.03-.73,1.62-.93.46-.15.98-.11,1.47-.17,1.65-.21,2.5-1.77,1.85-3.29-.32-.75-.79-.89-1.18-.28-1.02,1.62-1.85.82-2.72-.09-.46-.48-.96-.92-1.4-1.41-.72-.79-1.34-.61-1.89.18-.22.31-.35.69-.55,1.02-.14.23-.32.53-.63.41-.44-.17-.29-.56-.13-.83.73-1.16.35-1.8-.65-2.74-1.81-1.69-3.76-1.82-5.95-1.36-1.63.34-2.6-.26-2.85-1.88-.13-.83-.29-1.66-.74-2.34-.77-1.17-.65-2.29-.03-3.42.7-1.26.45-2.34-.55-3.28-1.16-1.09-2.3-2.13-3.03-3.62-.6-1.23-1.47-2.18-3.24-1.62-1.06.34-1.86-.51-2.52-1.46-2.45-3.5-4.62-7.2-7.74-10.22-1.11-1.07-2.24-1.39-3.57-1.11-1.05.23-2.07.29-3.12.26-.97-.03-1.76.15-2.05,1.23-.11.4-.33.76-.8.61-.42-.13-.5-.55-.5-.96,0-.77.06-1.55-.04-2.31-.14-1.08-.81-1.87-1.86-2.1-1.01-.22-1.39.69-1.82,1.38-.26.42-.44.89-.7,1.32-.31.5-.79.69-1.25.26-.97-.9-1.94-1.81-2.77-2.84-.43-.53-.32-1.3.25-1.8.97-.84,1.18-1.99,1.18-3.13,0-1.1.33-1.62,1.42-2.03,1.93-.72,3.55-1.98,4.7-3.75,1.09-1.69.74-2.64-1.18-3.1-1.36-.33-2.57-.99-3.8-1.61-.35-.18-.71-.36-.72-.82,0-.58.5-.71.9-.81,1.34-.34,2.67-.62,4.07-.23,1.07.29,2.19.29,3.27-.02.68-.2,1.29-.17,1.92.15,1.43.71,2.53.55,3.14-1.13.44-1.2,1.34-1.8,2.67-1.83,2.06-.05,2.48-.47,2.77-2.46.19-1.29-.78-2.64-2.2-3.11-2.55-.84-5.15-1.58-7.63-2.59-1.25-.51-2.04-.41-2.89.58-.97,1.13-1.94,1.22-3-.04-.94-1.11-1.89-2.22-3.71-2.04-1.04.1-.8-.85-.33-1.4.64-.75,1.37-1.44,2.1-2.12.55-.52,1.35-.64,1.81-.14,1.43,1.58,2.74.66,4.16.04,1.38-.6,1.47-1.52.81-2.66-.95-1.65-2.25-3.03-3.96-3.88-1.07-.53-2.3-1.06-3.49-.54-1.69.74-3.31.62-4.98.07-1.13-.37-2.29-.36-3.42-.05-1.32.37-2.62.82-3.92,1.27-.49.17-1.2.4-1.36-.05-.62-1.7-2.24-2.94-2.34-4.81-.08-1.45-.72-1.87-2.07-1.91-1.91-.07-3.81.2-5.73.11-1.37-.07-2.84.44-3.65,1.85-1.2,2.09-2.8,2.68-4.96,1.56-.93-.48-1.37-.39-1.85.43-.37.61-.76,1.35-1.57,1.3-.87-.06-.9-1.01-1.26-1.59-.14-.23-.17-.52-.26-.78-.49-1.29-1.42-1.93-2.81-1.85-1.29.08-2.37.46-2.77,1.88-.26.93-.76,1.93-1.75,2-1.71.13-1.88,1.09-1.9,2.46-.01,1.36-.61,2.37-2.21,2.25-1.54-.11-2.32.48-2.08,2.11.05.32.06.68-.02.99-.3,1.16-1.21,1.5-2.26,1.53-.64.02-1.36.14-1.64-.73-.43-1.34.4-3.19,1.81-3.53,1.38-.33,2.06-1.13,2.33-2.43.35-1.73,1.52-2.49,3.18-2.55,1.06-.04,1.34-.6,1.26-1.5-.08-.93-.34-1.85-.3-2.77.14-2.91-1.21-4.01-4.05-3.04-1.22.42-2.26.36-3.29-.34-2.79-1.87-5.89-3.22-9.16-3.57-3.97-.42-7.63-1.8-11.45-2.68-1.62-.38-2.54-1.35-2.86-2.8-.3-1.36.18-2.5,1.7-2.96.33-.1.46-.43.54-.78.33-1.44-.45-2.8-1.78-3.07-1.67-.33-2.86.42-3.2,1.95-.21.94-.23,2.14-1.36,2.47-1.85.53-3.75.73-5.7.33-2.74-.56-5.49-1.09-8.26-1.43-2.39-.29-2.58-.52-2.96-3-.26-1.65-.93-3.48-2.57-4.17-1.61-.67-3.24-.1-4.42,1.39-.58.73-1.29,1.46-2.33,1.42-2.66-.11-4.4,1.03-5.35,3.53-.44,1.16-1.35,1.4-2.4.68-.86-.58-1.72-1.14-2.29-2.09-.62-1.03-1.47-1.04-2.29-.1-.96,1.11-1.9,2.21-2.54,3.58-.67,1.43-2.49,2.01-3.79,1.45-1.58-.68-1.73-4.18-.24-5.52,1.66-1.49,1.42-2.5-.7-3.26-.65-.23-1.38-.44-1.94-.19-2.25,1.02-4.83,1.08-6.97,2.43-.89.56-1.15,1.12-.66,2.02.26.48.56.95.82,1.43.46.88.24,1.43-.76,1.73-1.66.51-3.44-.73-3.66-2.57-.15-1.25-.41-2.48-.58-3.72-.11-.78-.29-1.39-1.27-1.39-.95,0-1.6.3-1.79,1.31m25.78-19.79c3.11.5,5.79,2.33,8.8,3.21,1.62.47,3.22,1.04,4.83,1.56,1.78,1.07,3.76,1.58,5.76,2.08.21.03.41.06.62.08.16.27.41.31.69.27.21.03.43.06.64.09,2.39,1.47,5.19,1.91,7.77,2.9,5.34,2.05,10.69,4.17,16.33,5.33,1.78.36,3.3,1.37,5.09,1.72,4.46.88,8.86,2.03,13.34,2.79,1.83.31,3.65.93,5.56.78.42.05.84.1,1.27.15.16.36.34.65.72.19,3,.31,5.91,1.25,8.95,1.32.11.45.21.9.67.21.23.03.46.05.69.08.86,1.37,2.95,1.79,4.62.93.56.03,1.11.05,1.67.08.02.37.18.62.58.66,3.51.34,7.02.68,10.54,1.01.42.04.9.1,1.15-.4.45.02.89.04,1.34.06.74.85,3.49.99,4.96.26.22,0,.43,0,.65,0,.21.42.59.42.98.42,2.56,0,5.11,0,7.67,0,.38,0,.77,0,.98-.41.66.03,1.32.06,1.98.1.39,1.08,1.4.84,2.21,1.02.73.17,1.36.51,1.59,1.28.25.84-.28,1.38-.86,1.8-.64.47-1.44.92-1.05,1.79.36.81,1.23,1.53,2.12,1.32,1.67-.39,3.27.24,4.9.07.51-.05,1.03-.07,1.41-.38,1.64-1.31,3.67-1.43,5.58-1.85.93-.21,1.91.1,2.48.96.59.9-.23,1.35-.75,1.91-.47.51-.46,1.11-.02,1.66.36.45.9.86,1.43.54,1.98-1.21,3.57-.31,5.16.78.91.62,1.76,1.24,3.03.86,1.44-.43,1.91.13,1.69,1.72-.2,1.44.71,2.5,2.19,2.38,1.88-.16,3.56-.67,5.06-2.07,2.19-2.05,4.79-3.63,7.14-5.52,1.86-1.5,4.02-2.63,5.55-4.56.49-.62,1.15-1.09,1.98-1.06,1.17.04,1.94-.58,2.73-1.32,1-.92,1.63-2.05,2.29-3.2.97-1.7,2.98-2.22,4.32-3.48,2.51-2.35,5.27-3.69,8.79-2.98.41.08.9,0,1.3-.14,3.64-1.32,7.55-1.42,11.23-2.33,2.66-.66,5.27-1.3,7.98-1.77,2.74-.48,5.45-1.59,8.14-2.56,2.06-.75,4.21-1.91,6.66-1.17.84.25,1.87-.14,2.77-.14,2.87-.03,5.77-.95,8.63.3,1.54.67,3.35.86,4.8.07,2.14-1.16,4.1-.65,6.22-.22,2.74.55,5.54,1.01,8.1-.8.46-.33,1.1-.24,1.61-.06,1.19.42,2.47.43,3.6.16,1.48-.37,2.85-.11,3.98.54,1.61.93,3.25.86,4.94.86,2.61,0,5.09.74,7.56,1.46,4.21,1.23,8.32,2.82,12.87,2.55,3.63-.21,7.18.83,10.8,1.08,4.81.33,9.58,1.21,14.43,1.21.77,0,1.55.02,2.31.13,3.47.49,6.99.82,10.4,1.57,2.8.62,5.72.26,8.45,1.27,1.65.61,3.25,1.51,5.02,1.59,3.13.14,5.89,1.55,8.84,2.32,1.4.37,2.32,1.64,2.26,3.31-.02.6.02,1.21.09,1.81.32,3.07-.5,5.96-2.76,7.88-3.06,2.6-6.11,5.44-10.33,6.24-.37.07-.77.21-1.06.43-3.17,2.38-7.07,3.17-10.57,4.85-5,2.4-10.56,1.51-15.88,1.57-3.47.04-7.03-.55-10.41-1.41-6.74-1.7-13.66-1.16-20.45-2.08-.42-.03-.83-.06-1.25-.1-1.05-1-4.69-1.31-6.33-.55-.97,0-1.93.02-2.9.02-.49-.03-1.01-.17-1.46-.06-1.05.26-2.45.55-2.49,1.75-.05,1.37-.93,2.98.55,4.19.05.87,1.28.78,1.34,1.64-.89.66-2.12,1-2.32,2.34-.32.97-.98,1.42-2,1.31-1.01-1.35-.54-2.71.04-4.03.6-1.36.81-2.67.3-4.13-.97-2.79-.93-2.81,1.64-3.74.66,0,1.32-.01,1.99-.02,1.11-.11,2.22-.22,3.32-.33.22,0,.44,0,.66,0,2.77-.14,5.58-1.07,8.29.34.33,0,.65.02.98.03.1.58.51.65.99.63,4.36-.19,8.68.27,13.02.65,4.43.38,8.83.91,13.15,2.02,1.54.39,3.14.92,4.7.55,3.75-.88,7.63-.92,11.34-1.93,1.49-.4,3.09-.15,4.52-.81,2.9-1.35,6.17-2.01,8.63-4.15,1.96-1.71,4.22-2.77,6.45-3.99,2.22-1.21,3.41-3.87,5.93-4.87.32-.13.76-.58.43-.93-1.01-1.05-.55-2.11-.2-3.21.17-.54-.16-.95-.54-1.3-.89-.84-1.98-1.24-3.16-1.22-1.35.02-2.51-.14-3.23-1.48-.33-.61-1.03-.51-1.64-.54-1.14-.06-2.29.16-3.42-.34-1.5-.66-3.02-1.39-4.76-.68-.47.19-1.04.02-1.41-.3-1.55-1.35-3.4-1.4-5.31-1.33-1.04.04-2.07-.09-3.12-.23-1.56-.21-3.49-.36-4.4,1.08-.96,1.52-2.23,2.09-3.75,2.66-2.8,1.05-3.45.95-5.34-1.36-.38-.47-.7-.99-1.01-1.51-.95-1.59-2.04-1.62-2.95.07-.49.91-1.14,1.5-2.05,1.77-1.11.32-1.94.97-2.74,1.76-1.53,1.52-2.32,1.44-3.54-.32-.62-.9-1.38-1.54-2.47-1.24-2.45.69-4.9,1.17-7.44.65-.1-.02-.23,0-.33.04-1.05.53-1.75-.06-2.5-.68-1.15-.94-1.67-2.3-2.5-3.46-1.1-1.54-1.95-1.55-3.35-.4-.57.47-1.5,1.38-1.41-.48.02-.47-.43-.56-.8-.69-.89-.31-1.68-.79-2.41-1.41-.76-.64-1.66-1.26-2.67-1.17-1.91.16-3.83.06-5.71.24-4.04.38-7.86.26-11.21-2.4-.45-.36-1.03-.8-1.65-.29-.56.46-1.05,1-.77,1.84.32.97.06,1.84-.43,2.68-.41.69-.6,1.42-.26,2.21.38.89-.06,1.32-.85,1.61-1.78.65-3.61.29-5.42.34-1.03.03-1.61.38-1.94,1.4-.49,1.52-1.09,3-1.69,4.47-.96,2.36-1.31,2.48-3.67,1.37-1.77-.83-3.23-.21-3.77,1.7-.19.67-.36,1.28-.94,1.66-1.18.79-2.21.15-3.23-.4-.44-.24-.62-.61-.44-1.11.43-1.19,1.45-.7,2.27-.8.16-.02.33,0,.5,0,.41-.04,1,.13,1.01-.53,0-.64-.52-.8-1.05-.77-.43.02-.88.07-1.28.23-1.32.5-2.69.81-4.02,1.31-1.19.45-1.35.81-.56,1.65,1.13,1.21.52,2.28-.33,3.18-.62.66-1.48,1.14-2.31,1.56-1.46.73-2.43.17-2.63-1.44-.27-2.07-1.29-3.2-2.88-3.18-1.75.02-2.86,1.15-3.07,3.2-.06.56-.03,1.19-.48,1.53-1.98,1.47-3.91,3.13-6.71,2.21-.98-.32-2.03-.51-3.06-.61-1.02-.1-2.24-.33-2.8.86-.72,1.52-2.04,1.84-3.48,2.07-1.35.21-2.72.39-4.05.7-2,.46-4.38.99-5.02,2.99-.86,2.71-2.55,3.48-4.99,3.62-1.92.12-3.53.75-4.3,2.7-.06.15-.18.28-.28.4-1.78,2.17-3.48,2.33-5.51.46-.61-.56-1.16-.68-1.94-.4-1.51.55-2.23,1.88-1.78,4.42.27,1.52-.42,2.24-1.55,2.62-2.39.79-4.54,1.78-6.38,3.63-1.49,1.5-1.69,1.48-.15,3.13.34.36.71.7,1.05,1.06,1.7,1.78,2.83,3.78,2.66,6.34-.09,1.42.56,2.67,1.08,3.94.31.76.9,1.42.91,2.28.06,3.58,1.53,5.94,5.32,6.57.89.15,1.33.98.47,1.89-.64.68-1.2,1.43-1.81,2.14-.27.32-.41.67-.28,1.06.16.48.59.43.97.43,1.49,0,2.99.06,4.48-.01,1.21-.06,2.17.21,2.78,1.33.38.7,1.04.93,1.79,1,2.95.29,3.08.46,3.85,3.23.7,2.51,1.94,4.47,4.89,4.89,2.93.43,5.01,1.89,5.16,5.22.05,1.06.55,2.02,1.48,2.64,2.37,1.58,4.74,3.14,6.99,4.9,1.16.91,2.65,1.27,3.26,2.9.32.87,1.42.97,2.3,1.03.64.05,1.27.06,1.49.78.62,2.03,2.46,3.02,3.72,4.51,1.45,1.72,3.3,1.98,5.24,1.56,1.13-.24,1.94-.06,2.69.7.44.44.91.84,1.5,1,.7.19.64.42.37,1.04-.62,1.4-1.26,2.81-1.27,4.4-.04,3.04-.99,5.49-4.12,6.64-1.48.54-1.51,1.62-.79,2.78.46.74.79,1.51.55,2.34-.57,1.98-.94,4.03-2.77,5.46-1.21.94-1.69,2.25-1.28,3.97.33,1.35.61,2.8.45,4.24.06,1.39-.6,2.54-1.21,3.71-.4.76-.61,1.54-.34,2.37.17.51.35,1.15,1.03,1.14.69,0,1.11-.51,1.16-1.18.05-.69.2-1.31.65-1.83,4.46-5.13,7.67-11.15,11.8-16.52,2.47-3.21,4.8-6.52,7.47-9.57,1.62-1.77,3.1-3.7,5.49-4.58,1.24-.46,2.31-.77,3.1.69.23.42.62.79,1.14.9,1.44.32,2.61,1.14,3.79,1.95,1.41.96,2.98,1.05,4.37.13,1.65-1.1,3.42-1.2,5.24-1.05,3.76.32,3.76.36,4.07-3.46.1-1.21.56-1.88,1.95-1.9,1.86-.03,3.07.7,3.66,2.45.21.62.52,1.2,1.21,1.16.75-.05,1.13-.64,1.13-1.39,0-.58.36-1.03.51-1.55.52-1.83,2.4-2.13,3.52-3.25,1.9-1.91,4.17-2.97,6.63-3.87,3.15-1.15,6.34-2.2,9.32-3.79,1.09-.58,2.29-.36,3.42-.25,1.09.11,1.68,1.55.86,2.27-1.58,1.38-.45,2.06.44,2.96,2.74,2.77,2.31,5.59-1.1,7.44-.97.53-1.97.97-3.07,1.2-.47.1-.99.28-1.34.59-1.43,1.29-3.11,1.54-4.93,1.38-1.3-.11-2.64.05-3.61.9-1.17,1.03-2.4,1.29-3.82.97-1.13-.25-1.29.24-.97,1.15.19.55.82,1.21.16,1.64-1.22.8-1.65,1.97-2.03,3.24-.14.47-.56.59-1.02.72-3.46.95-6.84,2.12-10.54,2.05-2.44-.04-4.89.56-7.32.99-.72.12-1.55.26-2.03.99-.91,1.37-2.28,2.05-3.8,2.47-.75.2-1.41.57-1.67,1.24-1.33,3.43-3.6,6.23-5.77,9.11-1.57,2.08-3.74,3.23-6.14,3.93-1.58.46-2.17-.07-2.16-1.68,0-1.04-.11-2.07.2-3.12.21-.68-.14-1.57-.93-1.35-1.17.32-1.84-.12-2.6-.83-.48-.45-1.13-.28-1.73-.05-.72.27-1.44.61-2.19.7-1.67.22-2.67,1.27-3.44,2.57-.52.89-1.12,1.6-2.06,2.06-1.3.65-1.23,1.45-.52,2.67,1.08,1.86,2.12,3.57,4.56,3.7.15,0,.31.14.42.25,1.97,2.12,4.94,1.85,7.37,2.88,1.51.64,2.53,1.25,3.15,2.57.59,1.27,1.13,1.59,2.31.57,2.14-1.83,4.5-2.97,7.4-1.69.33.14.8.16,1.14.04,2.84-.91,5.72.14,8.6-.23,1.63-.21,3.37.52,5.05.49,3.86-.06,7.58-1.45,11.47-1.44.97,0,1.78-.41,2.51-1.07.58-.52,1.29-.72,2.12-.73,3.7-.05,6.91-1.74,9.73-3.81,1.87-1.37,3.87-2.91,4.9-5.24.37-.84,1.21-1.38,2.1-1.8,2.74-1.29,5.78-2.14,7.27-5.25.39-.81,1.53-1.18,2.41-1.33,4.13-.7,6.02-3.79,7.6-7.08,1.2-2.51,2.41-4.95,4.49-6.85,1.65-1.51,3.54-2.75,5.08-4.39.42-.44,1.02-.75,1.65-.64,3.29.57,5.39-1.63,7.73-3.26.88-.62,1.68-1.07,2.56-.04.78.92.68,2.12-.36,2.85-.79.55-1.43,1.17-1.96,1.97-.35.54-.76,1.11-1.55,1.09-.03-.76.41-1.36.71-2,.27-.56.55-1.16,0-1.67-.61-.57-1.25-.2-1.82.14-.7.42-1.14,1.24-1.99,1.44-1.63.39-2.59,1.59-3.54,2.82-.71.92-1.43,1.91-2.61,2.2-4.1,1.01-5.68,4.17-6.84,7.73-.16.49-.22.98-.02,1.46.46,1.13.08,2.01-.67,2.87-.65.74-1.16,1.61-1.83,2.33-2.18,2.34-3.84,5.31-7.33,6.11-.72.17-1.32.75-1.61,1.37-1.11,2.31-3.25,3.16-5.4,4.01-1.35.53-2.51,1.27-3.63,2.22-1.81,1.53-3.89,2.74-6.2,3.33-1,.26-2.11.23-3.01.79-3.18,1.98-6.76,2.02-10.31,2.28-1.42.1-2.89.1-4.2.68-1.57.69-3.07,1.24-4.85,1.4-5.63.53-11.21.23-16.79-.4-2.5-.28-4.83-.38-7.14,1-1.9,1.13-4.15.26-5.12-1.64-.21-.41-.46-.89-.88-.91-1.98-.11-3.73-1.39-5.79-1.13-.59.08-1.31.18-1.76-.26-1.25-1.24-2.94-1.63-4.41-2.44-2.02-1.11-3.95-2.4-6.28-2.85-1.59-.3-3-1.16-4.24-2.12-2.54-1.97-5.45-3.01-8.45-3.9-3-.89-5.99-1.8-9.02-2.6-1.22-.32-1.49-1.62-2.67-2.09-2.55-1.01-5.21-1.69-7.77-2.65-1.78-.67-3.82-.86-5.39-1.67-1.81-.93-3.43-2.22-5.51-2.67-1.59-.35-2.76-1.75-4.25-2.12-2.37-.58-4.18-2.18-6.07-3.37-2.58-1.62-4.87-3.91-6.79-6.45-.98-1.3-2.11-2.69-3.66-3.29-2.44-.93-3.65-2.71-4.28-5.06-.39-1.45-1.26-2.44-2.75-2.78-1.39-.32-2.27-1.1-2.95-2.38-1.08-1.99-3.01-2.65-5.04-1.88-.72.28-1.16-.05-1.65-.38-1.09-.75-2.21-1.43-3.49-1.86-1.21-.41-2.29-.78-3.24.5-.37.49-1.06.52-1.48.06-.93-1.03-1.85-.72-2.8-.12-.78.5-1.35.3-2.05-.28-.78-.65-1.65-1.58-2.76-1.28-1.96.53-3.67-.06-5.42-.72-.85-.32-1.67-.26-2.58-.08-.92.18-1.83.44-2.9.21-3.91-.82-7.85-1.74-11.83-2.01-4.69-.32-9.23-1.15-13.77-2.22-1.91-.45-3.91-.51-5.85-.85-3.24-.56-6.45-1.26-9.7-1.73-1.49-.22-2.97-.08-4.43-.36-5.07-.96-10.22-1.3-15.33-1.95-2.96-.38-5.93-.05-8.89-.52-1.44-.23-3.05-.47-4.51.26-.33,0-.66-.01-.98-.02-.64-1.16-1.49-.69-2.33-.3-.22,0-.43-.02-.65-.03-.77-.79-3.94-1.18-5.32-.64-.22,0-.43-.02-.65-.02-.05-.37-.25-.65-.64-.62-1.5.14-2.94-.38-4.43-.36-4.46.07-8.89-.38-13.34-.59-5.6-.26-11.19-.82-16.81-.74-.6,0-1.21-.03-1.81-.12-2.3-.33-4.59-.16-6.9-.03-4.17.23-8.42.72-12.51-.26m5.67-87.01c.93-.07,1.26-.68,1.35-1.57.11-1.08.28-2.18.58-3.22.66-2.33,1.24-2.37,3.41-1.32,2.28,1.11,4.57,2.28,7.28,2.21,1.36-.03,2.59-.68,3.86-.65,2.02.06,4.02.48,6.03.74,2.01.26,4.02.64,6.07.51,2.36-.15,2.94-1.07,2.35-3.37-.25-.97-.88-1.32-1.66-1.62-.98-.37-2-.65-2.92-1.13-.48-.25-1.4-.86.06-1.2.66-.15.94-.56.64-1.22-.7-1.58-3.46-3.06-5.17-2.64-1.49.37-2.65.02-3.75-1-.91-.85-1.92-1.26-3.31-.91m98.5,38.87c-.08-.4-.35-.58-.7-.57-.43.01-.72.26-.76.7-.03.43.26.6.62.5.35-.09.75-.18.84-.63Z"/>
    <path class="cls-2" d="m46.06,123.46c.44-.05.9-.07,1.32.01,4.11.82,8.23,1.1,12.39.43.35-.06.76.11,1.11.25.86.34,1.68.24,2.58.07,2.96-.59,5.94-1.19,8.97-.44,1.52.38,3.02.46,4.56.05.78-.21,1.55-.05,2.31.53,2.47,1.88,5.52,1.97,8.32,1.7,2.7-.26,5.23-.55,7.92.18,2.31.63,4.7,1.3,7.13,1.13,2.25-.16,4.34.22,6.44.9,2.08.67,4.29,1.07,6.4,1.34,4.79.62,9.64.86,14.49.79.44,0,.89,0,1.32.09,2.86.56,5.74,1.02,8.67.89,1.3-.05,2.48.28,3.69.72,1.9.68,3.78,1.93,5.84,1.54,3.48-.66,6.75,1.14,10.18.56.09-.02.2.09.31.1,2.79.37,5.31,2.2,8.32,1.44.4-.1.96.22,1.38.47,1.62.94,3.4,1.01,5.15.75,2.99-.44,5.9-.52,8.77.66,2.01.83,3.89.55,5.48-1.03.43-.42.78-.92,1.16-1.38.82-.98,1.54-1.19,2.24.16.4.78.94,1.6,1.95,1.6,1.33,0,2.63.3,3.94.34,1.25.03,2.23.13,2.19,1.7-.01.46.32.75.7.82,1.73.31,3.33,1.17,5.13,1.17,1.3,0,2.58-.14,3.73.88.66.58,1.67.85,2.57,1.06,1.48.35,1.82-.06,1.52-1.57-.15-.75-.2-1.54-.44-2.26-.52-1.55-1.18-2.99-3.13-3.2-.89-.1-1.44-.65-1.8-1.49-.79-1.86-2.72-2.88-3.59-4.7-.15-.3-.57-.35-.9-.3-1.98.3-2.87-.84-3.57-2.47-.61-1.41-1.63-2.66-3.36-2.47-2.39.26-3.39-1.38-4.26-2.99-1.06-1.98-1.39-2.31-3.67-1.99-.71.1-1.44.14-2.11.36-1.47.5-1.99-.05-2.13-1.51-.19-1.98-1.17-2.54-3.09-1.85-.72.26-1.42.61-2.11.96-1.2.59-2.1.61-2.47-.97-.17-.7-.57-1.56-1.44-1.27-2.01.68-4.24.43-6.14,1.7-1.79,1.19-3.65,2.42-6.1,1.62-.92-.3-2.01-.23-3.05-.22-.9.01-2.14.26-2.96-.61-2.3-2.42-5.17-3.46-8.38-2.81-2.33.47-4.08-.13-5.74-1.59-1.21-1.07-2.56-1.7-4.22-1.45-2.49.37-4.76-.28-6.63-1.87-1.21-1.03-2.59-1.65-3.94-2.39-2.73-1.49-5.79-2.41-8.07-4.68-1-.99-2.15-1.31-3.59-1.03-1.34.26-2.74.72-4.08-.42-.73-.62-1.22.27-1.65.86-1.15,1.59-2.78,2.35-4.59,1.58-2.47-1.05-4.98-.93-7.53-1.04-1.47-.06-2.91-.35-4.4.02-.75.19-1.47-.06-2.07-.72-2.13-2.35-3.81-5.6-7.95-4.29-.17.05-.42-.2-.62-.18-1.18.08-2.54-.65-3.48.06-1.32.99-1.62.08-2.06-.72-.23-.42-.32-.94-.37-1.43-.12-1.09-.7-1.05-1.51-.72-1.75.71-2.62,1.98-2.97,3.83-.48,2.52-1,2.62-3.03.9-.52-.44-.86-.99-1.12-1.61-.9-2.13-2.39-2.71-4.47-1.72-.35.17-.69.45-1.07.31-2.05-.8-4.29-1.35-5.91-2.83-1.51-1.39-2.62-3.22-3.9-4.86-.25-.33-.31-.92-.9-.8-.59.13-.98.56-1,1.16-.05,1.21-.46,2.36-.39,3.6.05.86-.34,1.83-1.21,1.94-.9.11-1.28-.88-1.62-1.63-.09-.19-.12-.43-.11-.64.04-1.31-.59-2.14-1.75-2.74-1.51-.78-2.56-1.9-2.25-3.81.15-.95-.13-1.86-.36-2.76-.16-.64-.34-1.3-1.15-1.46-.83-.16-1.44.24-1.82.87-.71,1.16-1.62,2.25-1.64,3.72-.02,1.49-1.3,1.1-2.07,1.29-.64.16-1.6.01-1.82-.75-.27-.97.81-1.14,1.39-1.57.17-.13.4-.2.61-.25.56-.13.87-.44.87-1.03,0-.69-.49-1.03-1.03-1.13-1.2-.23-2.55-.16-3.42.6-1.04.9-2.18,1.38-3.4,1.89-1.43.6-2.13.16-2.38-1.21-.22-1.19-.83-2.05-1.9-2.53-1.4-.63-1.96-1.64-1.8-3.16.11-1.01-.16-1.95-.85-2.76-.69-.81-1.6-.74-2.45-.53-.86.21-.65,1.04-.66,1.67,0,.83.04,1.65-.43,2.4-1.15,1.85-1.24,3.88-.93,5.97.26,1.74-.53,3.69-1.64,4.1m28.52-45.05c.19-1.01.84-1.31,1.79-1.31.98,0,1.16.61,1.27,1.39.17,1.24.44,2.48.58,3.72.22,1.83,1.99,3.07,3.66,2.57.99-.3,1.22-.85.76-1.73-.26-.49-.55-.95-.82-1.43-.49-.9-.23-1.45.66-2.02,2.15-1.36,4.72-1.41,6.97-2.43.56-.25,1.29-.04,1.94.19,2.13.75,2.36,1.76.7,3.26-1.49,1.34-1.34,4.84.24,5.52,1.3.56,3.13-.02,3.79-1.45.64-1.37,1.58-2.47,2.54-3.58.82-.94,1.67-.93,2.29.1.58.95,1.43,1.51,2.29,2.09,1.05.72,1.96.48,2.4-.68.95-2.5,2.69-3.63,5.35-3.53,1.03.04,1.74-.68,2.33-1.42,1.18-1.49,2.81-2.05,4.42-1.39,1.65.68,2.32,2.51,2.57,4.17.38,2.48.57,2.71,2.96,3,2.77.34,5.52.87,8.26,1.43,1.95.4,3.85.2,5.7-.33,1.13-.32,1.14-1.53,1.36-2.47.34-1.52,1.53-2.28,3.2-1.95,1.33.26,2.11,1.63,1.78,3.07-.08.35-.2.68-.54.78-1.52.45-2,1.6-1.7,2.96.32,1.45,1.25,2.42,2.86,2.8,3.81.89,7.48,2.27,11.45,2.68,3.27.35,6.37,1.7,9.16,3.57,1.04.7,2.08.75,3.29.34,2.84-.97,4.18.12,4.05,3.04-.04.92.21,1.84.3,2.77.08.9-.2,1.46-1.26,1.5-1.66.06-2.82.82-3.18,2.55-.27,1.29-.95,2.1-2.33,2.43-1.41.34-2.24,2.19-1.81,3.53.28.87,1,.75,1.64.73,1.06-.04,1.97-.38,2.26-1.53.08-.31.07-.67.02-.99-.24-1.63.54-2.22,2.08-2.11,1.6.12,2.2-.9,2.21-2.25.01-1.37.18-2.33,1.9-2.46,1-.07,1.49-1.07,1.75-2,.4-1.43,1.48-1.81,2.77-1.88,1.39-.08,2.32.57,2.81,1.85.1.26.12.55.26.78.36.59.39,1.54,1.26,1.59.81.05,1.2-.69,1.57-1.3.49-.81.93-.9,1.85-.43,2.16,1.11,3.76.52,4.96-1.56.81-1.42,2.28-1.92,3.65-1.85,1.92.09,3.82-.18,5.73-.11,1.35.05,2,.46,2.07,1.91.1,1.87,1.72,3.12,2.34,4.81.17.45.87.22,1.36.05,1.3-.45,2.6-.91,3.92-1.27,1.13-.31,2.29-.32,3.42.05,1.67.55,3.29.67,4.98-.07,1.19-.52,2.43,0,3.49.54,1.71.85,3,2.23,3.96,3.88.66,1.14.57,2.06-.81,2.66-1.41.62-2.73,1.53-4.16-.04-.46-.5-1.26-.38-1.81.14-.72.68-1.46,1.36-2.1,2.12-.47.55-.7,1.5.33,1.4,1.83-.17,2.77.93,3.71,2.04,1.06,1.26,2.03,1.17,3,.04.85-.99,1.64-1.09,2.89-.58,2.48,1.01,5.08,1.75,7.63,2.59,1.42.47,2.39,1.81,2.2,3.11-.29,2-.71,2.41-2.77,2.46-1.33.03-2.23.63-2.67,1.83-.61,1.67-1.71,1.84-3.14,1.13-.63-.32-1.24-.35-1.92-.15-1.08.31-2.19.31-3.27.02-1.4-.38-2.73-.11-4.07.23-.4.1-.91.23-.9.81,0,.46.36.64.72.82,1.23.62,2.44,1.28,3.8,1.61,1.92.46,2.27,1.41,1.18,3.1-1.15,1.77-2.77,3.02-4.7,3.75-1.09.41-1.43.92-1.42,2.03,0,1.14-.21,2.29-1.18,3.13-.58.5-.68,1.27-.25,1.8.83,1.02,1.81,1.93,2.77,2.84.46.43.94.24,1.25-.26.26-.42.44-.89.7-1.32.43-.69.81-1.6,1.82-1.38,1.05.23,1.72,1.02,1.86,2.1.1.76.03,1.54.04,2.31,0,.41.08.82.5.96.48.15.7-.21.8-.61.29-1.08,1.08-1.25,2.05-1.23,1.04.03,2.07-.03,3.12-.26,1.33-.29,2.46.04,3.57,1.11,3.12,3.02,5.29,6.72,7.74,10.22.66.95,1.46,1.8,2.52,1.46,1.77-.56,2.64.39,3.24,1.62.73,1.49,1.87,2.53,3.03,3.62,1,.94,1.24,2.02.55,3.28-.62,1.12-.74,2.24.03,3.42.45.68.61,1.51.74,2.34.25,1.62,1.22,2.22,2.85,1.88,2.19-.46,4.14-.34,5.95,1.36,1,.94,1.38,1.58.65,2.74-.17.27-.31.65.13.83.32.13.49-.18.63-.41.2-.33.33-.7.55-1.02.55-.78,1.16-.97,1.89-.18.45.49.94.93,1.4,1.41.88.91,1.7,1.71,2.72.09.39-.61.86-.47,1.18.28.64,1.53-.2,3.09-1.85,3.29-.49.06-1.01.02-1.47.17-.59.2-1.46.15-1.62.93-.16.79.67.9,1.17,1.18.71.39,1.46.7,2.01-.23.51-.84.82-.7,1.44,0,1.44,1.65,3.03,3.16,4.57,4.73.15.16.33.3.47.47,1.13,1.43,1.95,2.89,4.16,3.43,1.6.4,2.28,2.85,2.9,4.58.46,1.29.75,2.78.29,4.21-.27.85-.29,1.61.84,1.68,1.1.07,2.31.17,2.61-1.33.14-.71-.13-1.41-.26-2.11-.17-.87.11-1.71,1.19-1.43,3.53.91,6.78,2.47,9.67,4.72.37.29.87.66.57,1.23-.25.46-.78.57-1.29.6-1.09.07-2.62-.34-2.4,1.52.21,1.73,2.45,3.12,3.97,2.68.31-.09.6-.29.91-.4.7-.25,1.35-.24,1.56.64.22.92-.31,1.82-1.09,1.67-3.58-.71-7.46.79-10.8-1.23-1.82-1.1-3.67-1.98-5.69-2.52-1.42-.38-2.81-.58-3.51-2.28-.38-.93-1.74-.92-2.68-1.01-1.91-.2-3.64-.68-5.17-1.89-.5-.39-1.19-.58-1.83-.74-2.96-.75-5.61-1.93-7.24-4.72-.36-.62-.99-1.22-1.78-.94-1.44.51-1.98-.48-2.62-1.36-1.51-2.1-3.08-4.1-5.58-5.16-.89-.38-1.4-1.21-1.96-2.08-1.8-2.8-2.99-6.1-6.29-7.76-1.69-.85-2.85-2.51-4.76-3.19-.94-.33-1.8-.79-2.82-.68-2.36.25-4.11-1.43-6.25-1.93-2.67-.63-4.97-2.59-7.98-2.12-.51.08-1.17-.31-1.67-.62-1.59-.98-2.94-.87-3.94.73-.83,1.32-1.75,1.5-3.05.95-.56-.23-1.2-.56-1.76-.27-2.36,1.25-4.61.11-6.91-.18-3.91-.49-7.69-1.96-11.73-1.55-.73.07-1.4-.29-2.06-.54-1.81-.68-3.66-1.26-5.62-1.1-4.03.34-7.84-.51-11.58-1.93-2.11-.8-4.34-1.1-6.64-1.08-3.64.03-7.2-.83-10.74-1.49-2.21-.42-4.34-.23-6.5-.32-5.32-.21-10.64-.4-15.95-.67-3.75-.19-7.12-1.78-10.79-2.05-1.65-.12-3.31-.21-4.95.05-1.87.29-3.73.02-5.58.04-3.48.04-6.48-1.71-9.78-2.16-3.85-.53-7.71-.76-11.65-.49-3.31.23-6.64.84-10.03.26-1.97-.34-4.07-.38-6.08.14-.94.24-1.85-.08-2.77-.09m15.82-101.32c1.39-.34,2.39.07,3.31.91,1.1,1.02,2.26,1.37,3.75,1,1.71-.42,4.46,1.06,5.17,2.64.3.67.02,1.07-.64,1.22-1.45.34-.54.95-.06,1.2.92.48,1.95.75,2.92,1.13.78.3,1.41.65,1.66,1.62.59,2.3,0,3.22-2.35,3.37-2.05.13-4.05-.25-6.07-.51-2.01-.26-4.02-.69-6.03-.74-1.27-.04-2.5.62-3.86.65-2.71.06-5.01-1.11-7.28-2.21-2.17-1.05-2.75-1.01-3.41,1.32-.3,1.05-.47,2.14-.58,3.22-.09.89-.42,1.5-1.35,1.57m91.28,56.74c.28,1.42.87,2.42,1.4,3.45.9,1.74,1.51,1.83,2.97.48,1.6-1.49,2.98-1.19,3.8.83.17.41.3.83.47,1.23.53,1.23,1.24,1.65,2.37.6.57-.53,1.34-1.08,2.08-.56,1.65,1.18,3.97,1.57,4.71,3.86.06.19.29.33.45.48.33.33.7.58,1.17.28.52-.33.3-.75.09-1.15-.39-.78-.58-1.57.13-2.28.74-.73,1.38-1.62,2.41-1.97,1.72-.58,2.87-1.76,3.73-3.3.37-.67.75-1.35,1.19-1.98.76-1.08,1.95-1.35,2.66-.65,1.47,1.43,2.1,1.59,3.51.29,1-.92,2.09-1.4,3.34-1.63.77-.15,1.4-.38,1.57-1.21.17-.81-.24-1.32-.87-1.8-1.37-1.04-1.37-1.53-.19-2.75,1.38-1.42,1.21-2.13-.65-2.96-.91-.41-1.89-.5-2.74-.14-1.89.8-3.61.46-5.42-.26-2.21-.87-3.69.05-3.94,2.34-.11,1.02.38,1.98.96,2.75.67.9.54,1.52-.32,2.01-.89.52-1.83.53-2.5-.38-.49-.66-.85-1.41-1.29-2.11-.34-.54-.78-.96-1.49-.82-1.02.2-2.18.2-3.02.7-1.93,1.15-3.63.77-5.37-.26-.61-.36-1.16-.49-1.84-.07-1.81,1.12-1.85,1.11-2.85-.88-.49-.98-1.14-1.67-2.3-1.46-1.58.29-2.94,1.12-3.13,2.76-.27,2.29.48,4.71-1.1,6.54Z"/>
    <path class="cls-6" d="m18.46,89.35c1.1-.41,1.9-2.36,1.64-4.1"/>
    <path class="cls-6" d="m21.45,76.87c0-.64-.2-1.46.66-1.67.85-.21,1.75-.28,2.45.53.69.81.95,1.75.85,2.76-.16,1.52.4,2.53,1.8,3.16,1.07.48,1.68,1.34,1.9,2.53.25,1.37.94,1.81,2.38,1.21,1.22-.51,2.36-.98,3.4-1.89.88-.76,2.22-.83,3.42-.6.53.1,1.03.44,1.03,1.13,0,.59-.32.9-.87,1.03-.21.05-.44.12-.61.25-.58.43-1.66.6-1.39,1.57.21.76,1.17.91,1.82.75.77-.19,2.05.2,2.07-1.29.02-1.47.92-2.56,1.64-3.72.39-.63,1-1.03,1.82-.87.81.15.99.82,1.15,1.46.23.9.51,1.82.36,2.76-.31,1.9.74,3.02,2.25,3.81,1.15.6,1.78,1.43,1.75,2.74,0,.21.02.45.11.64.34.75.73,1.74,1.62,1.63.87-.1,1.26-1.08,1.21-1.94-.07-1.23.34-2.39.39-3.6.03-.6.41-1.04,1-1.16.59-.12.65.47.9.8,1.28,1.64,2.39,3.47,3.9,4.86,1.62,1.48,3.86,2.04,5.91,2.83.38.15.72-.14,1.07-.31,2.08-.99,3.57-.41,4.47,1.72.26.62.61,1.17,1.12,1.61,2.03,1.72,2.56,1.62,3.03-.9.35-1.86,1.22-3.13,2.97-3.83.81-.33,1.39-.37,1.51.72.05.49.15,1,.37,1.43.44.8.74,1.71,2.06.72.94-.7,2.3.03,3.48-.06.2-.01.45.24.62.18,4.14-1.31,5.82,1.94,7.95,4.29.6.66,1.32.91,2.07.72,1.49-.37,2.92-.08,4.4-.02,2.56.11,5.06,0,7.53,1.04,1.81.77,3.44,0,4.59-1.58.43-.59.92-1.47,1.65-.86,1.34,1.14,2.73.68,4.08.42,1.44-.28,2.59.03,3.59,1.03,2.28,2.27,5.34,3.19,8.07,4.68,1.35.74,2.73,1.36,3.94,2.39,1.87,1.6,4.14,2.25,6.63,1.87,1.67-.25,3.02.38,4.22,1.45,1.65,1.46,3.41,2.06,5.74,1.59,3.21-.65,6.08.39,8.38,2.81.83.87,2.06.62,2.96.61,1.04-.01,2.13-.08,3.05.22,2.45.8,4.31-.43,6.1-1.62,1.9-1.27,4.13-1.01,6.14-1.7.86-.29,1.27.57,1.44,1.27.37,1.58,1.28,1.57,2.47.97.69-.34,1.38-.7,2.11-.96,1.91-.68,2.9-.13,3.09,1.85.14,1.45.66,2.01,2.13,1.51.67-.22,1.4-.26,2.11-.36,2.28-.32,2.61.01,3.67,1.99.86,1.61,1.86,3.25,4.26,2.99,1.73-.19,2.75,1.06,3.36,2.47.7,1.62,1.58,2.77,3.57,2.47.33-.05.76,0,.9.3.87,1.82,2.8,2.84,3.59,4.7.36.85.91,1.4,1.8,1.49,1.94.21,2.61,1.65,3.13,3.2.24.72.29,1.5.44,2.26.3,1.51-.04,1.92-1.52,1.57-.9-.21-1.91-.48-2.57-1.06-1.15-1.01-2.42-.88-3.73-.88-1.8,0-3.4-.86-5.13-1.17-.38-.07-.71-.35-.7-.82.03-1.57-.94-1.67-2.19-1.7-1.31-.03-2.61-.33-3.94-.34-1.01,0-1.54-.82-1.95-1.6-.7-1.35-1.42-1.14-2.24-.16-.39.46-.74.96-1.16,1.38-1.58,1.57-3.47,1.86-5.48,1.03-2.86-1.19-5.78-1.1-8.77-.66-1.75.25-3.53.19-5.15-.75-.42-.24-.98-.57-1.38-.47-3,.76-5.53-1.07-8.32-1.44-.11-.01-.22-.12-.31-.1-3.43.59-6.7-1.22-10.18-.56-2.06.39-3.94-.85-5.84-1.54-1.22-.44-2.39-.77-3.69-.72-2.93.12-5.8-.33-8.67-.89-.43-.08-.88-.09-1.32-.09-4.85.08-9.71-.16-14.49-.79-2.11-.27-4.32-.67-6.4-1.34-2.1-.68-4.2-1.06-6.44-.9-2.43.17-4.82-.5-7.13-1.13-2.68-.73-5.22-.45-7.92-.18-2.8.27-5.86.18-8.32-1.7-.76-.58-1.52-.74-2.31-.53-1.55.41-3.05.33-4.56-.05-3.03-.75-6.01-.15-8.97.44-.9.18-1.72.27-2.58-.07-.35-.14-.76-.31-1.11-.25-4.16.67-8.28.39-12.39-.43-.43-.08-.89-.06-1.32-.01"/>
    <path class="cls-9" d="m39.98,129.98c4.09.97,8.34.49,12.51.26,2.31-.13,4.6-.29,6.9.03.6.08,1.21.13,1.81.12,5.62-.08,11.21.49,16.81.74,4.45.21,8.88.66,13.34.59,1.49-.02,2.93.5,4.43.36.39-.04.58.25.64.62-4.49-.46-9.01-.1-13.52-.53-3.12-.3-6.27-.07-9.41-.38-6.93-.67-13.9-.15-20.84-.42"/>
    <path class="cls-2" d="m838.41,217c-2.56-.38-5.05-1.58-7.75-.55-.62.24-1.46.16-2.13-.03-3.06-.85-6.19-.84-9.32-.93-2.28-.07-4.56-.27-6.84-.3-1.38-.02-2.71-.43-4.1-.39-1.78.05-3.69.48-5.13-1.14-.09-.1-.31-.14-.47-.13-1.98.24-3.91-.24-5.87-.33-4.79-.22-9.47-1.17-14.15-2.03-4.22-.77-8.06-3.3-12.59-2.81-.05,0-.1-.04-.16-.05-2.97-.49-5.9-1.4-8.97-1.09-.81.08-1.39-.24-1.77-.95-.42-.79-1.1-1.28-1.97-1.34-2.5-.18-4.96-.28-7.47-.76-2.56-.49-5.43-.53-8.17-.27-.54.05-1.12,0-1.63-.16-4.23-1.32-8.42-2.78-12.72-3.89-.53-.14-1.31-.13-1.48-.88-.18-.81.61-1.09,1-1.59.37-.48,1.44-.52,1.12-1.41-.26-.71-1.09-.58-1.72-.72-.55-.12-1.06-.19-1.6.02-1.34.51-2.46.28-3.27-1.01-.28-.44-.79-.63-1.31-.6-2.16.12-4.27-.57-6.43-.35-1.12.11-2.22-.14-3.22-.58-.98-.42-1.86-.48-2.88-.16-2.09.67-4.09.61-5.99-.72-.85-.6-1.98-1.05-2.95-.65-1.4.59-2.72.25-4.03.02-1.66-.28-3.26-.32-4.91,0-2.03.4-4.1.9-6.12,0-1.91-.84-4.12-.79-5.54.22-1.95,1.38-4.22,1.57-6.15,2.68-1.09.63-2.19,1.02-3.39,1.15-2.51.28-4.76.92-6.73,2.72-1.69,1.54-3.84,2.73-6.06,3.17-3.34.66-6.94.18-9.83,2.54-.12.1-.32.09-.46.17-2.91,1.69-6.65,1.62-9.1,4.28-.18.2-.45.43-.69.44-2.36.11-4.62,1.32-6.92,1.11-1.69-.16-3.1.19-4.4.89-1.05.57-2.1.96-3.22,1.14-1.16.18-2.21.63-3.31.98-1.37.44-2.46,1.52-3.93,1.66-1.5.14-2.76.72-3.75,1.86-.3.35-.69.52-1.13.64-4.04,1.02-7.63,3.09-11.39,4.78-1.16.52-2.38,1.28-3.83.81-.49-.16-1.05.04-1.38.41-.68.76-1.32.3-1.91-.02-.59-.31-.81-.91-.57-1.57.62-1.66-.02-3.3-.29-4.86-.2-1.19-.15-2.79-1.36-3.6-1.84-1.24-2.27-2.19-.78-4.33,1.07-1.54,1.87-1.83,3.39-1.43,2.7.7,5.31.78,7.76-.92,1.43-.99,3.17-1.26,4.78-.86,3.06.77,5.83-.11,8.5-1.25,1.29-.55,2.81-1.02,3.62-2.43,1.16-2.01,1.62-2.09,3.6-.75,1.09.74,1.98.5,2.51-.71.22-.5.39-1.01.8-1.42,1.98-1.98,4.08-3.79,6.46-5.29,1.07-.67,1.58-1.65,1.16-3.12-.57-1.96.14-2.96,2.09-3.65.42-.15.86-.23,1.25-.43,1.1-.56,1.52-1.94.71-2.74-.77-.77-1.19-1.66-1.65-2.6-.36-.74-.95-1.57-2.01-1.47-.92.09-1.36.72-1.67,1.59-.48,1.33-3.85,2.92-5.41,2.49-1.06-.29-1.59.08-1.92.97-.38,1.04-1.1,1.75-2.05,2.28-.54.31-1.08.37-1.5-.12-.35-.42-.58-.87-.29-1.51.42-.94,1.1-1.64,1.8-2.35.49-.51.94-1,.74-1.87-.59-2.52.51-3.81,3.21-3.85,1.11-.02,2.21,0,3.32,0,.89,0,1.79-.46,1.56-1.27-.51-1.79-.18-3.52-.24-5.26-.07-1.91-.82-4.21-3.19-5.22-1.1-.47-1.69-1.53-1.46-2.87.23-1.3,1.06-1.79,2.28-1.99,1.22-.2,2.25-.84,3.08-1.8.72-.83,1.64-1.33,2.78-.87,1.35.55,2.64.4,4.03,0,1.54-.44,3.11-.67,4.3,1,.6.84,2.23.52,2.82-.39,1.19-1.82,3-2.02,4.46-.46.48.51.79,1.04-.26,1.26-.75.16-1.55.42-1.16,1.37.38.93,1.21.88,2.1.61,2.65-.82,5.31-1.53,7.93.19.32.21.86.13,1.3.13,2.35.03,4.68-.02,7.04.25,2.26.26,4.54.75,6.89.22,5.29-1.19,10.6-2.3,15.96-3.15,1.73-.28,3.33-.31,5.02.25,1.95.64,4,.88,5.91-.29.5-.31,1.07-.22,1.61-.25,3.51-.19,7.05.45,10.53-.6.89-.27,1.98-.22,2.95.12,2,.7,4.09.35,6.01-.02,2.27-.43,4.44-.31,6.68-.31,1.91,0,3.91.4,5.81-.32,2.65-1,5.32-1.06,8.1-.37,2.28.56,4.72,1.12,6.98.43,3.83-1.18,7.73-.42,11.56-.93,1.29-.17,2.29.84,3.53.68,2.62-.35,5.23-.68,7.52-2.19.87-.57,1.88-.82,2.75-.02.93.85,1.82.62,2.71.03.93-.62,1.88-1,3.02-1.2,2.39-.42,4.78-.29,7.17-.4,5.58-.26,11.12-1.4,16.74-1.2.55.02,1.13.07,1.65-.07,3.64-1.02,7.4-.85,11.1-1.22,2.43-.24,4.9-.13,7.32-.42,5.24-.64,10.49-1.05,15.76-1.21,3.76-.11,7.52-.35,11.3-.09"/>
    <path class="cls-2" d="m287.47,183.05c.16-1.44-.12-2.89-.45-4.24-.42-1.72.07-3.03,1.28-3.97,1.83-1.43,2.2-3.48,2.77-5.46.24-.83-.09-1.6-.55-2.34-.72-1.16-.69-2.24.79-2.78,3.13-1.15,4.09-3.6,4.12-6.64.02-1.59.66-3,1.27-4.4.27-.61.33-.85-.37-1.04-.59-.16-1.06-.56-1.5-1-.75-.76-1.56-.94-2.69-.7-1.95.41-3.8.16-5.24-1.56-1.25-1.49-3.1-2.48-3.72-4.51-.22-.71-.85-.73-1.49-.78-.88-.07-1.98-.16-2.3-1.03-.61-1.63-2.09-1.99-3.26-2.9-2.25-1.76-4.62-3.32-6.99-4.9-.93-.62-1.44-1.58-1.48-2.64-.15-3.33-2.22-4.79-5.16-5.22-2.95-.43-4.19-2.39-4.89-4.89-.77-2.77-.9-2.94-3.85-3.23-.75-.07-1.41-.3-1.79-1-.61-1.13-1.57-1.4-2.78-1.33-1.49.08-2.98.02-4.48.01-.38,0-.81.05-.97-.43-.13-.4.01-.75.28-1.06.61-.71,1.17-1.46,1.81-2.14.85-.92.41-1.74-.47-1.89-3.79-.63-5.26-2.99-5.32-6.57-.01-.86-.6-1.52-.91-2.28-.52-1.27-1.18-2.52-1.08-3.94.17-2.57-.96-4.57-2.66-6.34-.34-.36-.71-.69-1.05-1.06-1.53-1.65-1.34-1.63.15-3.13,1.83-1.85,3.99-2.84,6.38-3.63,1.12-.37,1.82-1.1,1.55-2.62-.45-2.54.27-3.87,1.78-4.42.78-.28,1.33-.16,1.94.4,2.04,1.87,3.73,1.71,5.51-.46.1-.13.22-.26.28-.4.78-1.95,2.38-2.58,4.3-2.7,2.44-.15,4.13-.91,4.99-3.62.63-2,3.02-2.54,5.02-2.99,1.33-.3,2.7-.48,4.05-.7,1.44-.23,2.76-.55,3.48-2.07.56-1.19,1.78-.96,2.8-.86,1.03.1,2.08.29,3.06.61,2.81.92,4.73-.74,6.71-2.21.45-.34.42-.97.48-1.53.21-2.06,1.32-3.18,3.07-3.2,1.59-.02,2.62,1.11,2.88,3.18.21,1.6,1.17,2.17,2.63,1.44.83-.41,1.69-.9,2.31-1.56.84-.89,1.46-1.97.33-3.18-.79-.84-.62-1.2.56-1.65,1.32-.5,2.7-.82,4.02-1.31.4-.15.85-.2,1.28-.23.53-.03,1.06.13,1.05.77,0,.66-.6.49-1.01.53-.16.02-.33-.01-.5,0-.81.1-1.84-.39-2.27.8-.18.5,0,.88.44,1.11,1.02.55,2.06,1.19,3.23.4.58-.39.75-.99.94-1.66.53-1.92,2-2.53,3.77-1.7,2.36,1.11,2.71.99,3.67-1.37.6-1.48,1.21-2.96,1.69-4.47.33-1.01.91-1.37,1.94-1.4,1.81-.05,3.64.31,5.42-.34.8-.29,1.24-.72.85-1.61-.34-.79-.15-1.51.26-2.21.49-.84.75-1.71.43-2.68-.28-.84.22-1.38.77-1.84.62-.51,1.2-.07,1.65.29,3.35,2.66,7.16,2.78,11.21,2.4,1.88-.18,3.8-.07,5.71-.24,1.01-.09,1.91.54,2.67,1.17.73.62,1.52,1.1,2.41,1.41.37.13.83.22.8.69-.09,1.86.84.95,1.41.48,1.4-1.15,2.25-1.14,3.35.4.82,1.16,1.35,2.51,2.5,3.46.76.62,1.46,1.21,2.5.68.09-.05.22-.06.33-.04,2.55.52,4.99.04,7.44-.65,1.09-.31,1.85.34,2.47,1.24,1.23,1.77,2.02,1.84,3.54.32.8-.79,1.63-1.44,2.74-1.76.92-.27,1.56-.86,2.05-1.77.91-1.69,2-1.66,2.95-.07.31.52.63,1.04,1.01,1.51,1.88,2.31,2.54,2.41,5.34,1.36,1.52-.57,2.78-1.14,3.75-2.66.91-1.44,2.84-1.28,4.4-1.08,1.04.14,2.08.27,3.12.23,1.91-.08,3.75-.02,5.31,1.33.38.33.95.49,1.41.3,1.74-.71,3.26.03,4.76.68,1.14.5,2.28.28,3.42.34.61.03,1.31-.07,1.64.54.73,1.34,1.88,1.5,3.23,1.48,1.18-.02,2.27.38,3.16,1.22.38.36.71.76.54,1.3-.35,1.1-.81,2.16.2,3.21.33.34-.11.8-.43.93-2.52,1-3.71,3.65-5.93,4.87-2.24,1.22-4.49,2.28-6.45,3.99-2.46,2.14-5.73,2.8-8.63,4.15-1.43.66-3.03.41-4.52.81-3.71,1-7.6,1.05-11.34,1.93-1.56.37-3.17-.16-4.7-.55-4.32-1.11-8.72-1.64-13.15-2.02-4.33-.37-8.66-.84-13.02-.65-.47.02-.89-.05-.99-.63,1.32-.13,2.64.03,3.96-.16,2.29-.33,4.59-.44,6.88.22,2.3.67,4.65.89,7.01.3,2.97-.74,5.92-.51,8.46,1.06,2.34,1.45,4.39,1.62,6.75.3,1.03-.58,2.22-.74,3.48-.52,1.09.19,2.43.52,3.19-.7.82-1.33,2.01-1.59,3.39-1.53.58.02,1.1-.15,1.56-.47,1.26-.87,2.35-1.72,4.19-1.28,1.85.44,1.9-2.4,3.66-2.66.68-.1,1.31-.57,1.93-.92.8-.45,1.43-1.13,1.56-2.04.16-1.1.73-1.72,1.67-2.26,1.45-.83,1.38-2.78-.05-3.66-1.86-1.14-3.79-1.17-5.6,0-1.01.65-1.7.65-2.63-.1-1.5-1.21-3.58-1.06-5.1.1-1.46,1.12-3.15,1.62-4.98,1.32-1.73-.28-3.43-.58-5.19-.3-1.15.18-2.14-.34-2.69-1.29-.76-1.31-2.05-1.98-3.08-2.96-.65-.62-1.23-.43-1.49.42-.29.94-.89,1.58-1.65,2.19-3.24,2.59-7.19,2.99-11.06,3.61-1.58.25-3.01.58-3.93,2.06-.6.95-1.4,1.69-2.55,1.97-.6.15-1.08.51-1.54.93-1.44,1.35-2.02,1.29-2.92-.51-1.52-3.06-3.84-5.47-6.18-7.89-.88-.9-1.68-.93-2.81-.5-1.8.68-2.75,2.36-4.32,3.29-.64.38-1.08,1.17-2.01.77-.95-.42-1.08-1.24-1.22-2.16-.22-1.36-.5-2.77-2.33-2.92-.7-.06-.92-.65-.92-1.19,0-1.68-1.24-2.53-2.3-3.45-.54-.47-1.32-.83-2.14-.41-.82.42-.94,1.17-.9,1.97.02.38.14.76.16,1.14.08,1.85,1.72,3.37,1.42,5.17-.38,2.35.1,4.4.9,6.55.75,1.99-.25,3.3-2.31,3.48-.52.04-.95.24-1.4.45-1.5.69-2.6.16-3.1-1.45-.23-.74-.11-1.79-1.21-1.93-1.14-.15-2.19.15-3,1.04-3.23,3.53-3.42,3.54-6.84.3-.08-.08-.16-.15-.24-.23-.92-.96-1.83-.88-2.68.08-.33.37-.55.81-.85,1.21-1.61,2.18-3.35,4.13-6.49,3.54-.49-.09-1-.02-1.44.26-1.78,1.13-3.69,1.96-5.72,2.53-.48.14-.83.47-1.11.93-.6.99-1.26,1.93-1.93,2.87-1.24,1.72-3.66,2.47-5.67,1.83-.7-.22-1.42-.77-2.19-.2-1.82,1.34-3.68,1.06-5.63.28-.85-.34-1.87-.26-2.72-.6-1.76-.69-3.6.5-5.34-.34-1.44-.69-2.68-.26-3.7.91-.93,1.07-2.08,1.73-3.41,2.24-1.05.4-2.43.48-2.99,1.61-1.37,2.77-4.02,3.46-6.61,4.15-2.4.64-2.51.63-2.22,2.98.06.49.03.99.02,1.49-.03,1.5.6,2.39,2.17,2.56,1.05.12,2.06.42,2.84,1.19,1.01,1,.88,1.82-.37,2.44-1,.5-2.13.56-3.07.2-3.45-1.34-7.77-1.23-9.63-5.41-.1-.24-.36-.43-.58-.58-.51-.35-.76-1.31-1.55-.96-.77.34-1.22,1.09-1.4,1.95-.16.8-.04,1.67.42,2.22,1.39,1.68,2.54,3.55,4.27,4.98,1.74,1.45,3.58,2.82,4.09,5.38.34,1.72,1.43,3.13,3.42,3.68,1.5.42,2.7,1.45,3.32,3,.2.5.46,1.06.86,1.39,2.22,1.8,4.14,3.8,5.93,6.08,1.52,1.93,4.13,2.99,6.19,4.53,2.63,1.97,4.45,3.81,3.4,6.88-.36,1.05-.01,1.98.96,2.57.99.6,2.18,1.43,3.19.47,1.69-1.61,3.21-.76,4.36.32,1.69,1.58,3.34,1.58,5.32.91,1.2-.41,2.22-.12,2.34,1.41.04.49.21.86.71,1,1.78.49,3.21,1.72,4.91,2.33,1.22.44,2.65,1.08,3.8.48,1.01-.54,1.92-1.1,3.09-1.29.91-.15,1.17-1.12,1.36-1.92.22-.91-.64-1.05-1.19-1.32-1.19-.58-2.32-1.29-3.6-1.66-1.87-.54-2.15-.4-2.44,1.43-.17,1.07-.95,1.48-1.84,1.62-.82.13-1.56-.31-1.95-1.02-.46-.84.24-1.42.73-2.01.39-.47.91-.52,1.47-.61,1-.16,1.26-.89.49-1.49-1.88-1.45-2.91-3.79-5.42-4.61-1.73-.57-2.88-2.09-3.1-3.98-.24-2.02-1.21-3.39-2.71-4.8-2.78-2.62-3.76-6.38-5.2-9.81-.25-.59-.24-1.47.75-1.73,1.24-.32,2.46-.48,3.75-.24,2.52.47,4.85,1.63,7.35,2.11,2.06.39,3.34,2.03,5.21,2.74,4.32,1.66,8.62,2.84,13.29,1.71.98-.24,2.08-.19,3.12.11.41.12.94.25,1.29.09,3.55-1.63,7.23-.5,10.86-.64,2.3-.09,4.55.37,6.89.15,2.71-.25,5.5-.4,8.25.17.63.13,1.34.11,1.97-.04,3.49-.86,6.71-2.3,9.8-4.18,1.85-1.13,2.77-3.15,4.65-4.12.94-.48,1.89-1.16,1.58-2.23-.32-1.1-1.4-1.64-2.63-1.61-2.61.05-4.72-1.13-6.73-2.55.14-.49.52-.53.78-.71.47-.33,1.29-.59.84-1.32-.46-.74-1.04-.23-1.51.2-.58.53-1.22.6-1.76.02-.74-.8-1.58-1.59-2.06-2.54-.8-1.59-1.89-1.94-3.52-1.51-1.44.38-3.17-.75-3.15-2.08.02-1.18-.38-1.61-1.49-2.07-2.27-.95-2.38-1.82-.82-3.31,1.16-1.11,2.24-2.24,3.73-2.89.83-.36.89-1.01.88-1.77,0-.58-.23-.85-.77-1.09-.76-.33-1.24-.1-1.75.43-.41.43-.76.98-1.46,1,.2-1.34,1.42-1.68,2.32-2.34,1.01.3,2.17.32,2.79,1.4-.42,1.11-.49,2.32-1.43,3.27-.64.64-.96,1.59-1.41,2.41-.19.34-.41.99-.13,1.04,1.76.28,2.57,2.33,3.73,2.59,1.75.39,2.38,1.2,2.92,2.57.53,1.33,1.37,1.05,2.19.33.36-.32.64-.77.83-1.22.28-.68.5-1.49,1.38-1.36.81.12,1.53.89,1.49,1.59-.1,2.12,1.25,3.49,2.19,5.11.46.8.99,1.49,1.8,1.85,1.44.65,2.87,1.38,4.58.71.99-.39,1.76.18,2.46.92.81.85,0,1.41-.24,2.06-.37.98-.89,1.9-1.19,2.89-.16.51-.4,1.27.36,1.59.62.26,1.2,0,1.62-.51.39-.46.75-.94,1.13-1.42,1.39-1.75,2.78-1.71,4.15.1.7.93,1.43,1.95,2.63,2.17,2.2.4,3.68,1.89,5.26,3.21,1.53,1.27,1.82,3.05.95,4.93-.95,2.05-1.7,2.47-4.05,2.15-.54-.07-1.07-.34-1.57.06-1.01.81-2.21,1.22-3.4,1.67-1.22.46-1.9,1.45-2.1,2.59-.36,2.04-.51,4.08-.26,6.2.3,2.46.91,3.54,3.75,4,2.36.39,3.61-.09,4.93-1.64.32-.38.54-.88.93-1.14,1.02-.67,1.87-2.14,3.4-1.01.52.38.98.74,1.63.4.68-.36.89-.99.77-1.68-.33-1.88.49-3.34,1.7-4.6.68-.71.68-1.32.19-2.05-.73-1.09-.69-2.15,0-3.25.39-.62.61-1.3.29-2.04-.18-.42-.82-.81-.26-1.28.44-.36,1.07-.27,1.58-.03.45.21.78.57.77,1.16-.03,2.52,1.87,3.65,4.1,2.45.78-.42,1.57-.83,2.27-1.35,1-.74,1.88-.44,2.72.2,2.22,1.7,2.61,5.39.83,7.55-1.56,1.9-1.69,3.7-.6,5.75,1.43,2.68,1.85,5.92,4.47,7.94.2.15.25.48.38.73.61,1.11,1.34,1.61,2.8,1.36,2.34-.41,4.69.29,7.04.43.94.06,1.37,1.12,2.34,1.12,1.71-.01,3.43.1,5.14-.03,2.51-.19,4.19-1.94,3.61-3.69-.66-2.02-1.76-3.78-3.64-4.93-.31-.19-.83-.24-.75-.74.07-.45.53-.49.9-.6,1.21-.33,2.24-.73,1.63-2.37-.2-.55-.05-1.19.63-1.55.61-.33,1.08-.34,1.66.1.56.43,1.21.82,1.94.87,1.96.12,3.82,1.03,5.85.71.66-.1,1.37.18,1.69.82.31.63-.15,1.17-.55,1.62-.56.64-1.08,1.31-.96,2.2.45,3.57-1.56,5.53-4.51,6.83-1.2.53-1.86,1.44-2.48,2.52-.85,1.49-1.29,3.29-2.96,4.21,0-.58.36-1.02.58-1.52.49-1.12-.1-2.15-1.13-1.73-2.49,1.03-5.03,1.67-7.69,1.92-.49.05-.83.47-.44,1.11,1.3,2.18,5.66,2.87,7.55,1.16.33-.3.62-.63,1.12-.61-.77,2.3-2.34,3.19-4.63,2.65-.75-.18-1.43-.46-2.12-.83-1.48-.8-4.69-.8-5.09.07-.59,1.28-1.26.92-1.94.29-.87-.8-1.9-1.44-2.48-2.52.62-.08,1.19.19,1.78.28,1.05.16,2.17-.76,1.74-1.35-.61-.84-.97-1.9-2.22-2.29-2.66-.83-5.29-1.74-7.79-3.01-1.02-.52-1.53-1.25-1.85-2.35-.65-2.26-1.01-4.59-1.47-6.87-.41-2.07-1.32-4.07-1.18-6.28.1-1.6.26-3.16.66-4.71.16-.62.01-1.2-.54-1.62-.25-.19-.6-.28-.74-.03-.76,1.34-2.54,2.09-2.84,3.48-.36,1.7-1.06,3.23-1.66,4.79-1.11,2.89-2.42,5.73-4.8,7.9-1.8,1.64-1.99,4.09-2.95,6.16-.16.36-.04.88.04,1.31.45,2.48.27,2.9-1.94,4.04-1.14.59-2.04,1.36-2.09,2.73-.04,1.04-.01,2.08-.31,3.1-.11.38-.21.92.25,1.21.45.28.83-.11,1.22-.29.88-.42,1.45-1.35,2.48-1.53-.1.25-.15.53-.3.75-2.51,3.78-6.24,6.56-8.63,10.45-.25.4-.67.7-1.02,1.04-.88-1.05-1.75-.37-2.64-.01-2.13.85-4.39,1.24-6.5,2.23-2.85,1.34-4.96,3.83-8.01,4.8-1.14.36-2.2,1-3.25,1.59-1.19.66-.94,1.17.12,1.84,1.91,1.2,3.89,1.41,6.01.81-.07.71-.66.76-1.16.99-1.31.61-2.6.07-3.9,0-5.45-.3-10.71.66-15.89,2.27-.83.26-1.69.53-2.6.4.28-1.12,1.34-1.05,2.12-1.26.96-.26,1.67-.79,2.37-1.41.29-.26.59-.58.38-1-.21-.43-.67-.66-1.1-.58-2.09.39-4.27.39-6.21,1.48-4.61,2.59-8.74,5.76-11.82,10.09-1.99,2.8-4.17,5.45-5.91,8.46-.84,1.46-1.36,2.81-1.38,4.4-.01,1.33.68,1.66,1.8.91,1.54-1.04,2.51-2.54,2.78-4.34.6-3.94,3.55-5.97,6.36-8.15-.1,1.02-.82,1.65-1.49,2.3-.55.53-.68,1.17-.36,1.81.35.7.98.53,1.59.34.7-.21,1.52-.41,2.03.19,1.53,1.79,2.98,1.2,4.64.18,1.01-.62,2.24-.9,3.39-1.28,1.01-.33,1.9-.78,2.67-1.56,1.32-1.33,2.16-1.36,3.53-.03.93.9,1.77.83,2.61.09.95-.83,2.43-1.66,2.44-2.8.02-2.73,2.05-4.32,2.96-6.48.76-1.79,1.7-2.39,3.4-2.37.82.01,1.81-.22,2.27.61.48.88-.05,1.71-.7,2.37-.53.53-.44.95.09,1.37.86.69,1.77.74,2.79.33.94-.38,1.9-.64,1.96-1.91.06-1.15.75-1.93,1.71-2.46,1.75-.97,3.29-2.17,4.74-3.55,1.12-1.07,2.26-2.3,4.13-2.05,2.74.36,5.3-.97,8.02-.96.47,0,.77-.38,1.12-.66,1.5-1.22,3.06-2.25,4.97-2.82,2.06-.61,3.07-2.31,3.12-4.39.04-1.46.72-1.87,1.95-1.75,1.56.15,2.65-.52,3.83-1.5,1.33-1.11,2.36-2.63,4.14-3.19,2.14-.68,2.32-1.12,1.6-3.22-.43-1.24-.03-1.77,1.3-1.69.32.02.64.19.96.2.91.01,2.32.74,1.92-1.27-.08-.41.25-.56.62-.58.69-.05,1.18.12,1.7.72,2.13,2.45,4.56,2.44,6.5.07.35-.43.66-.63,1.03-.11.27.39.76.71.62,1.29-.15.61-.67.6-1.17.69-1.61.31-2.39,1.87-1.43,3.03.82.99,1.84,1.86,2.87,2.64,1.08.81,2.2.9,3.21-.29.45-.53,1.06-.96,1.66-1.34,1.01-.63,2.16-.91,2.86.3.62,1.07,1,.84,1.68.14.58-.59,1.24-1.11,2.19-.61,1.12.6,2.31,1.13,2.46,2.62.22,2.18.8,2.67,3.14,2.51.28-.02.57-.1.73.19.18.34.01.66-.25.88-.29.25-.71.39-.91.69-.32.46-1.92.94-.08,1.56.35.12.24.45.05.68-.57.68-.33,1.48-.35,2.23-.02.62-.11,1.14-.52,1.67-1.47,1.91-4.29,1.79-5.68,3.82-.1.15-.52.08-.8.12-.74.09-1.55.36-1.92.88-1.36,1.91-3.39,3.12-4.87,4.87-1.42,1.68-3.49,2.64-4.71,4.52-.16.25-.7.24-1.05.37-.98.38-2.02.71-2.31,1.91-.55,2.29-2.51,3.03-4.35,3.61-2.4.76-4.62,1.75-6.49,3.42-1.1.98-2.3,1.66-3.73,2-.64.15-1.32.33-1.84.7-1.58,1.14-3.23,1.82-5.2,1.23-2.25-.67-4.6-.09-6.89-.55-1.14-.23-1.49-.75-1.42-1.78.13-.76.55-1.23,1.34-1.31-.31,1.61-.05,1.94,1.6,1.98,1.16.02,2.37-.2,3.47.06,4.47,1.08,7.7-1.42,10.96-3.71,1.42-.99,2.77-1.95,4.48-2.32,1.43-.3,2.47-.96,2.39-2.63-.05-1.04.54-1.67,1.45-1.96,2.03-.64,3.78-1.64,5.25-3.23,1.79-1.94,3.71-3.76,6.14-4.94.55-.27,1.15-.61,1.48-1.26,1-1.97,1.3-4.29,2.95-5.95.43-.43.12-.93-.1-1.38-.52-1.07-.71-2.19-.56-3.37.17-1.34-.76-2.58-2.1-2.37-1.56.24-3.12.08-4.69.43-2.66.59-4.98,1.97-7.52,2.8.13-.66.47-1.28.32-1.99.33-.33.66-.66.99-.99.79.02,1.19-.56,1.55-1.09.53-.8,1.17-1.43,1.96-1.97,1.05-.72,1.15-1.93.36-2.85-.88-1.04-1.67-.58-2.56.04-2.34,1.63-4.44,3.83-7.73,3.26-.62-.11-1.23.2-1.65.64-1.55,1.64-3.43,2.87-5.08,4.39-2.08,1.9-3.29,4.34-4.49,6.85-1.58,3.29-3.47,6.38-7.6,7.08-.88.15-2.02.52-2.41,1.33-1.49,3.11-4.53,3.95-7.27,5.25-.88.42-1.72.95-2.1,1.8-1.04,2.33-3.03,3.87-4.9,5.24-2.82,2.07-6.03,3.76-9.73,3.81-.83.01-1.54.21-2.12.73-.73.66-1.54,1.07-2.51,1.07-3.89,0-7.6,1.38-11.47,1.44-1.68.03-3.42-.7-5.05-.49-2.88.37-5.76-.68-8.6.23-.35.11-.82.1-1.14-.04-2.9-1.27-5.27-.14-7.4,1.69-1.19,1.02-1.72.7-2.31-.57-.62-1.32-1.64-1.94-3.15-2.57-2.43-1.02-5.4-.76-7.37-2.88-.11-.12-.27-.24-.42-.25-2.44-.13-3.48-1.84-4.56-3.7-.71-1.22-.78-2.02.52-2.67.94-.46,1.53-1.18,2.06-2.06.77-1.3,1.77-2.36,3.44-2.57.75-.1,1.47-.44,2.19-.7.6-.22,1.24-.4,1.73.05.76.71,1.43,1.15,2.6.83.79-.22,1.13.67.93,1.35-.31,1.04-.19,2.08-.2,3.12-.01,1.61.57,2.14,2.16,1.68,2.41-.7,4.57-1.85,6.14-3.93,2.18-2.88,4.45-5.69,5.77-9.11.26-.67.92-1.04,1.67-1.24,1.52-.41,2.89-1.09,3.8-2.47.48-.73,1.31-.86,2.03-.99,2.43-.42,4.89-1.03,7.32-.99,3.71.06,7.08-1.1,10.54-2.05.46-.13.88-.25,1.02-.72.38-1.27.81-2.44,2.03-3.24.65-.43.03-1.09-.16-1.64-.32-.91-.16-1.4.97-1.15,1.42.31,2.66.05,3.82-.97.97-.85,2.3-1.02,3.61-.9,1.82.16,3.5-.09,4.93-1.38.34-.31.87-.49,1.34-.59,1.09-.24,2.1-.68,3.07-1.2,3.41-1.84,3.84-4.66,1.1-7.44-.89-.9-2.02-1.58-.44-2.96.82-.71.22-2.16-.86-2.27-1.13-.11-2.33-.33-3.42.25-2.97,1.59-6.17,2.64-9.32,3.79-2.46.9-4.73,1.96-6.63,3.87-1.12,1.12-3,1.42-3.52,3.25-.15.52-.51.97-.51,1.55,0,.76-.37,1.34-1.13,1.39-.69.05-1-.54-1.21-1.16-.59-1.74-1.8-2.47-3.66-2.45-1.39.02-1.86.69-1.95,1.9-.31,3.81-.31,3.78-4.07,3.46-1.82-.15-3.59-.05-5.24,1.05-1.38.92-2.95.83-4.37-.13-1.19-.81-2.35-1.64-3.79-1.95-.52-.12-.92-.48-1.14-.9-.79-1.46-1.86-1.14-3.1-.69-2.4.88-3.87,2.8-5.49,4.58.86-2.95,2.91-4.94,5.34-6.63,1.48-1.03,2.92-2.13,4.4-3.15.48-.33.75-.8,1.06-1.24.2-.28.22-.65.02-.94-.23-.34-.57-.19-.9-.1-2.85.84-6.08.9-7.9,3.86-.16.26-.54.37-.8.56-2.11,1.56-3.18,4.21-5.67,5.38-.16.08-.23.36-.32.57-1.35,3.24-3.17,6.15-5.83,8.48-1.68,1.47-3.11,3.11-3.68,5.35-.08.3-.31.58-.53.81-2.13,2.32-4.16,4.69-4.81,7.91-.1.47-.3.97-.94,1.01Zm53.6-96.34c-.13-.43-.5-.32-.8-.33-.28,0-.61.06-.57.4.04.36.35.54.71.52.35-.02.62-.19.67-.6Z"/>
    <path class="cls-1" d="m848.44,149.23c-3.78-.26-7.54-.03-11.3.09-5.26.16-10.52.57-15.76,1.21-2.42.3-4.89.18-7.32.42-3.7.37-7.47.2-11.1,1.22-.52.15-1.1.09-1.65.07-5.63-.2-11.16.94-16.74,1.2-2.39.11-4.78-.02-7.17.4-1.14.2-2.09.58-3.02,1.2-.89.59-1.77.82-2.71-.03-.87-.8-1.88-.56-2.75.02-2.29,1.51-4.91,1.84-7.52,2.19-1.24.16-2.24-.85-3.53-.68-3.83.51-7.73-.25-11.56.93-2.26.69-4.7.14-6.98-.43-2.77-.68-5.44-.62-8.1.37-1.9.71-3.9.32-5.81.32-2.25,0-4.42-.13-6.68.31-1.92.37-4.01.72-6.01.02-.97-.34-2.06-.39-2.95-.12-3.48,1.06-7.02.41-10.53.6-.55.03-1.11-.05-1.61.25-1.92,1.17-3.96.94-5.91.29-1.7-.56-3.29-.52-5.02-.25-5.36.86-10.67,1.96-15.96,3.15-2.35.53-4.63.04-6.89-.22-2.36-.28-4.69-.23-7.04-.25-.44,0-.97.08-1.3-.13-2.62-1.73-5.28-1.01-7.93-.19-.9.28-1.72.33-2.1-.61-.39-.96.41-1.22,1.16-1.37,1.06-.22.75-.75.26-1.26-1.46-1.55-3.27-1.36-4.46.46-.59.91-2.22,1.23-2.82.39-1.19-1.68-2.76-1.45-4.3-1-1.38.4-2.67.56-4.03,0-1.14-.47-2.06.04-2.78.87-.84.96-1.86,1.59-3.08,1.8-1.22.2-2.06.7-2.28,1.99-.24,1.34.36,2.4,1.46,2.87,2.37,1.01,3.12,3.31,3.19,5.22.07,1.73-.26,3.46.24,5.26.23.82-.67,1.28-1.56,1.27-1.11,0-2.21-.02-3.32,0-2.69.04-3.79,1.33-3.21,3.85.2.87-.24,1.36-.74,1.87-.7.71-1.38,1.41-1.8,2.35-.28.63-.06,1.09.29,1.51.42.49.95.43,1.5.12.94-.54,1.66-1.24,2.05-2.28.33-.89.86-1.26,1.92-.97,1.56.42,4.93-1.16,5.41-2.49.31-.87.74-1.5,1.67-1.59,1.06-.11,1.65.72,2.01,1.47.46.94.88,1.83,1.65,2.6.81.81.39,2.19-.71,2.74-.39.2-.83.28-1.25.43-1.95.69-2.65,1.69-2.09,3.65.42,1.47-.09,2.44-1.16,3.12-2.38,1.5-4.48,3.31-6.46,5.29-.41.41-.58.91-.8,1.42-.53,1.21-1.43,1.45-2.51.71-1.97-1.34-2.44-1.26-3.6.75-.81,1.42-2.33,1.88-3.62,2.43-2.67,1.14-5.44,2.02-8.5,1.25-1.61-.4-3.35-.13-4.78.86-2.45,1.69-5.06,1.62-7.76.92-1.51-.39-2.31-.11-3.39,1.43-1.49,2.14-1.06,3.09.78,4.33,1.21.81,1.16,2.41,1.36,3.6.26,1.56.9,3.21.29,4.86-.24.66-.03,1.25.57,1.57.59.31,1.23.78,1.91.02.33-.37.89-.57,1.38-.41,1.45.47,2.67-.29,3.83-.81,3.76-1.69,7.35-3.76,11.39-4.78.45-.11.83-.29,1.13-.64.99-1.14,2.24-1.72,3.75-1.86,1.47-.14,2.56-1.21,3.93-1.66,1.1-.36,2.15-.8,3.31-.98,1.13-.18,2.17-.57,3.22-1.14,1.3-.7,2.71-1.05,4.4-.89,2.29.22,4.55-1,6.92-1.11.24-.01.51-.24.69-.44,2.45-2.66,6.19-2.6,9.1-4.28.14-.08.34-.07.46-.17,2.9-2.36,6.49-1.89,9.83-2.54,2.22-.44,4.37-1.63,6.06-3.17,1.97-1.8,4.22-2.44,6.73-2.72,1.2-.13,2.3-.53,3.39-1.15,1.93-1.1,4.21-1.29,6.15-2.68,1.42-1.01,3.64-1.06,5.54-.22,2.03.9,4.09.4,6.12,0,1.65-.33,3.25-.29,4.91,0,1.31.22,2.63.56,4.03-.02.96-.4,2.1.05,2.95.65,1.9,1.33,3.9,1.39,5.99.72,1.01-.32,1.9-.27,2.88.16,1,.44,2.1.69,3.22.58,2.16-.22,4.27.47,6.43.35.51-.03,1.03.16,1.31.6.81,1.29,1.93,1.52,3.27,1.01.54-.2,1.05-.14,1.6-.02.64.14,1.46,0,1.72.72.32.89-.75.92-1.12,1.41-.39.5-1.18.79-1,1.59.17.75.95.74,1.48.88,4.3,1.11,8.49,2.57,12.72,3.89.51.16,1.09.21,1.63.16,2.74-.26,5.61-.21,8.17.27,2.52.48,4.97.58,7.47.76.87.06,1.55.55,1.97,1.34.38.71.97,1.03,1.77.95,3.07-.31,5.99.6,8.97,1.09.05,0,.11.06.16.05,4.52-.49,8.37,2.03,12.59,2.81,4.68.86,9.36,1.81,14.15,2.03,1.95.09,3.89.56,5.87.33.15-.02.38.02.47.13,1.43,1.62,3.35,1.19,5.13,1.14,1.4-.04,2.72.37,4.1.39,2.28.03,4.56.23,6.84.3,3.13.09,6.26.08,9.32.93.67.19,1.51.26,2.13.03,2.69-1.02,5.19.18,7.75.55m13.8,5.8c-2.7-.1-5.48.34-8.11-.11-6.09-1.02-12.26-1.04-18.36-1.91-5.26-.75-10.61-.85-15.91-1.33-3.38-.31-6.74-.85-10.12-1.22-3.27-.36-6.45-1.44-9.8-1.09-.43.05-.89.06-1.28-.23-1.31-.99-2.82-1.19-4.4-1.08-1.29.09-2.53-.14-3.72-.59-3.21-1.22-6.67-1.33-9.92-2.37-3.83-1.23-7.85-1.52-11.79-2.21-3.49-.62-6.85-1.83-10.5-1.9-2.15-.04-4.4-.17-6.57-1.06-2.07-.85-4.33-1.5-6.73-1.17-1.99.27-3.94-.14-5.84-.82-.87-.31-1.84-.34-2.74-.53-2.67-.56-5.45-.77-7.9-2.18-1.07-.62-1.78-1.42-1.85-2.73-.1-2.06-.63-2.64-2.69-2.63-3.3.01-6.43-1.14-9.7-1.21-2.55-.06-4.87-1.44-7.47-1.14-1,.12-1.96-.14-2.92-.43-2.51-.76-4.99-1.65-7.68-.54-1.45.6-3.01.3-4.56.12-2.56-.29-5.24.04-7.28,1.51-2.68,1.94-5.26,3.89-8.58,4.55-.84.17-1.71.58-2.09,1.24-1.24,2.15-3.43,2.57-5.45,3.35-.36.14-.72.27-1.06.45-2.47,1.31-5.09,1.6-7.84,1.22-1.34-.18-2.66-.53-4.05-.25-4.65.93-8.72,3.26-12.94,5.24-1.21.57-2.37.95-3.7,1.18-2.34.4-4.7.18-7.05.62-4.03.77-7.54,2.86-11.41,3.99-.36.11-.69.34-1.04.5-2.47,1.15-5,2.19-7.49,3.26-3.7,1.58-7.71,2.43-11.6,3.58-1.13.33-2.39.57-3.38-.02-2.02-1.19-3.94-1.08-5.9-.05-.6.31-1.14.31-1.74.15-1.63-.46-3.26-3.12-3.38-5.38-.1-1.77.64-3.49.3-5.25-.34-1.73.27-3.06,1.38-4.32,1.44-1.62,3.23-2.78,4.96-4.04.55-.25,1.11-.5,1.66-.74,1.3-.6,2.64-1.12,3.93-1.72,2.12-.98,4.52-1.3,6.41-2.78.86-.29,1.66-.79,2.61-.79,2.8-.41,5.51-1.07,7.95-2.59.21-.04.41-.07.62-.11.98-.27,2.12-.16,2.74-1.22,1.32-.19,2.38-1.01,3.61-1.42,1.34.15,3.94-2.51,3.49-4-.84-2.72-.36-5.83-2.45-8.2-.93-1.06-1.66-2.28-2.28-3.6-.31-.67-.72-1.78-1.82-1.69-1.92.16-3.33-.69-4.98-1.59-3.81-2.08-7.44-4.44-11.13-6.7-.41-.25-.91-.56-1.1-.96-1.12-2.3-3.23-3.59-5.26-4.79-3.73-2.2-7.74-3.87-11.71-5.6-1.71-.75-3.38-1.61-4.84-2.78-.89-.71-1.35-1.85-2.38-2.48-2.74-1.68-5.77-2.22-8.9-2.65-3.46-.47-6.94-1.05-10.3-1.98-2.08-.58-4.17-1.07-6.27-1.17-1.37-.07-3.11-.05-4.04,1.54-.22.01-.44.03-.66.04-.19-.35-.52-.41-.85-.33-3.66.85-7.33.98-11.05.32-2.58-.46-5.04-.91-6.75-3.22-1.33-1.8-.69-4.17,1.43-4.81,1.26-.38,2.51-.77,3.83-.97,3.23-.49,6.33-1.35,8.89-3.55.33-.28.74-.56,1.15-.62,3.2-.47,6.34-1.43,9.62-1.07,1.2.13,2.41.55,3.6.29,4.03-.9,8.11-.56,12.17-.63,1.21-.02,2.39-.12,3.5-.63.32-.02.64-.05.96-.07,1.23-.1,2.46-.2,3.69-.3.44.02.89.05,1.33.07.17.25.42.28.69.23.21.03.42.05.63.08.16.26.41.3.69.25,1.31.28,2.48.92,3.6,1.59,3.44,2.07,7.13,3.6,10.79,5.16,3.47,1.48,6.9,3.01,10.18,4.88,1.53.87,3.21,1.41,4.91,1.87.16.13.32.38.49.38,4.37.25,8.31,2.27,12.58,3,2.65.46,5.3.76,7.97,1.02.51.05,1.12.21,1.53-.33,1.21.22,2.36.79,3.63.71.06.37.26.56.65.63,4.56.73,9.12,1.37,13.75,1.37,1.41,0,2.83.37,4.25.47,3.61.26,7.14,1.2,10.8,1.18,3.12-.02,6.24.17,9.37.01,3.5-.17,7.02.43,10.52-.04.55-.07,1.29.27,1.45-.66,1.1,0,2.21,0,3.31,0,.48.57,1.13.31,1.71.33,4.62.2,9.23-.31,13.85-.02,3.75.23,7.49-.16,11.23-.31,3.91-.15,7.83-.14,11.73-.22,6.61-.14,13.19-1.04,19.81-.78.52.02,1.15.19,1.43-.51.66,0,1.31,0,1.97,0,1.66.36,3.33.23,5.01.28,7.29.21,14.47-1.06,21.7-1.3,6.71-.22,13.37-1.24,20.09-1.11.61.01,1.24.07,1.59-.6,1.9-.12,3.74-.77,5.66-.64.65.36,1.26.55,1.69-.3.87-.03,1.74-.05,2.61-.08.56.45,1.11.47,1.65-.04,1.41-.03,2.83-.05,4.24-.08.55.03,1.11.13,1.65.08,3.88-.37,7.78-.59,11.66-.87,4.55-.32,9.1-.88,13.68-.82,1.23.01,2.62.18,3.63-.89m-219.16,17.31c.6-.35,1.69.09,2.58-.28,1.45-.6,1.76-1.99,1.94-3.39.13-1.03.33-1.86,1.75-1.86.93,0,1.46-.58.72-1.69-1.39-2.08-4.17-3.18-6.78-2.74-2.58.44-5.17-.25-7.17-1.67-1.75-1.25-3.59-1.83-5.53-2.37-.87-.24-1.42.07-1.13,1.14.25.9.54,1.78.56,2.73.05,2.15,1.05,3.66,3.14,4.34.94.3,1.52.98,2.19,1.65,2.06,2.07,4.03,4.38,7.72,4.14Z"/>
    <path class="cls-1" d="m373.36,193.29c-.08,1.03.27,1.55,1.42,1.78,2.29.46,4.64-.12,6.89.55,1.97.58,3.62-.09,5.2-1.23.52-.37,1.2-.55,1.84-.7,1.43-.33,2.63-1.02,3.73-2,1.87-1.66,4.09-2.66,6.49-3.42,1.84-.58,3.8-1.32,4.35-3.61.29-1.19,1.32-1.53,2.31-1.91.35-.14.89-.12,1.05-.37,1.22-1.88,3.29-2.84,4.71-4.52,1.47-1.75,3.51-2.95,4.87-4.87.37-.52,1.18-.79,1.92-.88.27-.03.69.03.8-.12,1.39-2.03,4.21-1.9,5.68-3.82.41-.54.5-1.06.52-1.67.02-.75-.21-1.55.35-2.23.19-.23.29-.56-.05-.68-1.84-.61-.24-1.1.08-1.56.21-.3.62-.44.91-.69.26-.23.43-.54.25-.88-.15-.29-.44-.21-.73-.19-2.34.15-2.92-.33-3.14-2.51-.15-1.49-1.34-2.02-2.46-2.62-.95-.51-1.61.01-2.19.61-.68.69-1.06.92-1.68-.14-.7-1.2-1.85-.92-2.86-.3-.6.38-1.21.8-1.66,1.34-1.01,1.19-2.13,1.11-3.21.29-1.04-.78-2.05-1.65-2.87-2.64-.96-1.16-.18-2.73,1.43-3.03.5-.1,1.02-.08,1.17-.69.14-.58-.35-.9-.62-1.29-.36-.52-.68-.32-1.03.11-1.93,2.38-4.36,2.39-6.5-.07-.52-.6-1.01-.77-1.7-.72-.37.03-.7.17-.62.58.4,2.01-1.01,1.28-1.92,1.27-.32,0-.64-.18-.96-.2-1.33-.08-1.73.45-1.3,1.69.72,2.1.54,2.54-1.6,3.22-1.79.56-2.82,2.09-4.14,3.19-1.18.98-2.27,1.65-3.83,1.5-1.22-.12-1.91.29-1.95,1.75-.05,2.07-1.06,3.78-3.12,4.39-1.92.57-3.48,1.6-4.97,2.82-.34.28-.65.66-1.12.66-2.71,0-5.28,1.32-8.02.96-1.87-.24-3.01.98-4.13,2.05-1.45,1.38-2.99,2.59-4.74,3.55-.97.53-1.66,1.31-1.71,2.46-.06,1.28-1.03,1.54-1.96,1.91-1.02.41-1.93.36-2.79-.33-.53-.42-.62-.84-.09-1.37.65-.65,1.18-1.49.7-2.37-.46-.84-1.46-.6-2.27-.61-1.7-.02-2.64.57-3.4,2.37-.91,2.16-2.94,3.75-2.96,6.48,0,1.14-1.49,1.97-2.44,2.8-.84.73-1.68.81-2.61-.09-1.38-1.33-2.21-1.3-3.53.03-.77.78-1.67,1.23-2.67,1.56-1.15.38-2.38.66-3.39,1.28-1.66,1.02-3.11,1.6-4.64-.18-.52-.6-1.34-.4-2.03-.19-.61.19-1.25.36-1.59-.34-.31-.64-.18-1.28.36-1.81.67-.65,1.39-1.28,1.49-2.3.63-.68,1.24-1.39,1.89-2.05,2.59-2.61,5.59-4.67,8.72-6.56.9.13,1.77-.14,2.6-.4,5.18-1.61,10.44-2.57,15.89-2.27,1.29.07,2.58.62,3.9,0,.5-.23,1.09-.28,1.16-.99.92-1.12,1.87-2.19,3.32-2.65.48,0,.96,0,.99-.66h0c.48,0,.97,0,.99-.66h0c.48,0,.96,0,1-.65,1.76-.79,3.38-1.92,5.31-2.32,1.35-.37,1.88-1.35,1.99-2.65.23-.55.45-1.1.68-1.66.34-.34.77-.64,1.02-1.04,2.39-3.89,6.12-6.67,8.63-10.45.15-.22.2-.5.3-.75.27-.02.51-.09.65-.35.63-.03.96-.36,1-.99.55-.45,1.1-.89,1.65-1.34.48.01.81-.21,1-.65.74-.32,1.49-.62,2.21-.96,1.15-.54,2-1.69,3.41-1.71.97-.42,2.26.17,3.02-.94.21,0,.43,0,.64-.01.45.42.9.43,1.33-.04,1.08-.36,2.18-.36,3.3-.3.83,1.17,2.26.79,3.34,1.29.23.38.62.32.98.35.05.66.53.66,1.01.65.22.11.44.23.65.34.58,1.08,1.62,1.72,2.48,2.52.68.63,1.35.99,1.94-.29.4-.87,3.61-.87,5.09-.07.68.37,1.37.65,2.12.83,2.29.54,3.86-.36,4.63-2.65,0-.11,0-.22.02-.32,1.67-.92,2.11-2.72,2.96-4.21.62-1.08,1.27-1.99,2.48-2.52,2.95-1.3,4.96-3.26,4.51-6.83-.11-.89.4-1.56.96-2.2.39-.45.86-.99.55-1.62-.32-.64-1.02-.93-1.69-.82-2.03.31-3.89-.59-5.85-.71-.73-.05-1.38-.44-1.94-.87-.58-.44-1.06-.43-1.66-.1-.67.36-.83,1-.63,1.55.61,1.64-.42,2.04-1.63,2.37-.37.1-.83.15-.9.6-.08.51.45.56.75.74,1.88,1.15,2.98,2.91,3.64,4.93.57,1.75-1.1,3.49-3.61,3.69-1.7.13-3.42.02-5.14.03-.97,0-1.39-1.06-2.34-1.12-2.35-.14-4.7-.83-7.04-.43-1.46.25-2.19-.25-2.8-1.36-.13-.24-.19-.57-.38-.73-2.62-2.02-3.04-5.26-4.47-7.94-1.1-2.05-.96-3.85.6-5.75,1.78-2.16,1.39-5.85-.83-7.55-.84-.64-1.72-.94-2.72-.2-.7.52-1.49.93-2.27,1.35-2.23,1.2-4.14.06-4.1-2.45,0-.6-.31-.95-.77-1.16-.51-.24-1.14-.33-1.58.03-.55.46.08.86.26,1.28.32.74.1,1.42-.29,2.04-.7,1.1-.73,2.16,0,3.25.49.73.48,1.34-.19,2.05-1.21,1.26-2.03,2.73-1.7,4.6.12.7-.1,1.33-.77,1.68-.65.34-1.11-.02-1.63-.4-1.53-1.13-2.38.34-3.4,1.01-.39.26-.61.77-.93,1.14-1.31,1.55-2.57,2.03-4.93,1.64-2.84-.46-3.45-1.54-3.75-4-.26-2.13-.11-4.17.26-6.2.2-1.14.88-2.12,2.1-2.59,1.18-.45,2.39-.86,3.4-1.67.5-.4,1.03-.14,1.57-.06,2.35.32,3.1-.1,4.05-2.15.87-1.88.57-3.66-.95-4.93-1.59-1.32-3.07-2.81-5.26-3.21-1.19-.22-1.93-1.24-2.63-2.17-1.37-1.81-2.76-1.86-4.15-.1-.37.47-.74.95-1.13,1.42-.43.51-1.01.77-1.62.51-.76-.32-.52-1.08-.36-1.59.31-.99.82-1.92,1.19-2.89.25-.65,1.04-1.22.24-2.06-.7-.74-1.47-1.31-2.46-.92-1.71.67-3.14-.06-4.58-.71-.81-.36-1.34-1.05-1.8-1.85-.93-1.62-2.29-2.99-2.19-5.11.03-.7-.68-1.47-1.49-1.59-.89-.13-1.1.68-1.38,1.36-.18.45-.47.9-.83,1.22-.81.72-1.66,1-2.19-.33-.54-1.37-1.17-2.17-2.92-2.57-1.16-.26-1.97-2.31-3.73-2.59-.29-.05-.06-.7.13-1.04.45-.82.78-1.77,1.41-2.41.94-.95,1-2.16,1.43-3.27.68.12,1.02.6,1.27,1.17.3,1.35,1.29,2.34,1.91,3.52.43.82.33,2.22,1.17,2.42,2.36.57,4.27,1.94,6.33,3.06.04.02.11-.01.16-.02.21.12.42.24.63.36-.04.52.28.77.67,1.04,3.84,2.61,7.4,5.66,12.07,6.88,2.53.67,4.4,2.64,6.69,3.82,3.65,1.88,7.39,3.54,10.82,5.89,2.57,1.76,5.02,3.91,8.25,4.65.95.21,1.93.21,2.87.67,2.76,1.37,5.73,2.17,8.72,2.87.64.15,1.28.31,1.92.46.72.85,1.6,1.19,2.7.89.21.03.42.05.63.08.07.37.34.48.68.61,4.39,1.69,9.06,2.54,13.27,4.79,1.16.62,2.42,1.18,3.59,1.84,4.02,2.26,8.49,3.2,12.91,4.06,3.27.64,6.42,1.8,9.74,2.11,1.36.13,2.56.53,3.69,1.25.51.33,1.11.4,1.72.51,2.47.45,5.08.31,7.36,1.55,3.66,2,7.71.51,11.49,1.37.23.05.55-.1.77-.23,1-.62,1.85-.34,2.74.3.71.51,1.48,1.08,2.41.93,3.24-.53,6.27.47,9.33,1.22,1.28.31,2.5.73,3.84.87,1.68.18,3.34.72,4.62,1.98.42.41.85.7,1.46.58.22.22.44.45.67.67-.02,1.24.75,2.15,1.31,3.15.19.33.54.61.6.96.61,3.22.53,6.35-1.33,9.21-.38.58-.78,1.37-1.63,1.15-.91-.24-1.02-1.07-.94-1.89.27-2.67-1.16-5-2.27-7.05-1.68-3.12-5.21-4.61-8.65-5.08-3.27-.45-6.6-1.05-9.98-.45-3.12.55-6.42.03-9.36,1.56-1.2.63-2.52.96-3.8,1.02-1.45.07-2.68.46-3.83,1.27-1.82,1.27-3.68,2.41-6.07,2.19-.6-.05-1.44.27-1.42,1.09.02.77.66,1.3,1.39,1.43.57.11,1.2-.05,1.8-.09,2.65-.2,5.19-.82,7.65-1.83,1.99-.82,4.11-.32,6.14-.53,5.11-.54,10.15-1.3,15.34-1.34,2.86-.02,4.82.51,6.92,2.4,2.36,2.12,2.63,4.58,2.56,7.37-.04,1.77-1.35,2.84-2.05,4.25-.96,1.94-2.44,3.36-4.54,4.09-3.11,1.08-6.42,1.4-9.52,2.55-.67.25-1.56.16-2.29-.02-3.77-.93-7.35.21-10.84,1.23-2.64.77-5.21,1.7-7.96,1.84-3.52.17-6.46,2.06-9.44,3.5-1.87.91-3.67,1.73-5.67,2.17-2.51.55-5.15.65-7.3,2.34-.33.26-.81.41-1.23.45-1.78.19-3.43.73-4.97,1.63-.31.18-.64.2-.93-.04-.34-.27-.5-.73-.29-1.04,1.52-2.31,3.36-4.35,5.57-6.04-.45.74-.92,1.47-1.35,2.22-.28.49-.96,1.05-.37,1.58.54.49,1.16.02,1.78-.3,2.04-1.08,3.95-2.71,6.56-1.91.23.07.55-.03.79-.13,1.58-.63,3.26-1.01,4.66-2.05,2.99-2.22,6.56-3.1,10.06-3.92,2.85-.67,5.9-.53,8.47-2.26.17-.11.42-.14.64-.15,1.97-.02,3.75-.72,5.54-1.44,1-.41,1.96-.95,3.14-.92,1.52.04,1.94-.74,1.3-2.11-.87-1.88-2.5-2.63-4.58-2.28-.88.15-2.05.67-2.44-.82-.82-3.07-2.61-4.12-5.6-2.96-2.67,1.03-5.46,1.19-8.23,1.56-1.5.21-2.83-.01-3.52-1.72-.41-1.02-1.22-1.2-2.07-.27-.41.45-.78.91-1.07,1.46-.39.73-.81,1.47-1.79,1.51,1.16-1.96,2.04-4.1,3.68-5.77,1.07-1.09,2.19-2.57,1.87-3.88-.6-2.48-.22-5.26-1.42-7.45-2.02-3.7-5.3-5.46-9.68-4.39-.76.19-1.59.28-1.67,1.28-.08,1.03.85,1.01,1.47,1.25.51.19,1.09.46,1.59.38,2.3-.36,3.55,1.17,4.87,2.57,2.88,3.06,2.7,7.15-.38,9.97-.41.37-.87.74-1.13,1.2-1.2,2.19-2.98,3.3-5.5,3.2-.53-.02-.93.18-1.34.52-1.89,1.59-3.81,3.15-5.72,4.72-2.36,1.94-3.74,4.47-4.54,7.36-.4,1.43-1.18,2.75-2.49,3.31-2.61,1.13-4.15,3.08-5.18,5.59-.16.39-.48.75-.81,1.02-1.47,1.18-3.06,2.14-4.87,2.73-.62.2-1.27.35-1.73.9-1.71,2.05-3.91,3.5-6.1,4.98-2.2,1.49-4.71,2.39-6.89,3.93-2,1.42-4.49,2.11-6.08,4.16-.43.55-.85.93-.34,1.71.76,1.17.17,1.81-1.03,2.12-1.93.49-3.89.3-5.65-.36-3.79-1.43-7.69-2.12-11.7-2.3-.73-.03-1.61-.19-1.71-1-.11-.92.66-1.41,1.52-1.65Z"/>
    <path class="cls-9" d="m373.36,193.29c-.86.23-1.63.72-1.52,1.65.09.81.98.96,1.71,1,4.02.18,7.91.87,11.7,2.3,1.76.66,3.72.86,5.65.36,1.21-.31,1.8-.95,1.03-2.12-.51-.77-.09-1.16.34-1.71,1.59-2.05,4.08-2.74,6.08-4.16,2.18-1.54,4.69-2.44,6.89-3.93,2.19-1.48,4.39-2.93,6.1-4.98.46-.56,1.11-.7,1.73-.9,1.81-.59,3.4-1.55,4.87-2.73.33-.27.65-.63.81-1.02,1.04-2.51,2.58-4.46,5.18-5.59,1.31-.57,2.09-1.88,2.49-3.31.8-2.89,2.18-5.43,4.54-7.36,1.91-1.57,3.83-3.13,5.72-4.72.4-.34.81-.55,1.34-.52,2.51.1,4.3-1.01,5.5-3.2.26-.47.72-.83,1.13-1.2,3.09-2.82,3.26-6.92.38-9.97-1.32-1.4-2.57-2.93-4.87-2.57-.5.08-1.08-.18-1.59-.38-.62-.24-1.55-.22-1.47-1.25.08-1,.91-1.09,1.67-1.28,4.38-1.07,7.66.69,9.68,4.39,1.2,2.19.82,4.96,1.42,7.45.32,1.31-.81,2.79-1.87,3.88-1.63,1.67-2.51,3.81-3.67,5.77-1.29.27-1.08,2-2.29,2.34-2.28.64-4,1.9-4.65,4.3-.22.22-.44.44-.66.66-1.37.39-2.08,1.45-2.21,2.72-.1,1.04-.38,1.98-.73,2.93-.12.21-.25.43-.37.64-.43.02-.65.24-.63.68-.12.21-.25.43-.37.64-2.2,1.69-4.05,3.73-5.57,6.04-.21.31-.05.77.29,1.04.29.23.61.22.93.04,1.54-.9,3.19-1.44,4.97-1.63.43-.05.9-.19,1.23-.45,2.15-1.69,4.8-1.79,7.3-2.34,2.01-.44,3.81-1.26,5.67-2.17,2.98-1.45,5.91-3.33,9.44-3.5,2.75-.13,5.32-1.07,7.96-1.84,3.48-1.02,7.07-2.16,10.84-1.23.73.18,1.62.27,2.29.02,3.1-1.16,6.41-1.47,9.52-2.55,2.1-.73,3.58-2.15,4.54-4.09.69-1.41,2-2.48,2.05-4.25.07-2.8-.2-5.25-2.56-7.37-2.1-1.89-4.06-2.42-6.92-2.4-5.19.04-10.23.8-15.34,1.34-2.03.21-4.15-.28-6.14.53-2.46,1.01-5,1.63-7.65,1.83-.6.05-1.22.2-1.8.09-.74-.13-1.38-.66-1.39-1.43-.02-.81.82-1.14,1.42-1.09,2.4.22,4.25-.92,6.07-2.19,1.16-.81,2.38-1.2,3.83-1.27,1.28-.06,2.6-.4,3.8-1.02,2.94-1.54,6.25-1.01,9.36-1.56,3.37-.6,6.71,0,9.98.45,3.43.47,6.96,1.96,8.65,5.08,1.11,2.05,2.54,4.38,2.27,7.05-.08.81.03,1.65.94,1.89.86.22,1.26-.57,1.63-1.15,1.86-2.86,1.94-5.99,1.33-9.21-.07-.34-.41-.63-.6-.96-.56-.99-1.33-1.91-1.31-3.15,3.37,1.58,3.8,6.5,3.08,9.64-.7,3.07-2.17,5.64-5.5,6.65-1.28.39-2.05,1.49-2.68,2.59-2.33,4.09-5.92,5.96-10.53,6.35-1.78.15-3.51.88-5.29,1.23-3.22.63-6.48,1.1-9.54,2.38-.81.34-1.65.55-2.4,1.08-3.93,2.76-8.51,3.66-13.1,4.54-3.18.61-6.46,1.02-9.43,2.19-1.58.63-3.27,1.1-4.82,1.88-1.02.51-2.18.17-3.27.21-1.44.05-2.74.26-4.08.97-1.25.67-2.84.72-4.3.97-.6.1-1.08.34-1.39.8-1.69,2.58-4.25,2.49-6.8,2.08-1.02-.17-1.94-.1-2.68.4-1.9,1.31-4.11,2.16-5.78,3.79-.72.7-1.71.71-2.53,1.14-2.28,1.2-4.65,2.27-6.81,3.66-1.31.84-2.24,2.24-3.44,3.28-3.21,2.79-7.04,3.75-11.17,3.25-3.43-.42-6.68-1.81-10.13-2.23-2.83-.35-5.68-.56-8.43-1.36-.91-.26-1.42.41-1.97.92-1.52,1.4-2.81,3.02-4.71,4.07-2.87,1.58-5.81,2.07-9.05,1.64-3.45-.45-6.96-.36-10.42-.06-2.79.24-5.6.39-8.38.47-7.23.22-14.48.08-21.72.09-1.71,0-3.36-.25-5.06-.59-3.21-.63-6.22-1.98-9.54-2.23-2.86-.22-4.83-2.37-6.67-4.28-1.45-1.5-2.95-2.62-4.86-3.44-2.51-1.08-4.89-2.48-7.31-3.75-3.57-1.87-7.53-2.35-11.37-3.29-1.28-.31-2.6-.59-3.76-1.17-3.18-1.6-6.71-1.98-10.03-3.09-1.15-.39-1.66-1.5-2.86-1.86-2.52-.76-5.03-1.57-7.44-2.71-3.67-1.75-7.04-4.05-10.8-5.65-1.7-.72-2.65-2.77-4.32-3.79-4.49-2.77-8.08-6.57-11.89-10.13-1.62-1.51-3.84-2.32-5.42-3.98-.52-.54-1.35-.35-2.07-.38-3.73-.18-7.05-1.68-10.52-2.9-2.77-.97-5.39-2.35-8.38-2.86-4.05-.69-8-1.97-12.04-2.79-4.94-1.01-9.95-1.7-14.89-2.73-4.78-.99-9.53-2.18-14.39-2.71-5.18-.57-10.27-1.75-15.47-2.24-5.35-.51-10.66-1.42-16.02-1.86-3.23-.27-6.48-.36-9.7-.75-.38-.05-.79.04-1.03-.36,1.46-.72,3.07-.49,4.51-.26,2.96.47,5.93.15,8.89.52,5.11.65,10.26.99,15.33,1.95,1.46.27,2.95.14,4.43.36,3.26.47,6.47,1.17,9.7,1.73,1.94.34,3.94.4,5.85.85,4.54,1.07,9.09,1.9,13.77,2.22,3.97.27,7.91,1.19,11.83,2.01,1.07.22,1.98-.03,2.9-.21.91-.18,1.72-.24,2.58.08,1.75.66,3.47,1.25,5.42.72,1.11-.3,1.98.63,2.76,1.28.7.58,1.27.78,2.05.28.95-.61,1.87-.91,2.8.12.42.46,1.12.43,1.48-.06.95-1.28,2.03-.91,3.24-.5,1.28.43,2.39,1.11,3.49,1.86.49.34.94.66,1.65.38,2.03-.78,3.96-.12,5.04,1.88.69,1.27,1.56,2.06,2.95,2.38,1.48.34,2.36,1.33,2.75,2.78.63,2.35,1.84,4.13,4.28,5.06,1.55.59,2.68,1.99,3.66,3.29,1.91,2.54,4.2,4.83,6.79,6.45,1.9,1.19,3.7,2.79,6.07,3.37,1.49.37,2.66,1.77,4.25,2.12,2.08.46,3.7,1.74,5.51,2.67,1.57.81,3.6,1,5.39,1.67,2.56.96,5.22,1.63,7.77,2.65,1.18.47,1.45,1.77,2.67,2.09,3.02.8,6.02,1.71,9.02,2.6,3,.89,5.91,1.93,8.45,3.9,1.24.96,2.64,1.81,4.24,2.12,2.33.45,4.27,1.73,6.28,2.85,1.47.81,3.16,1.2,4.41,2.44.45.45,1.17.34,1.76.26,2.06-.26,3.8,1.02,5.79,1.13.42.02.67.5.88.91.98,1.91,3.22,2.77,5.12,1.64,2.31-1.37,4.64-1.28,7.14-1,5.58.63,11.17.93,16.79.4,1.77-.17,3.28-.71,4.85-1.4,1.3-.58,2.78-.57,4.2-.68,3.55-.26,7.13-.3,10.31-2.28.9-.56,2-.53,3.01-.79,2.32-.59,4.4-1.8,6.2-3.33,1.12-.95,2.29-1.69,3.63-2.22,2.15-.85,4.29-1.7,5.4-4.01.29-.61.89-1.2,1.61-1.37,3.49-.81,5.15-3.77,7.33-6.11.67-.72,1.18-1.59,1.83-2.33.75-.86,1.13-1.74.67-2.87-.19-.47-.13-.97.02-1.46,1.16-3.57,2.75-6.73,6.84-7.73,1.18-.29,1.9-1.28,2.61-2.2.95-1.23,1.9-2.43,3.54-2.82.85-.2,1.29-1.02,1.99-1.44.57-.34,1.21-.71,1.82-.14.55.52.27,1.11,0,1.67-.31.64-.74,1.24-.71,2-.33.33-.66.66-.99.99-1.33,1.18-2.67,2.34-3.99,3.54-.43.39-.97.74-.97,1.44-.11.11-.23.22-.34.33-1.38.78-2.79,1.49-4.11,2.35-.83.54-1.32,1.42-.17,2.06,1.3.72.72,1.41.28,2.26-.7,1.38-1.33,2.79-1.99,4.19l-.04.04c-.56.08-.59.51-.63.94-1.46,1.17-2.55,2.72-4.07,3.85-3.48,2.59-6.52,5.66-9.48,8.82-.79.08-1.21.54-1.34,1.31Z"/>
    <path class="cls-9" d="m849.3,226.38c-5.15-.25-10.29-.78-15.43-1.19-.86-.07-1.74-.05-2.59-.02-3.04.09-6.09-.14-9.07-.49-5.06-.6-10.15-.78-15.2-1.42-4.25-.54-8.52-1.04-12.84-.83-3.16.15-6.27.11-9.21-1.46-1.9-1.01-4.17-.89-6.22-1.46-2.94-.82-5.99-1.11-8.94-1.94-2.5-.7-5.14-.85-7.66-1.68-4.61-1.51-9.4-2.34-14.2-3.11-2.47-.39-4.86-1.32-7.35-1.73-4.44-.74-8.87-1.47-13.32-2.15-2.56-.39-5.02-1.16-7.51-1.79-4.28-1.08-8.37-2.8-12.71-3.73-1.96-.42-3.39-2-5.29-2.64-2.14-.72-4.26-1.34-6.55-1.49-3.71-.24-7.42-.63-11.11-1.04-4.76-.52-9.2-.21-13.3,2.84-2.49,1.85-4.9,3.96-7.8,5.16-1.91.79-3.93,1.36-5.83,2.21-4.91,2.22-10.11,3.64-15.17,5.46-.51.18-1.08.29-1.61.27-4.26-.14-8.43.53-12.62,1.23-2.76.46-5.65.22-8.35.85-3.21.76-6.63,1.14-9.41,3.24-.38.29-.89.43-1.36.57-6.16,1.81-12.25,3.86-18.36,5.85-4.67,1.52-9.49,1.61-14-.45-2.55-1.16-3.46-3.72-3.57-6.54-.14-3.46.95-6.36,3.49-8.71,1.6-1.48,2.81-3.43,5.01-4.19.36-.12.74-.65,1.13-.03-1.73,1.25-3.52,2.41-4.96,4.04-1.11,1.26-1.72,2.59-1.38,4.32.34,1.76-.4,3.48-.3,5.25.12,2.26,1.75,4.92,3.38,5.38.61.17,1.15.17,1.74-.15,1.96-1.03,3.88-1.14,5.9.05,1,.59,2.25.35,3.38.02,3.88-1.15,7.9-2,11.6-3.58,2.49-1.07,5.02-2.11,7.49-3.26.35-.16.67-.4,1.04-.5,3.87-1.13,7.38-3.22,11.41-3.99,2.35-.45,4.71-.22,7.05-.62,1.33-.23,2.49-.61,3.7-1.18,4.21-1.98,8.29-4.31,12.94-5.24,1.39-.28,2.71.06,4.05.25,2.75.38,5.36.09,7.84-1.22.34-.18.7-.31,1.06-.45,2.02-.78,4.21-1.21,5.45-3.35.38-.65,1.25-1.07,2.09-1.24,3.32-.66,5.9-2.61,8.58-4.55,2.04-1.47,4.72-1.8,7.28-1.51,1.55.18,3.11.48,4.56-.12,2.69-1.11,5.17-.22,7.68.54.96.29,1.91.55,2.92.43,2.59-.3,4.91,1.09,7.47,1.14,3.26.07,6.4,1.22,9.7,1.21,2.07,0,2.59.57,2.69,2.63.07,1.31.78,2.11,1.85,2.73,2.45,1.4,5.23,1.61,7.9,2.18.9.19,1.87.22,2.74.53,1.9.67,3.85,1.09,5.84.82,2.4-.33,4.66.32,6.73,1.17,2.17.89,4.43,1.02,6.57,1.06,3.65.06,7.01,1.28,10.5,1.9,3.93.69,7.96.99,11.79,2.21,3.25,1.04,6.71,1.16,9.92,2.37,1.19.45,2.43.68,3.72.59,1.58-.11,3.09.09,4.4,1.08.39.29.84.28,1.28.23,3.35-.35,6.53.74,9.8,1.09,3.38.37,6.74.91,10.12,1.22,5.3.49,10.65.58,15.91,1.33,6.1.87,12.27.89,18.36,1.91,2.63.44,5.41,0,8.11.11"/>
    <path class="cls-9" d="m352.1,70.19c6.79.92,13.71.38,20.45,2.08,3.38.85,6.94,1.45,10.41,1.41,5.32-.06,10.88.83,15.88-1.57,3.5-1.68,7.4-2.47,10.57-4.85.3-.22.69-.36,1.06-.43,4.21-.8,7.27-3.64,10.33-6.24,2.26-1.92,3.08-4.81,2.76-7.88-.06-.6-.11-1.21-.09-1.81.06-1.67-.86-2.94-2.26-3.31-2.94-.77-5.71-2.18-8.84-2.32-1.76-.08-3.37-.98-5.02-1.59-2.72-1.01-5.65-.65-8.45-1.27-3.42-.76-6.93-1.09-10.4-1.57-.76-.11-1.54-.13-2.31-.13-4.85,0-9.62-.88-14.43-1.21-3.62-.25-7.17-1.29-10.8-1.08-4.55.27-8.66-1.32-12.87-2.55-2.47-.72-4.95-1.45-7.56-1.46-1.69,0-3.33.07-4.94-.86-1.12-.65-2.5-.91-3.98-.54-1.12.28-2.4.26-3.6-.16-.52-.18-1.16-.26-1.61.06-2.56,1.81-5.36,1.35-8.1.8-2.13-.43-4.08-.94-6.22.22-1.45.78-3.26.6-4.8-.07-2.86-1.25-5.76-.33-8.63-.3-.9,0-1.93.4-2.77.14-2.45-.74-4.61.42-6.66,1.17-2.69.97-5.39,2.08-8.14,2.56-2.72.47-5.32,1.11-7.98,1.77-3.68.91-7.58,1.01-11.23,2.33-.4.14-.89.22-1.3.14-3.52-.71-6.29.63-8.79,2.98-1.35,1.26-3.35,1.79-4.32,3.48-.66,1.15-1.3,2.28-2.29,3.2-.8.73-1.56,1.36-2.73,1.32-.83-.03-1.49.44-1.98,1.06-1.53,1.93-3.68,3.06-5.55,4.56-2.35,1.89-4.95,3.47-7.14,5.52-1.49,1.4-3.18,1.91-5.06,2.07-1.47.12-2.38-.94-2.19-2.38.22-1.59-.25-2.15-1.69-1.72-1.27.38-2.12-.23-3.03-.86-1.59-1.1-3.19-2-5.16-.78-.52.32-1.06-.09-1.43-.54-.44-.55-.45-1.15.02-1.66.51-.56,1.34-1.01.75-1.91-.57-.86-1.54-1.17-2.48-.96-1.91.43-3.95.55-5.58,1.85-.39.31-.91.33-1.41.38-1.63.16-3.23-.46-4.9-.07-.89.21-1.76-.52-2.12-1.32-.39-.87.41-1.32,1.05-1.79.57-.42,1.11-.97.86-1.8-.23-.77-.86-1.12-1.59-1.28-.81-.18-1.81.06-2.21-1.02,2.06.29,4.34.09,6.09,1.18,2.26,1.4,4.72,1.71,7.17,2.25.59.13,1.2.18,1.8.18,5.64.01,11.28.17,16.91-.05,4.27-.16,8.59-.43,12.48-2.6,3.99-2.22,7.81-4.71,11.51-7.38,1.68-1.22,3.63-1.83,5.45-2.7,2.86-1.37,5.65-2.94,8.75-3.74,2.8-.72,5.61-1.41,8.43-2.06,3.2-.74,6.5-.97,9.69-1.83,2.82-.77,5.77-.68,8.64-1.16,3.47-.58,6.95-.96,10.46-1.23.44-.03.88-.06,1.32-.08,8.35-.44,16.69-.92,25.04-1.28,2.42-.1,4.77.67,7.15,1.07,6.35,1.06,12.44,3.19,18.71,4.59,1.83.41,3.72.38,5.53.83,6.89,1.73,13.91,2.34,20.98,2.78,4.43.27,8.82,1.18,13.25,1.47,3.79.25,7.49,1.18,11.32,1.17,2.97,0,5.82,1.04,8.75,1.5,3.04.47,5.99,1.35,8.97,2.1,3.56.9,5.58,3.35,6.72,6.6,1.49,4.23.13,7.8-2.09,11.6-3.18,5.43-8.09,7.94-13.65,9.42-3.56.94-7.02,2.18-10.58,3.09-1.29.33-2.6.39-3.93.45-5.3.24-10.65,0-15.74-1.19-4.02-.93-8.09-1.36-12.11-2.18-3.65-.75-7.37-1.24-11.11-1.29-1.55-.02-3.05-.33-4.56-.64-.41-.09-.76-.17-.84-.64Z"/>
    <path class="cls-9" d="m537.9,147.94c.93-1.58,2.67-1.61,4.04-1.54,2.09.11,4.19.59,6.27,1.17,3.36.94,6.84,1.51,10.3,1.98,3.13.43,6.16.97,8.9,2.65,1.03.63,1.49,1.77,2.38,2.48,1.46,1.17,3.13,2.03,4.84,2.78,3.97,1.73,7.99,3.4,11.71,5.6,2.03,1.2,4.14,2.48,5.26,4.79.2.41.69.71,1.1.96,3.69,2.26,7.32,4.61,11.13,6.7,1.65.9,3.07,1.75,4.98,1.59,1.1-.09,1.5,1.02,1.82,1.69.61,1.32,1.34,2.54,2.28,3.6,2.08,2.37,1.61,5.48,2.45,8.2.46,1.48-2.14,4.15-3.49,4,1.8-2.19,1.32-4.63.33-6.82-.81-1.78-2.75-2.17-4.68-2.12-1.99.05-3.98.02-5.97.02-.5,0-1.06.15-1.48-.03-3.83-1.63-6.99.49-10.36,1.67-2.36.83-4.82,1.4-7.25,2.01-.66.17-1,.55-1.42,1.01-2.11,2.32-4.1,4.77-6.87,6.38-.23.13-.51.17-.76.25.06-.21.04-.51.18-.61,2.65-2.01,4.61-4.66,6.78-7.12.83-.93,1.96-1.71,3.24-1.84,3.1-.33,5.72-2.15,8.77-2.61.59-.09,1.23-.55.51-1.28-1-1.01-2-2.06-3.58-2.09-1.2-.38-2.42-.73-3.39-1.61q-2.88-2.6-6.27-.89c-2.3,1.16-4.62,2.3-6.92,3.45-3.18,1.88-6.19,3.95-7.91,7.36-.26.51-.55.94-.95,1.31-1.48,1.4-3.06,2.73-2.81,5.1.03.27-.32.56-.44.86-1.32,3.48-3.97,6.16-5.64,9.43-.41.79-.81,1.5-.16,2.25.75.87,1.51,1.66,2.92,1.44,1.59-.25,2.92-1.15,4.46-1.46-2.37,2.57-6.18,3.04-8.49.79-.95-.93-1.17-2.33-.25-3.46,2.82-3.45,4.78-7.35,6.25-11.52.61-1.72,1.91-2.96,3.21-4.11,2.03-1.8,3.04-4.28,4.62-6.37,1.17-1.55.45-2.58-1.5-2.58-2.08,0-3.69,1.1-4.68,2.7-2.56,4.16-6.56,7.01-9.5,10.8-.13.16-.34.37-.51.37-3.13-.05-3.76,2.44-4.59,4.61-.85,2.23-1.92,4.3-3.44,6.14-.22.27-.4.52-.79.5,0-.5.08-.96.26-1.45.98-2.68,2.54-5.1,3.48-7.81.61-1.76,2.12-2.91,3.86-3.63.8-.33,1.38-.8,1.86-1.53,1.49-2.23,3.08-4.4,5.51-5.75.5-.28.85-.69,1.1-1.2,1.77-3.57,4.92-5.39,8.6-5.97,4.8-.76,8.65-3.68,13.13-5.14.89-.29,1.14-1.03.09-1.64-.9-1.99-1.95-3.65-4.45-4.12-1.33-.25-2.46-.58-3.77.03-.76.35-1.7.36-2.56.52-2.85.52-5.67.19-8.5,0-.37-.04-.75-.1-1.02.27-.55,0-1.1.01-1.65.02-1.82-.67-3.51-.49-4.82,1.01-1.83,2.08-3.8,4.1-5.3,6.4-2.3,3.53-4.28,7.18-7.28,10.29-2.85,2.95-4.63,6.61-4.97,11.02-.23,2.99-1.65,5.95-4.16,7.98-.87.71-1.29,1.47-.91,2.39.53,1.3,1.39,2.25,3.05,2.37,1.71.13,3.22-.61,4.85-.71-.02.42-.28.71-.58.96-1.77,1.46-6.21,1.63-8.15.33-2.33-1.55-2.86-4.94-1.23-7.36.43-.64.88-1.28,1.45-1.79,2.08-1.88,3.17-4.24,3.91-6.91.76-2.76,2.19-5.16,4.31-7.25,1.77-1.75,3.26-3.86,4.5-6.07,1.56-2.79,3.24-5.45,5.54-7.73,1.87-1.85,3.34-4.06,5.23-5.93,1.17-1.15.7-2.22-.96-2.52-1.41-.26-2.72.15-3.92.92-3.33,2.14-6.75,4.09-10.35,5.78-2.06.97-4.24,1.06-6.39,1.46-1.81.34-3.16,1.28-4.36,2.71-1.9,2.25-3.88,4.48-6.53,5.94-.11-.67.43-.96.79-1.36.77-.86,1.54-1.73,2.34-2.54,2.85-2.88,4.99-6.54,9.89-6.91,2.26-.17,4.48-1.94,6.71-2.99,1.54-.73,3.33-.91,4.68-1.96,2.06-1.6,4.41-2,6.93-2.17,4.23-.29,8.39,1.53,12.62.34,2.72-.76,5.62.29,8.3-.92.65-.3,1.45-.04,2.18.41.97.6,2.08,1.01,3.16,1.41.5.18,1.19.33,1.54-.16.38-.52-.08-1.08-.44-1.46-1.73-1.85-3.95-2.87-6.35-3.56h-.01c-.78-1.5-2.37-1.23-3.63-1.67h0c-.56-1.33-1.8-1.79-3-2.29-.32-.44-.78-.62-1.29-.71-.15-.75-.55-1.23-1.36-1.28-.43-.23-.87-.46-1.3-.7-.14-.76-.72-.9-1.36-.94-.32-.02-.64-.04-.96-.06-.12-.67-.63-.65-1.13-.64-2.57.06-5.12.07-7.57-.92-.47-.19-1.08-.03-1.62-.02-.22,0-.43,0-.65,0-.14-.31-.39-.37-.69-.3-.76,0-1.51-.02-2.27-.02-.68,0-1.35,0-2.03,0-.22,0-.44,0-.66,0,0-.16,0-.33,0-.49.7-.49,1.5-.16,2.24-.25.4-.05.78-.12.95-.53.2-.5-.11-.86-.48-1.12-1.08-.77-2.36-.85-3.61-.9-1.8-.08-3.61-.12-5.4.25Zm65.9,33.46c1.15,0,1.93,0,2.7,0,.37,0,.85.09.97-.4.13-.53-.29-.71-.7-.94-2.55-1.4-5.14-2.69-7.89-3.64-2.61-.9-4.56-3.2-7.51-3.41-1.02-.08-2.17-.69-2.87.3-.68.97.42,1.56,1.01,2.15.85.84,1.56,1.68,1.49,2.99-.04.75.58,1.16,1.12,1.53.73.49,1.53.88,2.25,1.38.87.61,1.49.5,2.03-.43.62-1.06,1.44-1.44,2.59-.65,1.57,1.08,3.33,1.39,4.82,1.14Z"/>
    <path class="cls-1" d="m580.42,172.4c1.04.61.79,1.35-.09,1.64-4.47,1.46-8.33,4.38-13.13,5.14-3.68.59-6.84,2.4-8.6,5.97-.25.5-.59.92-1.1,1.2-2.42,1.35-4.01,3.52-5.51,5.75-.49.73-1.07,1.2-1.86,1.53-1.74.71-3.25,1.87-3.86,3.63-.94,2.71-2.5,5.13-3.48,7.81-.18.48-.26.95-.26,1.45-.88,1.47-2.21,2.46-3.61,3.37-1.63.1-3.14.83-4.85.71-1.67-.12-2.52-1.07-3.05-2.37-.38-.92.03-1.68.91-2.39,2.51-2.03,3.93-4.99,4.16-7.98.35-4.41,2.13-8.07,4.97-11.02,3-3.11,4.98-6.76,7.28-10.29,1.5-2.31,3.47-4.32,5.3-6.4,1.32-1.5,3-1.67,4.82-1.01,0,.49-.35.59-.73.75-.86.36-2.06.88-1.77,1.84.29.96.81,2.28,2.1,2.5,1.69.28,2.18,1.38,2.41,2.84.23,1.46.89,1.76,1.97.77.9-.83,1.9-1.33,3.02-1.56,2.21-.45,4.3-1.3,6.46-1.9,2.53-.71,4.92-2.37,7.77-1.37.31.11.55-.31.72-.59Z"/>
    <path class="cls-1" d="m562.19,208.66c-1.54.32-2.87,1.21-4.46,1.46-1.42.23-2.17-.57-2.92-1.44-.65-.75-.25-1.45.16-2.25,1.67-3.27,4.32-5.96,5.64-9.43.11-.3.46-.59.44-.86-.25-2.37,1.33-3.7,2.81-5.1.4-.38.69-.8.95-1.31,1.72-3.42,4.73-5.48,7.91-7.36.06.63-.46.98-.71,1.45-.99,1.86-.63,2.51,1.48,2.54,1.43.02,2.85-.04,4.27.29.72.17,1.56.22,2.28-.15,2.41-1.25,5.08-1.78,7.61-2.7,1.25-.45,1.88-1.05,1.65-2.38,1.58.03,2.58,1.08,3.58,2.09.72.72.08,1.19-.51,1.28-3.05.46-5.68,2.28-8.77,2.61-1.28.14-2.41.91-3.24,1.84-2.18,2.45-4.14,5.11-6.78,7.12-.14.1-.12.4-.18.61-.1.02-.19.04-.29.05-2.24.6-3.77,1.85-3.96,4.32-2.11,2.65-3.62,5.85-6.96,7.33Z"/>
    <path class="cls-1" d="m573.73,160.55c2.4.69,4.62,1.71,6.35,3.56.36.38.82.94.44,1.46-.35.49-1.05.34-1.54.16-1.08-.4-2.19-.81-3.16-1.41-.73-.45-1.53-.71-2.18-.41-2.69,1.21-5.58.16-8.3.92-4.22,1.19-8.39-.63-12.62-.34-2.52.17-4.86.57-6.93,2.17-1.35,1.05-3.14,1.23-4.68,1.96-2.23,1.05-4.45,2.82-6.71,2.99-4.91.37-7.04,4.04-9.89,6.91-.8.81-1.57,1.68-2.34,2.54-.36.4-.9.69-.79,1.36,0,0-.03,0-.03,0-.78-.05-1.61-.19-1.64.99-.09.04-.19.06-.29.06-.66-.16-1.29-.02-1.95.12-3.66.78-6.37-.46-8.17-3.2-1.09-1.67-.47-4.02,1.12-5.01,1.44-.9,2.85-1.87,4.18-2.92,1.52-1.2,2.63-2.73,3.03-4.68,0,0,0-.02,0-.02,1.03-.06,1.39-.68,1.35-1.62.08-.04.17-.06.26-.08.53.1.75-.12.66-.65.11-.11.22-.22.34-.33.84-.7,2.12-.97,2.31-2.31,0,0,.03-.03.03-.02,1.98-.39,3.58-1.58,5.27-2.54,1.04-.59,2.45-.84,2.71-2.36,0,0,.02,0,.02,0,.69.12,1.28,0,1.77-.56,1.13-1.28,2.58-2.13,4.04-2.96.45-.26.84-.5.85-1.07,1.07-.43,1.93-1.23,2.89-1.83,1.32-.84,2.65-.9,4.07-.93,0,.16,0,.33,0,.49-1.83.2-3.05,1.16-4.27,2.56-.87,1-1.52,2.52-3.13,2.76-1.28.19-2.17.96-3,1.87-.37.4-.75.78-1.27,1.03-2.86,1.41-5.74,2.78-8.52,4.34-2.05,1.15-3.83,2.75-3.96,5.29-.09,1.69-.61,3.01-1.93,3.98-1.26.93-2.28,2.16-4,2.49-1.09.21-2.1.9-2.93,1.78-1.44,1.52-1.33,1.52-.11,3.26,1.09,1.55,2.19,2.01,3.84,1.04.32-.19.73-.22,1.1-.32,2.34-.65,4.43-1.66,5.6-3.95.32-.64.66-1.17,1.48-1.02,1.38.25,2.25-.5,3.13-1.41,2.19-2.24,4.51-4.18,7.67-5.15,2.12-.65,4.42-1.59,5.15-4.22.17-.62.82-.78,1.49-.82,2.8-.16,5.39-.92,7.63-2.73.88-.71,2.04-1.04,2.77.08,1.04,1.6,2.34,1.53,3.86,1.06,1.9-.59,3.8-1,5.83-.45.8.22,1.76.23,2.6-.19,1.21-.6,2.42-.46,3.7-.22,1.98.38,3.77,1.62,6.04.55,1.6-.76,1.77-.46.75-2.07Z"/>
    <path class="cls-9" d="m498.77,139.98c-.61.12-1.04-.17-1.46-.58-1.28-1.26-2.94-1.8-4.62-1.98-1.34-.14-2.56-.56-3.84-.87-3.06-.75-6.09-1.75-9.33-1.22-.94.15-1.71-.42-2.41-.93-.88-.64-1.73-.92-2.74-.3-.23.14-.54.29-.77.23-3.78-.86-7.83.62-11.49-1.37-2.28-1.25-4.89-1.1-7.36-1.55-.6-.11-1.2-.18-1.72-.51-1.13-.72-2.33-1.12-3.69-1.25-3.32-.31-6.47-1.47-9.74-2.11-4.41-.86-8.89-1.81-12.91-4.06-1.17-.66-2.43-1.22-3.59-1.84-4.21-2.25-8.89-3.11-13.27-4.79-.34-.13-.6-.23-.68-.61,1.68-.28,3.07.69,4.6,1.06,2.66.64,5.18,1.72,7.98,1.98,2.13.2,3.97,1.6,5.87,2.58,3.26,1.69,6.74,2.7,10.24,3.63,3.32.88,6.58,1.98,9.97,2.62,4.15.78,8.33,1.49,12.37,2.65,3.72,1.07,7.45,1.18,11.25,1.31,6.77.22,13.41,1.32,19.81,3.64,2.05.74,4.17,1.31,5.97,2.63.61.45,1.33.8,1.56,1.62Z"/>
    <path class="cls-9" d="m562.78,132.76c-1.11.52-2.3.61-3.5.63-4.06.06-8.14-.27-12.17.63-1.19.26-2.4-.16-3.6-.29-3.28-.36-6.43.61-9.62,1.07-.41.06-.83.34-1.15.62-2.56,2.2-5.65,3.06-8.89,3.55-1.31.2-2.56.59-3.83.97-2.12.64-2.76,3-1.43,4.81,1.71,2.31,4.17,2.76,6.75,3.22,3.73.66,7.39.53,11.05-.32.33-.08.66-.02.85.33-3.59,1.48-7.33,2.53-11.15,1.5-2.67-.72-5.54-1.09-7.62-3.5-2.47-2.87-1.77-6.35,1.86-7.55,2.65-.88,5.35-1.56,8.09-2.13,1.72-.36,3.24-1.6,4.94-2.22,3.81-1.39,7.71-1.82,11.83-1.47,4.49.37,9.04.36,13.56-.06,1.33-.12,2.72-.44,4.03.23Z"/>
    <path class="cls-9" d="m403.91,114.82c-2.99-.7-5.96-1.5-8.72-2.87-.93-.46-1.92-.46-2.87-.67-3.23-.73-5.68-2.88-8.25-4.65-3.43-2.35-7.17-4.01-10.82-5.89-2.29-1.18-4.16-3.16-6.69-3.82-4.66-1.22-8.22-4.28-12.07-6.88-.39-.27-.71-.52-.67-1.04,2.41.97,4.45,2.56,6.65,3.87,3.12,1.86,6.53,3.14,9.73,4.8,4.3,2.23,8.79,4.1,12.76,6.99,2.73,1.98,5.73,3.93,8.91,4.89,3.98,1.2,7.33,3.75,11.38,4.63.36.08.59.27.65.65Z"/>
    <path class="cls-9" d="m142.18,45.32c-1.91.14-3.73-.48-5.56-.78-4.48-.76-8.88-1.9-13.34-2.79-1.79-.35-3.32-1.36-5.09-1.72-5.64-1.15-10.99-3.28-16.33-5.33-2.58-.99-5.38-1.43-7.77-2.9,1.82-.33,3.36.68,4.95,1.19,4.86,1.57,9.76,3.03,14.69,4.36,4.02,1.09,8.01,2.29,12.02,3.42,2.46.7,5.22.44,7.5,1.65,2.84,1.51,6.18,1.27,8.93,2.9Z"/>
    <path class="cls-9" d="m740.3,152.74c-.28.7-.91.54-1.43.51-6.62-.26-13.2.64-19.81.78-3.91.08-7.82.07-11.73.22-3.74.15-7.49.54-11.23.31-4.62-.29-9.23.22-13.85.02-.58-.02-1.23.23-1.71-.33.52-.62,1.24-.33,1.86-.34,6.49-.13,13-.08,19.48-.4,8.35-.4,16.71-.49,25.07-.69,3.85-.09,7.7-.13,11.55-.22.6-.01,1.2.09,1.8.13Z"/>
    <path class="cls-9" d="m790.66,150c-.35.67-.98.61-1.59.6-6.72-.13-13.38.89-20.09,1.11-7.23.24-14.41,1.51-21.7,1.3-1.68-.05-3.35.08-5.01-.28.34-.66.96-.42,1.47-.43,6.48-.14,12.93-.76,19.38-1.3,2.68-.22,5.38,0,8.08-.35,5.84-.75,11.74-.46,17.6-.98.61-.05,1.33-.31,1.85.33Z"/>
    <path class="cls-9" d="m677.23,154.26c-.16.93-.91.58-1.45.66-3.51.46-7.02-.13-10.52.04-3.13.15-6.25-.03-9.37-.01-3.65.02-7.18-.92-10.8-1.18-1.42-.1-2.83-.47-4.25-.47-4.63,0-9.19-.64-13.75-1.37-.39-.06-.58-.26-.65-.63,3.73-.47,7.33.44,10.95,1.02,2.57.41,5.15.17,7.72.52,4.28.58,8.6.9,12.91,1.3.77.07,1.54.06,2.31.06,5.63.02,11.25.04,16.88.05Z"/>
    <path class="cls-9" d="m517.63,167.79c-.4,1.95-1.51,3.48-3.03,4.68-1.33,1.05-2.74,2.02-4.18,2.92-1.59.99-2.21,3.34-1.12,5.01,1.8,2.75,4.51,3.98,8.17,3.2.66-.14,1.29-.28,1.95-.12-.93,1.36-2.53,1.15-3.74,1.14-3.21-.01-6.08-1.01-7.92-4.01-1.08-1.77-.52-4.59,1.42-5.68,2.94-1.66,5.55-3.68,7.59-6.4.22-.3.57-.5.86-.74Z"/>
    <path class="cls-9" d="m837.13,146.36c-1.02,1.07-2.41.9-3.63.89-4.58-.05-9.13.51-13.68.82-3.88.27-7.78.5-11.66.87-.54.05-1.1-.05-1.65-.08.18-.65.74-.48,1.2-.61,3.22-.94,6.56-.65,9.83-.89,5.97-.43,11.92-1.48,17.94-1.08.55.04,1.1.06,1.65.09Z"/>
    <path class="cls-9" d="m622.82,150.59c-.41.55-1.02.38-1.53.33-2.67-.26-5.32-.57-7.97-1.02-4.27-.73-8.21-2.76-12.58-3-.17,0-.32-.25-.49-.38,2.38-.67,4.57.21,6.7,1,1.69.63,3.41.95,5.14,1,1.81.06,3.47.5,5.13,1.08,1.43.49,2.95.22,4.39.62.41.11.9-.08,1.2.37Z"/>
    <path class="cls-9" d="m353.19,88.64c-.05,0-.12.04-.16.02-2.06-1.12-3.96-2.49-6.33-3.06-.84-.2-.73-1.61-1.17-2.42-.63-1.18-1.61-2.17-1.91-3.52,1.21.4,1.66,1.55,2.26,2.47.88,1.38,1.88,2.42,3.48,3.04,1.66.64,2.67,2.19,3.84,3.48Z"/>
    <path class="cls-9" d="m173.04,49.52c-.25.5-.73.44-1.15.4-3.51-.32-7.03-.67-10.54-1.01-.4-.04-.56-.29-.58-.66,4.09.4,8.25.11,12.26,1.26Z"/>
    <path class="cls-9" d="m594.35,200.72c-1.89,1.48-4.29,1.8-6.41,2.78-1.29.6-2.63,1.12-3.93,1.72.05-.44.09-.8.64-1.02,2.87-1.13,5.71-2.34,8.57-3.48.33-.13.75,0,1.13,0Z"/>
    <path class="cls-9" d="m530.57,157.85c-.25,1.52-1.67,1.78-2.71,2.36-1.7.96-3.3,2.15-5.27,2.54.04-.29.19-.5.45-.64,2.51-1.42,5.02-2.84,7.54-4.26Z"/>
    <path class="cls-9" d="m189.62,49.86c-.21.41-.6.41-.98.41-2.56,0-5.11,0-7.67,0-.38,0-.77,0-.98-.42,3.21-.45,6.42-.45,9.63,0Z"/>
    <path class="cls-9" d="m537.24,153.25c0,.58-.4.82-.85,1.07-1.46.83-2.91,1.68-4.04,2.96-.49.55-1.08.68-1.77.56,1.9-1.99,3.87-3.88,6.65-4.6Z"/>
    <path class="cls-9" d="m338.21,75.45c-1.48-1.21-.59-2.82-.55-4.19.04-1.2,1.44-1.49,2.49-1.75.45-.11.97.03,1.46.06-.14.54-.56.55-1.02.59-1.61.16-2.37,1.09-2.36,2.69,0,.86-.02,1.73-.03,2.59Z"/>
    <path class="cls-9" d="m604.9,197.34c-2.43,1.53-5.15,2.18-7.95,2.59.43-1.09,1.58-.73,2.36-1.07,1.63-.71,3.47-.87,5.06-1.76.21-.12.41.01.53.23Z"/>
    <path class="cls-9" d="m344.52,69.54c1.64-.76,5.27-.44,6.33.55-2.11-.14-4.24-.09-6.33-.55Z"/>
    <path class="cls-9" d="m569.16,201.32c.19-2.47,1.72-3.72,3.96-4.32-1.32,1.44-2.64,2.88-3.96,4.32Z"/>
    <path class="cls-9" d="m159.11,48.18c-1.67.86-3.76.44-4.62-.93,1.61-.02,3.1.53,4.62.93Z"/>
    <path class="cls-9" d="m92.15,31.36c-1.99-.49-3.97-1.01-5.76-2.08,2.13.11,4.12.59,5.76,2.08Z"/>
    <path class="cls-9" d="m97.07,132.72c1.38-.53,4.55-.15,5.32.64-1.82.16-3.59-.09-5.32-.64Z"/>
    <path class="cls-9" d="m179.34,49.85c-1.47.73-4.22.59-4.96-.26,1.66.07,3.33-.28,4.96.26Z"/>
    <path class="cls-9" d="m567.43,132.38c-1.23.1-2.46.2-3.69.3,1.22-1.09,2.71-1.21,3.69-.3Z"/>
    <path class="cls-6" d="m317.83,394.34c1.01-.48,2.02-.54,3,.08-1.01.25-2.01.34-3-.08Z"/>
    <path class="cls-9" d="m522.55,162.78c-.19,1.35-1.47,1.61-2.31,2.31.24-1.3.99-2.09,2.31-2.31Z"/>
    <path class="cls-9" d="m608.25,196.02c-.62,1.06-1.76.95-2.74,1.22.73-.82,1.54-1.45,2.74-1.22Z"/>
    <path class="cls-9" d="m408.54,116.17c-1.1.3-1.98-.04-2.7-.89.94.16,1.98.06,2.7.89Z"/>
    <path class="cls-9" d="m103.04,133.39c.84-.39,1.69-.86,2.33.3-.79-.02-1.63.34-2.33-.3Z"/>
    <path class="cls-9" d="m518.99,166.15c.03.94-.33,1.56-1.35,1.62.12-.82.71-1.24,1.35-1.62Z"/>
    <path class="cls-9" d="m798.01,149.06c-.43.85-1.04.67-1.69.3.46-.65,1.09-.39,1.69-.3Z"/>
    <path class="cls-9" d="m519.7,183.42c.03-1.19.86-1.04,1.64-.99-.35.65-.97.86-1.64.99Z"/>
    <path class="cls-9" d="m802.27,148.94c-.54.51-1.09.49-1.65.04.54-.54,1.09-.52,1.65-.04Z"/>
    <path class="cls-9" d="m153.8,47.18c-.46.69-.57.24-.67-.21.26-.04.5-.02.67.21Z"/>
    <path class="cls-9" d="m519.9,165.42c.09.53-.13.75-.66.65.06-.38.27-.61.66-.65Z"/>
    <path class="cls-9" d="m144.17,45.65c-.38.46-.56.17-.72-.19.29-.13.54-.09.72.19Z"/>
    <path class="cls-9" d="m93.45,31.71c-.28.05-.53,0-.69-.27.46-.5.58-.13.69.27Z"/>
    <path class="cls-9" d="m570.78,133.02c-.28.04-.53,0-.69-.25.45-.52.58-.15.69.25Z"/>
    <path class="cls-9" d="m569.45,132.69c-.27.05-.52.02-.69-.23.44-.53.57-.17.69.23Z"/>
    <polygon class="cls-6" points="316.47 394.15 316.48 394.08 316.51 394.14 316.47 394.15"/>
    <path class="cls-6" d="m337.23,79.42c.7-.02,1.05-.57,1.46-1,.51-.53.99-.77,1.75-.43.54.24.77.52.77,1.09.01.76-.04,1.4-.88,1.77-1.48.64-2.57,1.78-3.73,2.89-1.56,1.49-1.45,2.36.82,3.31,1.11.46,1.51.89,1.49,2.07-.03,1.32,1.71,2.46,3.15,2.08,1.63-.44,2.72-.08,3.52,1.51.48.95,1.32,1.74,2.06,2.54.54.58,1.18.51,1.76-.02.47-.43,1.05-.94,1.51-.2.45.73-.37.98-.84,1.32-.26.18-.63.22-.78.71,2.01,1.43,4.12,2.61,6.73,2.55,1.24-.03,2.31.51,2.63,1.61.31,1.07-.64,1.75-1.58,2.23-1.89.97-2.8,2.99-4.65,4.12-3.09,1.89-6.31,3.32-9.8,4.18-.62.15-1.34.17-1.97.04-2.74-.57-5.53-.42-8.25-.17-2.34.22-4.59-.24-6.89-.15-3.62.14-7.31-.99-10.86.64-.35.16-.88.03-1.29-.09-1.04-.29-2.14-.34-3.12-.11-4.68,1.13-8.97-.06-13.29-1.71-1.87-.72-3.15-2.35-5.21-2.74-2.5-.48-4.83-1.64-7.35-2.11-1.29-.24-2.52-.08-3.75.24-.99.26-1,1.14-.75,1.73,1.44,3.43,2.42,7.19,5.2,9.81,1.5,1.41,2.47,2.78,2.71,4.8.22,1.89,1.37,3.41,3.1,3.98,2.51.83,3.54,3.17,5.42,4.61.77.59.51,1.32-.49,1.49-.56.09-1.09.14-1.47.61-.48.59-1.19,1.17-.73,2.01.39.7,1.13,1.15,1.95,1.02.89-.14,1.67-.55,1.84-1.62.3-1.83.58-1.96,2.44-1.43,1.29.37,2.42,1.08,3.6,1.66.56.27,1.41.41,1.19,1.32-.19.8-.45,1.77-1.36,1.92-1.17.2-2.08.76-3.09,1.29-1.15.61-2.58-.04-3.8-.48-1.71-.61-3.14-1.84-4.91-2.33-.5-.14-.67-.51-.71-1-.12-1.54-1.14-1.83-2.34-1.41-1.98.68-3.63.67-5.32-.91-1.14-1.07-2.67-1.92-4.36-.32-1.01.96-2.2.12-3.19-.47-.97-.59-1.32-1.51-.96-2.57,1.05-3.07-.77-4.92-3.4-6.88-2.06-1.54-4.66-2.6-6.19-4.53-1.79-2.28-3.72-4.28-5.93-6.08-.4-.33-.66-.89-.86-1.39-.63-1.55-1.82-2.58-3.32-3-1.99-.55-3.09-1.96-3.42-3.68-.5-2.56-2.35-3.93-4.09-5.38-1.73-1.44-2.88-3.3-4.27-4.98-.46-.55-.58-1.43-.42-2.22.17-.86.63-1.61,1.4-1.95.79-.35,1.04.61,1.55.96.22.15.47.35.58.58,1.86,4.19,6.18,4.07,9.63,5.41.94.37,2.07.3,3.07-.2,1.25-.62,1.39-1.44.37-2.44-.78-.78-1.8-1.07-2.84-1.19-1.57-.17-2.2-1.07-2.17-2.56.01-.5.04-1-.02-1.49-.29-2.35-.18-2.34,2.22-2.98,2.59-.69,5.24-1.37,6.61-4.15.56-1.13,1.95-1.21,2.99-1.61,1.33-.51,2.48-1.17,3.41-2.24,1.02-1.17,2.26-1.6,3.7-.91,1.75.83,3.58-.36,5.34.34.85.34,1.87.26,2.72.6,1.95.78,3.81,1.06,5.63-.28.77-.57,1.49-.02,2.19.2,2.01.64,4.43-.11,5.67-1.83.67-.94,1.33-1.88,1.93-2.87.28-.46.62-.8,1.11-.93,2.03-.58,3.94-1.41,5.72-2.53.44-.28.95-.35,1.44-.26,3.14.59,4.88-1.36,6.49-3.54.29-.4.52-.84.85-1.21.85-.96,1.76-1.04,2.68-.08.08.08.16.16.24.23,3.42,3.24,3.61,3.23,6.84-.3.81-.89,1.86-1.19,3-1.04,1.1.14.98,1.19,1.21,1.93.5,1.61,1.6,2.15,3.1,1.45.45-.21.88-.41,1.4-.45,2.06-.17,3.06-1.48,2.31-3.48-.81-2.15-1.28-4.2-.9-6.55.29-1.8-1.34-3.33-1.42-5.17-.02-.38-.14-.76-.16-1.14-.04-.81.08-1.55.9-1.97.82-.42,1.6-.05,2.14.41,1.06.91,2.3,1.77,2.3,3.45,0,.54.22,1.13.92,1.19,1.83.15,2.11,1.56,2.33,2.92.15.92.28,1.74,1.22,2.16.92.41,1.37-.39,2.01-.77,1.57-.93,2.52-2.61,4.32-3.29,1.13-.43,1.93-.4,2.81.5,2.34,2.42,4.66,4.82,6.18,7.89.89,1.8,1.48,1.86,2.92.51.45-.43.94-.78,1.54-.93,1.15-.28,1.96-1.02,2.55-1.97.92-1.47,2.34-1.8,3.93-2.06,3.87-.62,7.82-1.01,11.06-3.61.76-.61,1.36-1.25,1.65-2.19.26-.85.83-1.05,1.49-.42,1.03.98,2.32,1.65,3.08,2.96.55.95,1.54,1.47,2.69,1.29,1.76-.28,3.46.02,5.19.3,1.83.3,3.52-.21,4.98-1.32,1.52-1.16,3.59-1.3,5.1-.1.93.75,1.62.75,2.63.1,1.8-1.16,3.74-1.14,5.6,0,1.43.88,1.5,2.83.05,3.66-.95.54-1.52,1.16-1.67,2.26-.13.91-.76,1.58-1.56,2.04-.62.35-1.26.82-1.93.92-1.76.27-1.81,3.1-3.66,2.66-1.83-.43-2.93.41-4.19,1.28-.46.32-.98.49-1.56.47-1.38-.06-2.57.2-3.39,1.53-.75,1.22-2.1.89-3.19.7-1.27-.23-2.45-.06-3.48.52-2.36,1.32-4.42,1.15-6.75-.3-2.55-1.58-5.49-1.81-8.46-1.06-2.35.59-4.71.37-7.01-.3-2.29-.66-4.58-.55-6.88-.22-1.33.19-2.65.03-3.96.16-.33,0-.65-.02-.98-.03-1.34-2-2.22-2.34-4.33-1.7-1.04.31-2.08.7-3.19.71-.45,0-.73.18-.78.65-.22,0-.44,0-.66,0-.91-.96-2.24-.83-3.32.33-.66,0-1.32.01-1.99.02-.14-.32-.36-.55-.71-.64-1.43-.36-3.51.65-4.37,2.16-.45.79-.9,1.6-2,1.19-.78-.29-1.63-.83-2.28-.06-.75.89-1.13,1.99-.59,3.2.2.44.58,1.1.24,1.39-1.43,1.22-.29,2.5-.25,3.75.04,1.33.87,1.4,1.82,1.11.84-.26,1.57-.75,2.21-1.39.77-.77,1.51-1.15,1.97.37.28.92.89,1.56,1.96.8,1.02.1,1.68-.34,2-1.31Zm-59.92,26.46c.25-.05.57-.18.45-.6-.11-.41-.5-.57-.88-.58-.37-.01-.62.25-.55.63.09.44.47.55.98.55Z"/>
    <path class="cls-6" d="m287.47,183.05c.63-.03.84-.53.94-1.01.65-3.22,2.68-5.59,4.81-7.91.22-.24.45-.51.53-.81.58-2.24,2.01-3.88,3.68-5.35,2.66-2.34,4.48-5.25,5.83-8.48.08-.2.16-.49.32-.57,2.49-1.17,3.56-3.82,5.67-5.38.27-.2.65-.31.8-.56,1.82-2.96,5.05-3.02,7.9-3.86.33-.1.67-.24.9.1.19.29.18.66-.02.94-.31.44-.59.91-1.06,1.24-1.48,1.03-2.92,2.12-4.4,3.15-2.43,1.69-4.48,3.68-5.34,6.63-2.67,3.05-5,6.36-7.47,9.57-4.13,5.36-7.34,11.39-11.8,16.52-.45.51-.6,1.14-.65,1.83-.05.66-.46,1.17-1.16,1.18-.68,0-.86-.63-1.03-1.14-.27-.83-.06-1.61.34-2.37.61-1.16,1.27-2.32,1.21-3.71Z"/>
    <path class="cls-2" d="m335.23,80.74c-1.07.75-1.68.12-1.96-.8-.46-1.53-1.2-1.14-1.97-.37-.64.64-1.37,1.13-2.21,1.39-.95.29-1.78.22-1.82-1.11-.04-1.25-1.18-2.53.25-3.75.34-.29-.04-.95-.24-1.39-.55-1.21-.16-2.32.59-3.2.65-.76,1.5-.23,2.28.06,1.11.41,1.55-.4,2-1.19.86-1.51,2.94-2.53,4.37-2.16.34.09.57.32.71.64-2.57.93-2.62.95-1.64,3.74.51,1.46.29,2.78-.3,4.13-.58,1.32-1.06,2.68-.04,4.03Z"/>
    <path class="cls-2" d="m343.19,68.48c.05-.47.33-.65.78-.65,1.11-.01,2.14-.4,3.19-.71,2.11-.63,2.98-.3,4.33,1.7-2.71-1.41-5.52-.48-8.29-.34Z"/>
    <path class="cls-2" d="m339.21,68.81c1.08-1.16,2.41-1.29,3.32-.33-1.11.11-2.22.22-3.32.33Z"/>
    <path class="cls-2" d="m158.97,65.46c-.08.45-.49.54-.84.63-.36.1-.66-.07-.62-.5.04-.44.33-.68.76-.7.35,0,.62.17.7.57Z"/>
    <path class="cls-1" d="m136.93,99.71c1.58-1.83.83-4.25,1.1-6.54.19-1.64,1.55-2.48,3.13-2.76,1.16-.21,1.81.48,2.3,1.46,1,1.99,1.04,2,2.85.88.67-.42,1.22-.29,1.84.07,1.74,1.02,3.45,1.4,5.37.26.85-.5,2-.5,3.02-.7.71-.14,1.15.28,1.49.82.44.7.8,1.45,1.29,2.11.68.91,1.62.9,2.5.38.85-.5.99-1.12.32-2.01-.58-.77-1.07-1.73-.96-2.75.25-2.29,1.73-3.22,3.94-2.34,1.81.72,3.53,1.06,5.42.26.85-.36,1.83-.27,2.74.14,1.86.83,2.03,1.53.65,2.96-1.18,1.22-1.18,1.7.19,2.75.63.48,1.04.99.87,1.8-.18.83-.8,1.06-1.57,1.21-1.25.24-2.34.72-3.34,1.63-1.41,1.3-2.04,1.15-3.51-.29-.71-.7-1.9-.43-2.66.65-.44.63-.81,1.31-1.19,1.98-.86,1.54-2,2.73-3.73,3.3-1.04.35-1.67,1.24-2.41,1.97-.72.71-.53,1.5-.13,2.28.2.41.43.82-.09,1.15-.47.3-.84.05-1.17-.28-.16-.16-.38-.29-.45-.48-.75-2.29-3.06-2.68-4.71-3.86-.73-.52-1.5.03-2.08.56-1.14,1.05-1.85.63-2.37-.6-.17-.4-.31-.82-.47-1.23-.82-2.02-2.19-2.32-3.8-.83-1.46,1.35-2.07,1.26-2.97-.48-.53-1.02-1.12-2.03-1.4-3.45Zm28.53-4.14c.96.17,1.41-.21,1.84-.67.34-.35.54-.81,1.01-1.06.46-.25,1.36-.38.78-1.25-.47-.7-1.21-.75-1.92-.43-.7.32-1.35.73-2.01,1.13-.53.32-1.5.41-1.31,1.24.19.82,1.16.86,1.61,1.05Z"/>
    <path class="cls-6" d="m374.7,191.99c2.95-3.16,5.99-6.24,9.48-8.82,1.52-1.13,2.61-2.67,4.07-3.85.53-.1.7-.44.63-.94,0,0,.04-.04.04-.04,1.92-2.01,3.61-4.14,3.17-7.15-.1-.72.37-.95.65-1.39.58-.92,1.94-1.1,2.18-2.33.11-.11.23-.22.34-.33.95-.04,1.31-.89,1.91-1.4.82-.69,1.54-1.54,2.73-1.59,2.54-.83,4.86-2.21,7.52-2.8,1.57-.35,3.13-.19,4.69-.43,1.34-.2,2.27,1.03,2.1,2.37-.15,1.18.04,2.3.56,3.37.22.45.53.95.1,1.38-1.65,1.66-1.95,3.98-2.95,5.95-.33.66-.93.99-1.48,1.26-2.44,1.18-4.35,3-6.14,4.94-1.47,1.59-3.22,2.58-5.25,3.23-.91.29-1.5.92-1.45,1.96.08,1.67-.96,2.33-2.39,2.63-1.71.36-3.06,1.32-4.48,2.32-3.25,2.28-6.49,4.78-10.96,3.71-1.1-.26-2.31-.04-3.47-.06-1.65-.03-1.91-.36-1.6-1.98Z"/>
    <path class="cls-6" d="m392.62,142.68c-.21,0-.43,0-.64.01-1.11-.02-2.29-.26-3.02.94-1.42.02-2.26,1.16-3.41,1.71-.73.34-1.47.64-2.21.96-.49-.02-.96-.02-1,.65-.55.45-1.1.89-1.65,1.34-.64.02-.97.35-1,.99-.14.26-.39.33-.65.35-1.03.18-1.6,1.12-2.48,1.54-.38.18-.76.57-1.22.29-.46-.28-.36-.83-.25-1.21.29-1.03.27-2.06.31-3.1.05-1.37.95-2.14,2.09-2.73,2.21-1.14,2.39-1.56,1.94-4.04-.08-.43-.2-.95-.04-1.31.96-2.06,1.14-4.51,2.95-6.16,2.38-2.17,3.68-5.01,4.8-7.9.6-1.56,1.3-3.1,1.66-4.79.3-1.38,2.07-2.13,2.84-3.48.14-.25.49-.15.74.03.56.42.7,1,.54,1.62-.4,1.55-.56,3.11-.66,4.71-.14,2.22.77,4.21,1.18,6.28.45,2.29.82,4.61,1.47,6.87.32,1.1.83,1.84,1.85,2.35,2.5,1.27,5.13,2.18,7.79,3.01,1.25.39,1.61,1.45,2.22,2.29.43.59-.69,1.51-1.74,1.35-.59-.09-1.16-.36-1.78-.28-.22-.11-.44-.23-.65-.34-.05-.67-.52-.67-1.01-.65-.36-.03-.75.03-.98-.35-.8-1.25-2.17-1-3.34-1.29-1.11-.06-2.22-.06-3.3.3-.45-.45-.9-.46-1.33.04Z"/>
    <path class="cls-6" d="m331.25,176.76c-3.13,1.89-6.13,3.96-8.72,6.56-.65.66-1.26,1.36-1.89,2.05-2.81,2.18-5.76,4.2-6.36,8.15-.27,1.8-1.24,3.3-2.78,4.34-1.12.75-1.81.42-1.8-.91.01-1.59.54-2.94,1.38-4.4,1.74-3.01,3.92-5.66,5.91-8.46,3.08-4.33,7.21-7.5,11.82-10.09,1.94-1.09,4.12-1.09,6.21-1.48.43-.08.89.15,1.1.58.21.42-.09.74-.38,1-.7.62-1.41,1.15-2.37,1.41-.78.21-1.84.14-2.12,1.26Z"/>
    <path class="cls-6" d="m369.08,161.86c-.23.55-.45,1.1-.68,1.66-1.06.58-1.51,1.63-1.99,2.65-1.93.4-3.55,1.53-5.31,2.32-.48,0-.81.22-1,.65,0,0,0,0,0,0-.48,0-.81.23-.99.66,0,0,0,0,0,0-.48,0-.81.22-.99.66-1.45.45-2.4,1.53-3.32,2.65-2.12.6-4.1.39-6.01-.81-1.06-.66-1.3-1.18-.12-1.84,1.06-.58,2.12-1.22,3.25-1.59,3.05-.97,5.16-3.47,8.01-4.8,2.12-.99,4.37-1.38,6.5-2.23.89-.35,1.76-1.03,2.64.01Z"/>
    <path class="cls-6" d="m419.5,144.98c0,.11-.01.22-.02.32-.5-.02-.79.31-1.12.61-1.89,1.71-6.25,1.02-7.55-1.16-.39-.65-.05-1.07.44-1.11,2.67-.25,5.2-.89,7.69-1.92,1.02-.42,1.61.61,1.13,1.73-.22.5-.59.94-.58,1.52Z"/>
    <path class="cls-1" d="m399.9,164.15c-1.19.05-1.91.89-2.73,1.59-.6.51-.96,1.36-1.91,1.4,0-.7.55-1.04.97-1.44,1.31-1.2,2.65-2.36,3.99-3.54.15.7-.19,1.33-.32,1.99Z"/>
    <path class="cls-6" d="m341.07,86.71c-.05.41-.31.58-.67.6-.36.02-.67-.16-.71-.52-.03-.35.29-.41.57-.4.3.01.68-.1.8.33Z"/>
    <path class="cls-2" d="m617.97,163.67c-3.69.24-5.66-2.07-7.72-4.14-.67-.68-1.25-1.35-2.19-1.65-2.1-.67-3.09-2.19-3.14-4.34-.02-.95-.32-1.84-.56-2.73-.29-1.07.26-1.38,1.13-1.14,1.94.55,3.78,1.12,5.53,2.37,1.99,1.42,4.58,2.12,7.17,1.67,2.61-.45,5.4.65,6.78,2.74.74,1.11.2,1.69-.72,1.69-1.42,0-1.62.83-1.75,1.86-.17,1.4-.49,2.79-1.94,3.39-.9.37-1.99-.07-2.58.28Z"/>
    <path class="cls-2" d="m433.41,170.79c.12-.21.25-.43.37-.64,1.55-.29,1.32-1.67,1.59-2.69.22-.85.23-1.75,1.33-1.97-.77,1.46-.65,3.21-1.5,4.63-.29.48-.78,1.04-.24,1.44.48.37,1.06-.16,1.39-.57,1.04-1.29,2.37-1.7,3.97-1.52.37.04.83.07,1.14-.1,2.7-1.48,5.8-1.63,8.66-2.54,1.77-.57,3.7-.75,3.94-3.32.13-1.38-.24-2.23-1.66-2.03-.83.11-1.53.12-1.79-.92-.27-1.1-1-1.23-1.89-.69-1.03.63-1.87.84-2.53-.51-.26-.54-.91-.87-1.55-.7-.56.15-.91.61-.94,1.23-.02.55-.12,1.05-.81.97-1.05-.12-1.56.63-2.23,1.19-1.28,1.08-2.09,2.76-3.94,3.13,0-.22,0-.45-.01-.67.22-.22.44-.44.66-.66,1.71-1.26,3.12-2.84,4.65-4.3,1.21-.34,1-2.07,2.29-2.34.98-.05,1.4-.78,1.79-1.51.29-.54.66-1,1.07-1.46.85-.93,1.65-.75,2.07.27.69,1.71,2.02,1.93,3.52,1.72,2.76-.38,5.55-.53,8.23-1.56,3-1.16,4.78-.11,5.6,2.96.4,1.48,1.56.97,2.44.82,2.08-.35,3.71.4,4.58,2.28.64,1.38.22,2.15-1.3,2.11-1.18-.03-2.14.51-3.14.92-1.79.73-3.57,1.42-5.54,1.44-.21,0-.47.03-.64.15-2.57,1.73-5.62,1.59-8.47,2.26-3.5.82-7.07,1.7-10.06,3.92-1.4,1.04-3.08,1.42-4.66,2.05-.25.1-.56.2-.79.13-2.61-.8-4.52.83-6.56,1.91-.62.33-1.24.79-1.78.3-.59-.53.09-1.09.37-1.58.43-.75.9-1.48,1.35-2.22.12-.21.25-.43.37-.64.42-.03.63-.25.63-.68Z"/>
    <path class="cls-2" d="m366.42,166.16c.48-1.02.92-2.07,1.99-2.65-.1,1.3-.63,2.28-1.99,2.65Z"/>
    <path class="cls-2" d="m397.24,142.35c1.17.28,2.55.04,3.34,1.29-1.09-.5-2.52-.12-3.34-1.29Z"/>
    <path class="cls-2" d="m388.96,143.63c.73-1.2,1.91-.95,3.02-.94-.76,1.1-2.05.52-3.02.94Z"/>
    <path class="cls-2" d="m392.62,142.68c.43-.5.87-.49,1.33-.04-.43.47-.87.46-1.33.04Z"/>
    <path class="cls-2" d="m379.68,149.27c.03-.63.36-.96,1-.99-.04.63-.37.96-1,.99Z"/>
    <path class="cls-2" d="m401.57,143.99c.49-.02.96-.02,1.01.65-.48,0-.96.01-1.01-.65Z"/>
    <path class="cls-2" d="m360.11,169.14c.19-.44.52-.66,1-.65-.04.66-.52.66-1,.65Z"/>
    <path class="cls-2" d="m358.12,170.46c.18-.44.52-.66.99-.66-.03.67-.51.67-.99.66Z"/>
    <path class="cls-2" d="m359.11,169.8c.19-.44.52-.66.99-.66-.03.67-.51.67-.99.66Z"/>
    <path class="cls-2" d="m382.33,146.95c.04-.67.52-.66,1-.65-.19.44-.52.66-1,.65Z"/>
    <path class="cls-1" d="m394.93,167.47c-.23,1.23-1.6,1.41-2.18,2.33-.27.44-.75.67-.65,1.39.43,3.01-1.26,5.14-3.17,7.15.66-1.4,1.29-2.82,1.99-4.19.44-.85,1.02-1.54-.28-2.26-1.15-.64-.66-1.53.17-2.06,1.33-.85,2.74-1.57,4.11-2.35Z"/>
    <path class="cls-1" d="m436.71,165.48c-1.11.22-1.11,1.12-1.33,1.97-.27,1.02-.04,2.41-1.59,2.69.35-.95.63-1.89.73-2.93.13-1.27.84-2.33,2.21-2.72,0,.22,0,.45.01.67,0,.11-.01.21-.03.32Z"/>
    <path class="cls-1" d="m442.04,159.53c-1.53,1.46-2.95,3.03-4.65,4.3.65-2.4,2.37-3.66,4.65-4.3Z"/>
    <path class="cls-1" d="m388.89,178.38c.07.5-.1.84-.63.94.04-.43.07-.86.63-.94Z"/>
    <path class="cls-1" d="m433.41,170.79c0,.42-.21.65-.63.68-.02-.44.2-.65.63-.68Z"/>
    <path class="cls-2" d="m573.73,160.55c1.02,1.61.85,1.31-.75,2.07-2.27,1.07-4.06-.18-6.04-.55-1.28-.24-2.5-.39-3.7.22-.84.42-1.8.4-2.6.19-2.03-.55-3.93-.14-5.83.45-1.53.47-2.83.53-3.86-1.06-.73-1.13-1.89-.79-2.77-.08-2.24,1.8-4.83,2.56-7.63,2.73-.67.04-1.32.2-1.49.82-.73,2.64-3.02,3.57-5.15,4.22-3.16.97-5.48,2.91-7.67,5.15-.89.91-1.75,1.66-3.13,1.41-.82-.15-1.15.38-1.48,1.02-1.16,2.29-3.26,3.3-5.6,3.95-.37.1-.78.13-1.1.32-1.66.97-2.75.51-3.84-1.04-1.23-1.74-1.33-1.74.11-3.26.83-.88,1.84-1.58,2.93-1.78,1.72-.33,2.75-1.55,4-2.49,1.31-.97,1.84-2.3,1.93-3.98.13-2.54,1.91-4.14,3.96-5.29,2.78-1.56,5.66-2.93,8.52-4.34.52-.26.9-.63,1.27-1.03.83-.91,1.71-1.68,3-1.87,1.61-.24,2.26-1.77,3.13-2.76,1.22-1.4,2.44-2.37,4.27-2.56.22,0,.44,0,.66,0,.67.95,1.35.94,2.03,0,.76,0,1.51.02,2.27.02.11.38.21.76.69.3.22,0,.43,0,.65,0,.07.28.19.49.5.58,3.22.9,6.49,1.24,9.83,1.01.32.02.64.04.96.06.16.74.75.86,1.36.94.43.23.87.46,1.3.7.14.76.55,1.23,1.36,1.28.51.09.97.27,1.29.71.49,1.42,1.74,1.86,3,2.28,0,0,0,0,0,0,.94,1.13,2.27,1.43,3.63,1.66h.01Z"/>
    <path class="cls-2" d="m580.42,172.4c-.17.29-.41.7-.72.59-2.85-1-5.24.66-7.77,1.37-2.16.6-4.24,1.45-6.46,1.9-1.12.23-2.13.73-3.02,1.56-1.08.99-1.74.69-1.97-.77-.23-1.47-.72-2.56-2.41-2.84-1.3-.22-1.81-1.53-2.1-2.5-.29-.96.91-1.48,1.77-1.84.38-.16.73-.26.73-.75.55,0,1.1-.01,1.65-.02.52.57.84.43,1.02-.27,2.83.18,5.66.51,8.5,0,.86-.16,1.79-.16,2.56-.52,1.31-.61,2.44-.28,3.77-.03,2.5.47,3.55,2.12,4.45,4.12Z"/>
    <path class="cls-2" d="m589.3,181.41c.23,1.33-.39,1.92-1.65,2.38-2.53.92-5.2,1.45-7.61,2.7-.72.37-1.56.32-2.28.15-1.42-.33-2.85-.26-4.27-.29-2.11-.03-2.48-.68-1.48-2.54.25-.47.77-.82.71-1.45,2.31-1.15,4.62-2.29,6.92-3.45q3.39-1.71,6.27.89c.97.88,2.18,1.23,3.39,1.61Z"/>
    <path class="cls-5" d="m603.8,181.4c-1.49.24-3.25-.06-4.82-1.14-1.14-.79-1.97-.41-2.59.65-.54.93-1.16,1.04-2.03.43-.72-.5-1.52-.89-2.25-1.38-.54-.37-1.17-.78-1.12-1.53.08-1.31-.64-2.15-1.49-2.99-.59-.59-1.69-1.18-1.01-2.15.7-.99,1.85-.38,2.87-.3,2.95.22,4.9,2.51,7.51,3.41,2.74.95,5.34,2.25,7.89,3.64.42.23.84.41.7.94-.12.49-.6.4-.97.4-.77.01-1.54,0-2.7,0Z"/>
    <path class="cls-1" d="m560.81,152.9c-3.33.23-6.61-.11-9.83-1.01-.31-.09-.43-.3-.5-.58.54,0,1.15-.16,1.62.02,2.45.99,5,.98,7.57.92.5-.01,1.02-.03,1.13.64Z"/>
    <path class="cls-1" d="m570.08,158.87c-1.25-.43-2.5-.86-3-2.28,1.2.5,2.43.95,3,2.28Z"/>
    <path class="cls-1" d="m573.71,160.54c-1.36-.23-2.69-.53-3.63-1.66,1.27.43,2.85.16,3.63,1.66Z"/>
    <path class="cls-1" d="m546.88,150.98c-.68.93-1.36.94-2.03,0,.68,0,1.35,0,2.03,0Z"/>
    <path class="cls-1" d="m565.79,155.88c-.81-.05-1.23-.52-1.36-1.28.81.05,1.21.53,1.36,1.28Z"/>
    <path class="cls-1" d="m563.13,153.9c-.61-.09-1.2-.21-1.36-.94.64.04,1.22.18,1.36.94Z"/>
    <path class="cls-1" d="m561.14,168.84c-.18.7-.5.84-1.02.27.27-.37.65-.31,1.02-.27Z"/>
    <path class="cls-1" d="m549.84,151.31c-.47.45-.58.08-.69-.3.3-.07.55-.01.69.3Z"/>
    <path class="cls-2" d="m277.31,105.88c-.51,0-.89-.11-.98-.55-.08-.38.17-.64.55-.63.38.01.77.17.88.58.12.42-.2.55-.45.6Z"/>
    <path class="cls-2" d="m165.46,95.57c-.45-.18-1.42-.23-1.61-1.05-.19-.83.78-.91,1.31-1.24.66-.4,1.31-.81,2.01-1.13.71-.33,1.45-.27,1.92.43.58.87-.31,1-.78,1.25-.47.26-.68.71-1.01,1.06-.43.46-.88.84-1.84.67Z"/>
    <path class="cls-6" d="m436.71,165.48c.01-.11.02-.21.03-.32,1.85-.36,2.66-2.04,3.94-3.13.67-.57,1.18-1.32,2.23-1.19.69.08.79-.42.81-.97.02-.62.37-1.08.94-1.23.64-.17,1.29.16,1.55.7.66,1.36,1.5,1.15,2.53.51.88-.55,1.61-.41,1.89.69.26,1.04.95,1.03,1.79.92,1.42-.19,1.79.66,1.66,2.03-.24,2.58-2.17,2.76-3.94,3.32-2.87.92-5.96,1.06-8.66,2.54-.31.17-.76.14-1.14.1-1.6-.18-2.93.23-3.97,1.52-.33.41-.91.94-1.39.57-.53-.4-.05-.96.24-1.44.86-1.42.73-3.17,1.5-4.63Z"/>
  </g>
</svg>