<?xml version="1.0" encoding="UTF-8"?>
<svg id="Layer_1" data-name="Layer 1" xmlns="http://www.w3.org/2000/svg" viewBox="0 0 1321.11 210">
  <defs>
    <style>
      .cls-1 {
        fill: #fff;
      }
    </style>
  </defs>
  <path class="cls-1" d="m1007.21,51.94c11.89,0,23.84.58,35.67-.13,19.36-1.17,41.93,13.89,41.51,33.01-.33,15.05-.11,30.1-.06,45.16.06,17.62-21.72,34.6-49.53,32.52-21.89-1.64-44.15-.77-66.21-.2-9.12.24-11.22-1.8-11.11-8.86.52-31.44.39-62.9.07-94.34-.06-5.49,1.49-7.55,8.89-7.29,13.57.47,27.18.13,40.77.15Zm28.92,55.87c.1,0,.19,0,.29,0,0-6.17.02-12.35,0-18.52-.04-12.81-8.12-18.53-24.12-17.72-4.62.24-5.64,1.59-5.62,4.86.12,20.67.04,41.34.09,62.01,0,1.5-.44,3.15,1.96,4.11,8.44,3.39,26.63-4.44,27.28-12.22.62-7.48.13-15.01.13-22.53Z"/>
  <path class="cls-1" d="m532.86,105.92c0-7.53-.05-15.05.01-22.58.16-19.03,15.26-31.45,39.22-31.83,16.98-.27,33.99-.28,50.97,0,22.85.38,38.39,12.71,38.76,30.77.34,16.66.07,33.33.09,49.99.01,15.12-18.66,29.69-35.81,29.11-19.67-.67-39.42.11-59.11-.36-17.71-.43-33.62-13.64-34.08-27.69-.3-9.13-.06-18.28-.05-27.42Zm49.49.17c0,8.31-.18,16.63.06,24.93.16,5.28,1.04,10.04,10.35,10.14,14.08.15,19.4-1.43,19.71-9.06.71-17.14.6-34.32,0-51.46-.22-6.38-7.65-9.43-17.99-8.99-8.36.35-12.14,3.9-12.15,10.31,0,8.04,0,16.09,0,24.13Z"/>
  <path class="cls-1" d="m97.25,106.42c0-15.87.24-31.74-.14-47.6-.12-5.28,1.12-7.59,8.74-7.52,31.95.33,63.93-.24,95.87.27,23.38.38,36.16,8.78,34.61,27.36-1.12,13.39-1.04,26.93.08,40.31.73,8.71-3.36,10.13-13.09,9.9-22.42-.53-44.88.14-67.31-.32-8.31-.17-10.52,2.06-9.88,8.18.61,5.88-.18,11.84.23,17.74.32,4.65-1.09,6.87-7.73,6.64-11.2-.38-22.45-.36-33.65,0-6.49.21-7.95-1.81-7.86-6.55.31-16.13.12-32.27.12-48.41Zm70.85-.07h3.05q19.76,0,19.63-15.69c-.11-14.1-4.83-17.72-23.11-17.72q-21.41,0-21.41,16.41,0,17,21.83,17Z"/>
  <path class="cls-1" d="m244.94,107.36c0-16.42.17-32.83-.11-49.25-.08-4.47,1.5-6.01,7.39-5.98,37.42.19,74.84.17,112.27.01,5.5-.02,7.55.93,7.63,5.69.25,15.41.53,15.4-18.72,15.4-17.69,0-35.39.18-53.07-.1-5.98-.09-8.19.93-8.21,6.15-.06,16.56-.38,16.56,20.44,16.56,17.35,0,34.71.17,52.05-.1,5.71-.09,7.44,1.14,7.51,5.8.22,15.31.49,15.31-18.83,15.31-17.01,0-34.03.26-51.03-.13-6.87-.16-8.44,1.68-8.44,6.83-.01,17.52-.26,17.52,22.32,17.52,16.33,0,32.66.16,48.99-.09,5.27-.08,6.85,1.08,6.98,5.38.47,15.71.7,15.71-19.34,15.71-33,0-66-.17-99,.14-7.25.07-9.15-1.64-8.99-7.22.45-15.87.16-31.75.16-47.63Z"/>
  <path class="cls-1" d="m854.02,50.8c1.7,0,3.4,0,5.1,0q21.48,0,19.37,17.21c-2.22,18.11-4.31,36.23-3.86,54.44.13,5.25-1.96,7.13-8.69,6.8-8.47-.42-17-.28-25.49-.05-5.19.14-7.42-1.18-6.98-5.49,1.73-16.9-2.23-33.67-1.92-50.55.11-5.83-2.88-11.42-2.31-17.44.36-3.77,1.49-5.24,6.44-5,6.1.3,12.24.07,18.36.07Z"/>
  <path class="cls-1" d="m855.17,160.65c-2.37,0-4.8-.26-7.1.05-10,1.34-12.96-1.46-13-9.76-.04-8.42,3.16-10.9,13.06-9.75,3.98.46,8.12.08,12.18.08q14.07,0,14.04,10.92-.03,8.47-19.18,8.47Z"/>
  <path class="cls-1" d="m493.4,128.45c10.98,10.21,21.96,20.42,32.95,30.63.17.52.34,1.04.5,1.56-17.28,1.6-34.64-.01-51.92.91-3.58.19-3.58-1.87-4.89-3.08-11.85-10.94-23.59-21.96-37.42-34.88,0,11.53-.36,21.01.14,30.46.29,5.46-1.5,7.69-8.92,7.38-11.2-.47-22.46-.29-33.68-.06-5.26.11-7.06-1.3-7.04-5.53.17-33.11.16-66.22.01-99.33-.02-3.91,1.74-5.11,6.52-5.09,30.29.12,60.64-.9,90.84.4,22.7.98,36.46,14.44,37.74,32.52.82,11.54-.21,23.15.25,34.72.2,5.02-1.73,6.74-7.98,6.3-5.4-.37-10.88-.1-16.33-.11-1.15-.05-2.72-.37-2.63,1.02.05.75,1.19,1.45,1.83,2.18Zm-40.39-21.25c5.1,0,10.2-.01,15.3,0,2.59,0,4.96-.35,4.93-2.9-.07-7.25.68-14.62-.76-21.71-1.18-5.79-6.96-9.87-14.61-10.88-22.81-3-25.22-1.31-25.23,16.57,0,.81,0,1.61,0,2.42q-.01,16.48,20.37,16.49Z"/>
  <path class="cls-1" d="m915.9,50.8c1.7,0,3.4,0,5.1,0q21.48,0,19.37,17.21c-2.22,18.11-4.31,36.23-3.86,54.44.13,5.25-1.96,7.13-8.69,6.8-8.47-.42-17-.28-25.49-.05-5.19.14-7.42-1.18-6.98-5.49,1.73-16.9-2.23-33.67-1.92-50.55.11-5.83-2.88-11.42-2.31-17.44.36-3.77,1.49-5.24,6.44-5,6.1.3,12.24.07,18.36.07Z"/>
  <path class="cls-1" d="m917.06,160.65c-2.37,0-4.8-.26-7.1.05-10,1.34-12.96-1.46-13-9.76-.04-8.42,3.16-10.9,13.06-9.75,3.98.46,8.12.08,12.18.08q14.07,0,14.04,10.92-.03,8.47-19.18,8.47Z"/>
  <path class="cls-1" d="m1099.92,107.36c0-16.42.17-32.83-.11-49.25-.08-4.47,1.5-6.01,7.39-5.98,37.42.19,74.84.17,112.27.01,5.5-.02,7.55.93,7.63,5.69.25,15.41.53,15.4-18.72,15.4-17.69,0-35.39.18-53.07-.1-5.98-.09-8.19.93-8.21,6.15-.06,16.56-.38,16.56,20.44,16.56,17.35,0,34.71.17,52.05-.1,5.71-.09,7.44,1.14,7.51,5.8.22,15.31.49,15.31-18.83,15.31-17.01,0-34.03.26-51.03-.13-6.87-.16-8.44,1.68-8.44,6.83-.01,17.52-.26,17.52,22.32,17.52,16.33,0,32.66.16,48.99-.09,5.27-.08,6.85,1.08,6.98,5.38.47,15.71.7,15.71-19.34,15.71-33,0-66-.17-99,.14-7.25.07-9.15-1.64-8.99-7.22.45-15.87.16-31.75.16-47.63Z"/>
  <path class="cls-1" d="m1246.17,153.1c3.32-.24,6.63.3,9.97-.05,2.35-.25,3.55.72,3.45,2.67-.08,1.52-.04,3.04,0,4.56.02,1.04-.23,1.85-1.84,1.88-1.81.04-2.09-.84-2.03-1.99.03-.51.09-1.02-.02-1.52-.14-.68.57-1.83-.6-1.93-1.44-.13-1.12,1.08-1.34,1.87-.33,1.18,1.11,3.37-.92,3.38-2.9.02-1.11-2.37-1.59-3.65-.12-.31-.05-.67-.07-1.03-1.74.38-1.95,1.38-1.88,2.56.06,1.11.19,2.31-1.93,2.31-2.47,0-1.45-1.5-1.54-2.4-.15-1.51-.04-3.04-.04-4.55.13-.7.26-1.4.39-2.1Z"/>
  <path class="cls-1" d="m1244.59,154.73c-2.6-.34-3.78.43-3.4,2.59.16.91-.04,1.86.04,2.78.13,1.41-.26,2.35-2.41,2.06-1.63-.22-2.57-.61-1.82-2.23.45-.97.03-2.17.12-3.26.09-1.1-.18-1.79-1.86-1.63-1.08.1-1.97-.26-1.95-1.23.03-1.3,1.38-.76,2.17-.77,3.09-.04,6.18.02,9.27.04-.05.55-.1,1.1-.16,1.65Z"/>
  <g>
    <path class="cls-1" d="m721.05,103.18c3.47-.03,6.95-.06,10.42-.1-3.46,1.8-6.93,1.58-10.42.1Z"/>
    <path class="cls-1" d="m732.57,90.79c-1.42.03-2.24-.61-2.34-2.06.42-.72.84-1.44,1.25-2.15.97-.38,1.59.12,2.1.86.52.72,1.05,1.43,1.57,2.15-.72.7-1.44,1.42-2.59,1.21Z"/>
  </g>
  <path class="cls-1" d="m712.48,71.22c1.34-1.26,1.93-2.13.14-3.57-4.19-3.38-8.03-7.24-12.41-10.33-3.44-2.43-5.78-6.52-10.78-7.55,3.99,11.9,7.82,23.35,12.03,35.9,3.63-5.83,6.85-10.53,11.02-14.45Z"/>
  <path class="cls-1" d="m791.58,134.17c-4.22-3.66-9.79-5.96-12.14-11.59.08-.35.17-.7.25-1.05,2.93-3.15,2.57-7.55,4.25-11.17.54-4.53.54-9.06,0-13.59-.54-2.72-2.45-5.06-2.19-8h0c4.95-11.69,8.07-24,12.43-35.9.19-.51-.1-1.58-.51-1.84-1.16-.73-1.77.44-2.51,1.07-6.54,5.56-13.07,11.13-19.66,16.64-1.72,1.44-3.41,3.61-6.06,1.46-5.46-4.48-12.07-6.5-18.81-6.85-9.93-.52-19.7.81-27.47,8.15-4.9,2.31-7.61,6.66-10.3,11.03h0c-2.54,3.38-4.35,7.07-4.95,11.3-2.57,8.79-.99,17.25,2.03,25.6-.23.94-.04,1.73.8,2.29.19,1.53-1.41,1.74-2,2.69-4.74,4.09-9.51,8.15-14.21,12.28-8.24,7.24-17.16,13.69-24.93,21.48.13,2.57,2.15,1.67,3.42,1.67,17.4.06,34.79.04,52.19.04,1.53,0,3.14.21,4-1.53,3.04-4.75,6.09-9.5,9.13-14.25l4.14-.64.11-.88c3.96.45,7.92.71,11.87-.34-.42,1.02-.14,1.95.43,2.84,3.1,4.77,6.2,9.54,9.31,14.31.31.15.61.42.92.43,18.78.15,37.57.05,56.35.06,1.14,0,2.57.23,2.41-1.69-9.44-7.99-18.95-15.9-28.3-24.01Zm-71.91,2.21c-.08-.02-.14-.06-.22-.09-.07-.52-.41-.86-.86-1.13.33-.16.58-.4.71-.73,1.02,1.84,2.54,3.03,4.37,3.83-1.45-.27-2.71-1.11-4-1.89Zm12.21-45.42c-1.04,3.6-1.3,7.15.49,10.56,0,.02-.02.03-.03.05-.11.26-.15.53-.12.78-.2,0-.41,0-.61.01-3.19.42-6.37.86-9.54-.07-.69-.27-1.39-.53-2.14-.58-.25.08-.48.18-.66.29-1.5-2.19-2.47-4.71-4.15-6.78,0,0-.01,0-.02-.01.85-2.19.05-4.42-.19-6.63-.53-.78-.73-1.54-.72-2.31-1.5-.61-1.21-.93,1.23-3.57,2.67-1.62,5.54-.26,8.29-.56,3.74.41,7.28,1.17,9.11,4.98l.28.12c.1.85.56,1.43,1.21,1.87-.95.4-1.82.93-2.43,1.84Zm44.72-7.21s0-.1,0-.15c.04.07.07.14.11.21-.03-.02-.07-.04-.1-.06Z"/>
  <path class="cls-1" d="m715.33,86.87c1.38,2.47,1.36,5.35,2.24,7.98.47,1.39.8,2.85,1.8,3.86-.79-1.99-1.2-4.09,1.52-4.47,2.12-.29,2-.96,2.74-2.15.91-1.45.09-3.88,2.47-4.46-3.48-2.13-7.04-3-10.77-.75Z"/>
</svg>