<?xml version="1.0" encoding="UTF-8"?>
<svg id="Layer_1" data-name="Layer 1" xmlns="http://www.w3.org/2000/svg" viewBox="0 0 577.76 68.77">
  <defs>
    <style>
      .cls-1 {
        fill: #fff;
      }
    </style>
  </defs>
  <path class="cls-1" d="m334.49,38.3c-4.22-4.96-4.01-4.99.47-9.95,7.5-8.3,14.77-16.81,22.11-25.26.7-.8,1.58-1.66.95-3.06-8.65,0-17.32.3-25.96-.11-5.65-.27-10,1.02-12.89,6.1-1.32,2.33-2.51,2.41-4.25-.03-1.66-2.34-3.21-5.73-6.4-5.82-10.9-.31-21.82-.12-33.49-.12.9,1.31,1.29,1.99,1.79,2.58,7.65,8.89,15.15,17.91,23.04,26.59,3.26,3.58,3.01,6.04-.13,9.51-8.08,8.92-15.82,18.16-23.7,27.27-.08.32-.16.64-.25.96,8.45.95,16.94,0,25.4.47,5.17.29,9.81-.12,12.9-4.97,2.31-3.63,4.26-2.21,6.43.33,1.76,2.06,3.14,4.69,6.62,4.63,10.47-.2,20.95-.23,31.43-.33-.17-.43-.35-.86-.52-1.3-7.85-9.16-15.71-18.3-23.54-27.48Z"/>
  <path class="cls-1" d="m469.93.31c-5.79.44-11.64.08-17.46.08-6.65,0-13.32.2-19.96-.09-3.62-.16-4.38,1.11-4.35,4.5.16,19.42.22,38.84-.04,58.26-.06,4.36.97,5.61,5.44,5.47,10.8-.35,21.7-.89,32.42.13,13.61,1.29,24.28-9.2,24.25-20.08-.03-9.3-.13-18.59.03-27.89.2-11.81-10.84-21.11-20.32-20.38Zm-3.37,48.5c-.32,4.81-9.22,9.64-13.35,7.55-1.17-.6-.96-1.62-.96-2.54-.02-12.76.01-25.53-.04-38.29,0-2.02.49-2.85,2.75-3,7.83-.5,11.79,3.03,11.81,10.94,0,3.81,0,7.62,0,11.44-.05,0-.09,0-.14,0,0,4.64.24,9.29-.07,13.91Z"/>
  <path class="cls-1" d="m253.23.13c-8.31-.18-16.64-.17-24.95,0-11.73.24-19.12,7.9-19.2,19.66-.03,4.65,0,9.3,0,13.94,0,5.64-.12,11.29.02,16.93.22,8.67,8.02,16.84,16.69,17.1,9.64.29,19.31-.19,28.94.22,8.4.36,17.54-8.64,17.53-17.98,0-10.29.12-20.59-.04-30.87-.18-11.16-7.79-18.77-18.98-19Zm-5.18,49.77c-.15,4.71-2.76,5.68-9.65,5.59-4.56-.06-4.99-3-5.07-6.26-.12-5.13-.03-10.26-.03-15.4,0-4.97,0-9.93,0-14.9,0-3.96,1.86-6.15,5.95-6.37,5.06-.27,8.7,1.61,8.81,5.55.29,10.59.34,21.2,0,31.78Z"/>
  <path class="cls-1" d="m63.89,17.06C64.65,5.59,58.39.4,46.94.17,31.3-.15,15.64.2,0,0c-3.73-.05-4.34,1.38-4.28,4.64.18,9.8.07,19.6.07,29.4,0,9.97.1,19.93-.06,29.89-.05,2.93.67,4.18,3.85,4.05,5.48-.22,10.99-.23,16.47,0,3.25.14,3.94-1.23,3.78-4.1-.2-3.64.19-7.32-.11-10.95-.31-3.78.77-5.16,4.84-5.05,10.98.28,21.98-.13,32.95.2,4.76.14,6.76-.73,6.41-6.11-.55-8.27-.58-16.63-.04-24.9Zm-31.91,16.93h-1.49q-10.69,0-10.69-10.5,0-10.14,10.48-10.13c8.95,0,11.26,2.23,11.32,10.94q.06,9.69-9.61,9.69Z"/>
  <path class="cls-1" d="m126.94,55.38c-7.99.15-15.99.05-23.98.05-11.06,0-10.93,0-10.93-10.82,0-3.18.77-4.31,4.13-4.22,8.32.24,16.65.08,24.98.08,9.46,0,9.33,0,9.22-9.45-.03-2.87-.88-3.63-3.67-3.58-8.49.17-16.99.06-25.48.06-10.19,0-10.03,0-10.01-10.23,0-3.22,1.09-3.85,4.02-3.8,8.66.17,17.32.06,25.98.06,9.42,0,9.29,0,9.16-9.51-.04-2.94-1.04-3.53-3.74-3.51-18.32.1-36.64.11-54.97,0-2.88-.02-3.66.93-3.62,3.69.14,10.14.05,20.27.05,30.41,0,9.81.14,19.61-.08,29.41-.08,3.45.85,4.5,4.4,4.46,16.15-.19,32.31-.08,48.47-.08,9.81,0,9.7,0,9.47-9.7-.06-2.65-.84-3.37-3.42-3.32Z"/>
  <path class="cls-1" d="m379.96-.31h-2.5c-3,0-6,.14-8.99-.04-2.42-.15-2.98.75-3.15,3.08-.28,3.71,1.18,7.16,1.13,10.77-.15,10.43,1.78,20.79.94,31.22-.22,2.66.88,3.48,3.42,3.39,4.16-.14,8.34-.23,12.48.03,3.3.21,4.32-.95,4.26-4.2-.22-11.25.8-22.44,1.89-33.62q1.03-10.63-9.48-10.63Z"/>
  <path class="cls-1" d="m380.54,55.55c-1.99,0-4.02.24-5.96-.05-4.85-.71-6.42.82-6.39,6.02.02,5.13,1.47,6.85,6.36,6.03,1.13-.19,2.32-.03,3.48-.03q9.38,0,9.39-5.23.02-6.74-6.87-6.75Z"/>
  <path class="cls-1" d="m189.75,47.64c-.32-.45-.87-.88-.9-1.34-.05-.86.72-.66,1.29-.63,2.67,0,5.35-.16,7.99.07,3.06.27,4-.8,3.9-3.89-.23-7.14.28-14.31-.12-21.44-.63-11.17-7.37-19.48-18.48-20.08-14.79-.8-29.65-.17-44.48-.25-2.34-.01-3.2.73-3.19,3.15.07,20.45.08,40.9,0,61.34-.01,2.61.87,3.48,3.45,3.42,5.49-.14,11.01-.25,16.49.04,3.63.19,4.51-1.19,4.37-4.56-.25-5.84-.07-11.69-.07-18.81,6.77,7.98,12.52,14.78,18.32,21.54.64.74.64,2.02,2.39,1.9,8.46-.57,16.96.42,25.42-.56-.08-.32-.16-.64-.25-.96-5.38-6.3-10.75-12.61-16.13-18.91Zm-9.87-14.91c.01,1.57-1.15,1.8-2.41,1.79-2.5-.01-4.99,0-7.49,0q-9.98,0-9.98-10.18c0-.5,0-1,0-1.5,0-11.04,1.19-12.09,12.35-10.23,3.75.62,6.58,3.15,7.15,6.72.71,4.38.34,8.93.37,13.41Z"/>
  <path class="cls-1" d="m410.26-.31h-2.5c-3,0-6,.14-8.99-.04-2.42-.15-2.98.75-3.15,3.08-.28,3.71,1.18,7.16,1.13,10.77-.15,10.43,1.78,20.79.94,31.22-.22,2.66.88,3.48,3.42,3.39,4.16-.14,8.34-.23,12.48.03,3.3.21,4.32-.95,4.26-4.2-.22-11.25.8-22.44,1.89-33.62q1.03-10.63-9.48-10.63Z"/>
  <path class="cls-1" d="m410.84,55.55c-1.99,0-4.02.24-5.96-.05-4.85-.71-6.42.82-6.39,6.02.02,5.13,1.47,6.85,6.36,6.03,1.13-.19,2.32-.03,3.48-.03q9.38,0,9.39-5.23.02-6.74-6.87-6.75Z"/>
  <path class="cls-1" d="m554.89,55.38c-7.99.15-15.99.05-23.98.05-11.06,0-10.93,0-10.93-10.82,0-3.18.77-4.31,4.13-4.22,8.32.24,16.65.08,24.98.08,9.46,0,9.33,0,9.22-9.45-.03-2.87-.88-3.63-3.67-3.58-8.49.17-16.99.06-25.48.06-10.19,0-10.03,0-10.01-10.23,0-3.22,1.09-3.85,4.02-3.8,8.66.17,17.32.06,25.98.06,9.42,0,9.29,0,9.16-9.51-.04-2.94-1.04-3.53-3.74-3.51-18.32.1-36.64.11-54.97,0-2.88-.02-3.66.93-3.62,3.69.14,10.14.05,20.27.05,30.41,0,9.81.14,19.61-.08,29.41-.08,3.45.85,4.5,4.4,4.46,16.15-.19,32.31-.08,48.47-.08,9.81,0,9.7,0,9.47-9.7-.06-2.65-.84-3.37-3.42-3.32Z"/>
  <path class="cls-1" d="m575.26,64.49c.05-1.2-.54-1.8-1.69-1.65-1.63.22-3.26-.12-4.88.03-.06.43-.13.87-.19,1.3,0,.94-.05,1.88.02,2.81.04.56-.46,1.48.75,1.48,1.04,0,.97-.74.94-1.43-.03-.73.07-1.35.92-1.58,0,.22-.02.44.04.64.24.79-.64,2.27.78,2.25,1,0,.29-1.36.45-2.09.11-.49-.05-1.23.65-1.15.57.06.23.78.3,1.2.05.3.02.62,0,.94-.03.71.11,1.25.99,1.23.79-.02.91-.52.9-1.16-.02-.94-.04-1.88,0-2.81Z"/>
  <path class="cls-1" d="m563.45,62.83c-.38,0-1.05-.33-1.06.47-.01.59.43.82.95.76.82-.1.95.33.91,1.01-.04.67.16,1.42-.06,2.02-.37,1,.09,1.24.89,1.38,1.05.18,1.24-.41,1.18-1.27-.04-.57.06-1.15-.02-1.72-.18-1.33.39-1.81,1.67-1.6.03-.34.05-.68.08-1.02-1.51-.01-3.03-.05-4.54-.02Z"/>
</svg>