<?xml version="1.0" standalone="no"?>
<!DOCTYPE svg PUBLIC "-//W3C//DTD SVG 20010904//EN"
 "http://www.w3.org/TR/2001/REC-SVG-20010904/DTD/svg10.dtd">
<svg version="1.0" xmlns="http://www.w3.org/2000/svg"
 width="1500.000000pt" height="1500.000000pt" viewBox="0 0 1500.000000 1500.000000"
 preserveAspectRatio="xMidYMid meet">
<metadata>
Created by potrace 1.14, written by Peter Selinger 2001-2017
</metadata>
<g transform="translate(0.000000,1500.000000) scale(0.100000,-0.100000)"
fill="#000000" stroke="none">
<path d="M12005 9824 c-33 -7 -73 -14 -90 -17 -16 -3 -79 -14 -140 -26 -60
-11 -126 -23 -145 -26 -144 -24 -305 -62 -303 -72 2 -7 5 -38 9 -70 3 -32 8
-71 10 -88 6 -40 2 -885 -4 -885 -2 0 -17 9 -32 20 -52 37 -164 87 -235 105
-132 34 -322 24 -455 -23 -155 -54 -302 -207 -386 -400 -33 -76 -37 -77 -48
-2 -3 19 -23 94 -44 165 l-39 130 -64 -2 c-345 -8 -545 0 -769 32 -19 3 -51 8
-70 10 -19 3 -87 12 -150 20 -198 27 -237 29 -546 30 l-302 0 -54 -50 c-29
-27 -83 -75 -118 -105 -87 -75 -131 -123 -156 -170 l-20 -40 -41 38 c-51 46
-66 77 -87 175 -10 42 -20 75 -24 73 -4 -2 -23 -7 -42 -10 -110 -17 -520 -143
-521 -159 -2 -15 -2 -14 6 -67 6 -42 9 -58 22 -103 3 -12 -8 -6 -33 18 -88 85
-221 118 -343 85 -98 -26 -278 -103 -340 -145 -149 -100 -290 -273 -378 -462
l-35 -76 -33 82 c-45 110 -72 153 -133 216 -45 45 -90 65 -150 65 -141 0 -225
-76 -349 -312 -14 -26 -28 -48 -32 -48 -3 0 -7 65 -7 145 -1 80 -4 148 -6 151
-3 3 -18 7 -34 10 -70 12 -227 56 -319 89 -55 19 -102 35 -103 35 -2 0 -1 -22
2 -49 3 -27 8 -107 11 -178 l5 -128 -20 50 c-77 193 -262 441 -425 570 -27 22
-52 43 -55 46 -26 28 -238 138 -301 154 -119 32 -241 -32 -317 -166 -15 -27
-29 -49 -32 -49 -3 1 -15 22 -28 48 -16 32 -66 87 -160 175 -226 211 -339 278
-497 292 -145 13 -237 -52 -295 -208 -26 -69 -57 -206 -65 -290 -4 -37 -11
-70 -15 -72 -5 -3 -22 32 -40 77 -17 46 -37 99 -45 118 -7 19 -25 70 -40 112
l-27 77 -87 -46 c-87 -47 -350 -216 -386 -250 -11 -10 -38 -32 -60 -48 -51
-38 -76 -65 -69 -76 3 -5 11 -37 19 -71 8 -35 25 -112 39 -173 23 -96 42 -191
61 -300 13 -81 16 -223 21 -1005 2 -465 6 -888 8 -940 2 -52 7 -201 10 -330 4
-129 9 -291 11 -360 5 -130 14 -494 19 -759 3 -135 5 -156 21 -167 20 -15 334
-119 389 -130 33 -6 34 -5 31 23 -6 41 -14 184 -22 393 -11 312 -7 784 12
1535 2 61 3 209 4 329 1 121 3 217 5 215 3 -3 7 -18 10 -34 84 -469 235 -735
418 -735 136 0 263 190 372 560 13 47 48 162 77 255 28 94 52 176 52 183 1 23
12 0 13 -26 0 -15 4 -49 8 -75 8 -54 9 -60 31 -167 17 -89 22 -116 30 -195 4
-33 8 -71 10 -85 2 -14 7 -52 11 -85 6 -58 8 -71 19 -125 2 -14 7 -45 10 -69
10 -74 54 -212 93 -291 37 -77 99 -148 154 -176 79 -41 225 -60 314 -42 78 16
234 98 290 152 6 6 32 29 59 50 40 34 122 121 280 296 18 20 48 57 68 84 41
53 44 51 21 -14 -9 -25 -17 -52 -19 -60 -5 -23 -86 -211 -149 -344 -31 -65
-58 -123 -59 -129 -2 -11 42 -20 158 -32 33 -3 74 -8 90 -10 44 -6 203 -18
254 -19 l44 -1 98 155 c187 293 231 400 235 580 3 124 -8 210 -55 440 -36 173
-39 192 -47 250 -3 25 -7 52 -10 60 -4 16 -11 68 -23 180 -9 89 -5 211 9 270
16 66 51 96 107 91 25 -2 85 -66 113 -120 43 -86 78 -208 121 -425 22 -110 42
-203 45 -207 4 -8 24 -7 94 5 19 3 51 8 71 10 19 3 62 12 94 21 33 8 64 15 71
15 6 0 21 -46 34 -107 31 -151 82 -324 123 -419 47 -109 49 -124 52 -324 4
-230 28 -305 111 -345 68 -32 130 -24 323 41 168 58 274 125 390 250 124 133
244 337 322 547 41 112 28 50 -22 -109 -64 -201 -108 -348 -104 -352 2 -2 86
26 186 62 101 35 235 82 298 103 91 30 115 42 117 58 2 11 6 47 9 80 3 33 8
67 10 75 2 8 7 42 11 75 3 33 8 71 10 85 2 14 6 49 9 78 4 29 8 62 10 72 2 10
6 47 10 82 3 35 8 74 10 88 2 14 6 59 10 100 13 152 16 185 20 188 12 12 121
-126 149 -190 31 -69 104 -279 146 -418 61 -204 62 -205 95 -204 35 1 138 15
145 19 30 18 475 27 570 12 25 -4 63 -10 85 -12 22 -3 65 -10 95 -15 81 -13
118 -18 185 -25 33 -3 67 -8 75 -10 8 -2 53 -7 99 -10 47 -4 92 -8 100 -10 9
-2 66 -6 126 -10 61 -4 114 -10 119 -12 4 -3 6 12 2 33 -9 61 -15 121 -22 219
-3 50 -8 106 -9 125 -3 38 -7 229 -6 300 l1 45 39 -66 c34 -59 65 -121 134
-269 108 -231 244 -399 370 -459 76 -35 187 -42 264 -16 146 50 277 231 399
550 21 55 42 105 47 110 7 7 8 7 4 0 -7 -13 -16 -158 -22 -368 l-6 -169 28 6
c15 3 53 8 83 12 30 3 64 8 75 10 11 3 36 6 55 9 52 7 302 54 305 57 3 3 12
108 30 353 3 44 8 98 10 120 7 69 16 168 20 230 8 106 16 179 20 184 3 2 5 -4
6 -15 0 -10 2 -26 4 -34 2 -8 6 -30 9 -48 65 -344 180 -624 304 -732 86 -76
164 -93 278 -59 38 11 74 21 79 22 42 11 139 72 195 124 114 106 218 279 302
503 31 82 133 414 165 535 3 11 26 85 50 165 55 177 82 298 89 396 l6 75 -54
-29 c-29 -16 -139 -73 -244 -126 -179 -91 -190 -99 -192 -126 -6 -75 -69 -196
-140 -265 -37 -36 -131 -97 -170 -109 -68 -22 -117 -7 -150 45 -23 39 -49 131
-56 204 l-4 50 116 49 c106 45 454 198 527 231 33 15 252 114 328 148 38 17
47 26 48 46 0 14 2 46 4 71 5 62 6 338 1 375 -2 17 -6 55 -10 85 -20 168 -82
325 -159 404 -101 102 -218 122 -427 75 -25 -6 -56 -13 -70 -15 -53 -10 -203
-65 -272 -100 -208 -104 -401 -284 -483 -451 -14 -29 -27 -53 -29 -53 -9 0 6
253 19 320 3 14 8 41 11 60 9 47 8 42 48 235 46 222 64 339 70 456 4 70 2 96
-7 95 -7 0 -39 -5 -72 -12z m824 -1003 c17 -12 41 -40 52 -62 22 -45 39 -122
30 -138 -5 -7 -298 -109 -366 -127 -5 -2 -40 -14 -77 -27 l-67 -24 5 36 c12
73 57 189 93 237 39 52 113 108 165 124 51 15 129 6 165 -19z m-4014 -368 c-5
-131 -11 -197 -34 -378 -6 -44 -13 -102 -17 -130 -3 -27 -8 -53 -10 -57 -2 -3
-7 -35 -10 -70 -3 -34 -8 -66 -10 -70 -3 -4 -7 -29 -10 -55 -2 -26 -6 -55 -9
-63 -2 -8 -7 -37 -11 -65 -3 -27 -8 -54 -11 -58 -13 -21 -11 -306 2 -377 20
-108 19 -111 -18 -50 -19 30 -60 93 -91 139 -75 110 -116 199 -188 415 l-59
180 56 165 c75 218 138 342 214 422 24 25 199 159 207 159 3 0 2 -48 -1 -107z
m2391 -186 c65 -33 109 -116 129 -242 12 -76 13 -338 2 -395 -3 -14 -8 -47
-12 -74 -3 -27 -8 -52 -10 -55 -1 -3 -6 -22 -9 -41 -17 -107 -86 -258 -145
-317 -123 -123 -299 -140 -397 -38 -97 100 -115 296 -58 635 54 318 169 500
341 539 54 12 123 7 159 -12z m-8069 -5 c23 -13 52 -78 61 -137 11 -78 2 -370
-12 -394 -2 -3 -7 -33 -10 -66 -4 -33 -9 -69 -12 -80 -2 -11 -6 -31 -8 -45
-42 -238 -119 -401 -211 -444 -41 -20 -116 -19 -156 0 -158 78 -207 318 -134
649 8 38 35 120 51 155 83 183 164 280 287 344 69 36 102 40 144 18z m4221
-177 c20 -27 39 -52 43 -55 12 -10 106 -176 161 -285 l56 -110 -4 -200 c-2
-110 -4 -271 -5 -357 -1 -86 -6 -163 -10 -170 -6 -9 -9 -3 -10 17 0 17 -2 39
-4 50 -2 11 -7 40 -10 65 -3 25 -10 59 -15 75 -5 17 -11 41 -14 55 -2 14 -15
70 -29 125 -24 92 -53 224 -63 285 -27 157 -125 477 -164 535 -4 6 -19 33 -35
60 l-28 50 47 -45 c26 -25 64 -67 84 -95z m-3051 32 c106 -55 177 -216 186
-424 3 -51 3 -93 0 -93 -4 0 -99 52 -178 97 -22 12 -47 26 -55 30 -8 5 -56 30
-106 56 l-92 48 8 32 c22 91 54 171 83 209 52 68 88 79 154 45z m2477 -261
c95 -72 154 -212 231 -548 79 -346 89 -419 75 -587 -10 -111 -111 -231 -207
-246 -140 -21 -230 137 -324 570 -58 267 -66 307 -74 395 -14 153 -6 231 35
316 28 57 59 87 124 121 34 18 103 8 140 -21z m-2592 -853 c170 -84 278 -134
438 -206 30 -13 111 -46 178 -72 68 -26 126 -53 128 -59 2 -6 5 -43 7 -83 l4
-71 -96 33 c-53 19 -154 56 -225 84 -91 36 -132 48 -137 40 -4 -7 -10 -30 -13
-52 -10 -63 -57 -123 -114 -146 -80 -33 -200 4 -271 86 -72 81 -103 202 -101
399 2 139 2 145 9 142 3 -2 90 -45 193 -95z m3405 -145 c-3 -7 -5 -2 -5 12 0
14 2 19 5 13 2 -7 2 -19 0 -25z"/>
<path d="M9860 9457 c-3 -3 -41 -8 -84 -12 -43 -4 -86 -8 -95 -10 -9 -1 -52
-6 -96 -9 -44 -4 -98 -9 -120 -12 -69 -7 -243 -13 -452 -15 -229 -3 -205 6
-228 -89 -7 -29 -8 -221 -1 -265 3 -16 8 -64 11 -105 4 -41 8 -76 9 -77 3 -3
46 -8 151 -18 135 -13 238 -25 266 -30 126 -24 814 -27 833 -4 3 4 -30 129
-115 436 -47 168 -67 221 -79 210z"/>
</g>
</svg>
