<?xml version="1.0" encoding="UTF-8"?>
<svg id="Layer_1" data-name="Layer 1" xmlns="http://www.w3.org/2000/svg" viewBox="0 0 716.39 182.68">
  <defs>
    <style>
      .cls-1 {
        fill: #fff;
      }
    </style>
  </defs>
  <path class="cls-1" d="m320.04,114.47l-24.57,68.21h14.07l5.73-15.26h25.77l5.73,15.26h13.83l-24.09-68.21h-16.45Zm.48,38.16l7.62-19.31,7.16,19.08-14.78.24Z"/>
  <polygon class="cls-1" points="357.96 129.26 377.28 129.26 377.28 182.92 392.54 182.92 392.54 129.26 411.62 129.26 411.62 114.23 357.96 114.23 357.96 129.26"/>
  <path class="cls-1" d="m403.26,88c6.02,4.24,15.74,6.2,30.04,6.2s24.29-1.89,30.06-5.97c7.45-4.68,11.2-13.97,11.2-26.71v-28.38c0-12.47-3.7-21.34-11.2-26.47-6.16-4.32-16.57-6.68-30.06-6.68s-22.71,1.86-30.04,6.68c-7.67,4.97-11.2,13.38-11.2,26.47v28.38c0,13.18,3.75,22.05,11.2,26.47Zm9.07-54.85c0-13.69,4.04-17.98,15.5-18.84,1.62-.12,3.53,0,5.47,0,15.57,0,20.99,3.2,20.99,18.84v27.19c0,16.03-5.42,19.79-20.99,19.79s-20.97-3.76-20.97-19.79v-27.19Z"/>
  <path class="cls-1" d="m379.19,56.04v-19.79c0-24.88-9.96-34.58-35.56-34.58h-44.82v90.38h47.95c23.57,0,32.43-9.77,32.43-36.01Zm-60.11,21.94V14.79h24.55c7,0,15.52,4.11,15.52,18.84v24.56c0,15.84-8.53,19.8-15.52,19.8h-24.55Z"/>
  <path class="cls-1" d="m0,182.92h260.17V0H0v182.92ZM199.84,23.85h29.81v135.22h-29.81c-30.8,0-56.53-30.4-56.53-67.96s25.73-67.26,56.53-67.26Zm-169.08,0h29.57c30.79,0,56.52,30.73,56.52,67.26,0,37.57-25.73,67.96-56.52,67.96h-29.57V23.85Z"/>
  <polygon class="cls-1" points="641.48 121.63 637.92 113.75 634.13 113.75 634.13 129.02 637.21 129.02 637.21 119 640.79 126.63 642.22 126.63 646.04 118.05 646.26 129.02 649.12 129.02 649.12 113.75 645.33 113.75 641.48 121.63"/>
  <polygon class="cls-1" points="620.52 117.1 624.81 117.1 624.81 129.02 628.13 129.02 628.13 117.1 632.43 117.1 632.43 113.75 620.52 113.75 620.52 117.1"/>
  <path class="cls-1" d="m697.07,1.67l-22.45,40.78-21.44-40.78h-20.27c3.75,6.91,30.3,57.23,30.3,57.23v33.14h21.68v-33.14s27.34-50.27,31.26-57.23h-19.08Z"/>
  <path class="cls-1" d="m711.59,81.32c0-1.96-.96-2.86-3.32-2.86h-3.8v10.02h1.65v-4.3h1.67l2.63,4.3h1.43l-2.63-4.3c1.46-.18,2.36-1.12,2.36-2.86Zm-5.47,1.67v-3.1h1.89c1.77,0,2.15.49,2.15,1.43.05,1.11-.5,1.67-2.36,1.67h-1.67Z"/>
  <path class="cls-1" d="m707.8,74.89c-4.66,0-8.57,3.66-8.57,8.59s3.92,8.58,8.57,8.58c4.61,0,8.6-3.62,8.6-8.58s-3.99-8.59-8.6-8.59Zm0,15.74c-3.94,0-6.9-2.97-6.9-7.15s2.96-7.16,6.9-7.16,6.9,3.06,6.9,7.16-3.01,7.15-6.9,7.15Z"/>
  <path class="cls-1" d="m598.33,143.09l-16.91-2.38c-2.82-.37-4.56-1.37-4.56-4.53v-5.97c0-3.29.74-4.29,3.58-4.29h27.44v-7.4c-2.22-2.82-8.1-3.82-12.15-3.82h-14.3c-12.23,0-16.93,5.46-16.93,14.79v10.01c0,9.24,3.84,12.32,14.04,13.84l14.54,2.15c3.56.56,4.54,1.69,4.54,4.77v6.44c0,2.65-1.15,4.05-3.82,4.05h-29.09v7.15c2.56,2.98,8.07,3.83,12.15,3.82h17.91c11.49,0,15.47-4.82,15.47-14.54v-10.26c0-9.69-2.94-12.61-11.92-13.83Z"/>
  <polygon class="cls-1" points="546.85 77.03 509.62 77.03 509.62 1.67 489.34 1.67 489.34 92.05 546.85 92.05 546.85 77.03"/>
  <path class="cls-1" d="m546.35,117.33c-4.13-3.25-11.03-5.01-20.04-5.01s-15.14,1.38-20.04,5.01c-5.11,3.74-7.62,9.96-7.62,19.79v21.46c0,9.91,2.65,16.48,7.62,19.79,4.04,3.18,10.51,4.77,20.04,4.77s16.19-1.47,20.04-4.53c4.99-3.52,7.62-10.46,7.62-20.03v-21.46c0-9.37-2.6-15.94-7.62-19.79Zm-5.95,40.3c0,12.04-3.7,14.79-14.09,14.79s-14.07-2.75-14.07-14.79v-20.27c0-10.28,2.84-13.66,10.48-14.31,1.1-.09,2.29,0,3.58,0,10.39,0,14.09,2.56,14.09,14.31v20.27Z"/>
  <path class="cls-1" d="m621.23,87.76c4.32-2.91,9.79-9.49,9.79-19.79-.02-12.15-4.18-24.3-24.09-23.85,15.83-1.46,19.32-9.23,19.32-20.51,0-9.99-4.06-15.03-8.57-17.89-3.84-2.42-8.41-4.05-17.91-4.05h-41.72v90.38h42.2c13.01,0,18.46-2.54,20.99-4.29Zm-43.15-8.82V14.55h19.8c6.73,0,10.94,5.5,10.94,12.88,0,11.34-5.23,11.6-20.75,12.16v10.5c13.83-.06,24.83-1.12,24.83,13.35,0,7.27-4.51,15.5-16.45,15.5h-18.36Z"/>
  <polygon class="cls-1" points="452.38 150 436.4 114 419.47 114 419.47 182.68 433.54 182.68 433.54 138.08 449.06 171.47 455.96 171.47 473.37 133.55 473.85 182.68 487.22 182.68 487.22 114 469.79 114 452.38 150"/>
</svg>